M48
;Layer_Color=9474304
;FILE_FORMAT=4:3
METRIC,LZ
;TYPE=PLATED
T01F00S00C0.300
T02F00S00C0.500
T04F00S00C1.000
T05F00S00C3.200
%
T01
X0006973Y0002008
X0008188Y0004018
X0006999Y0005227
X0007025Y0006006
X0012014Y0005887
X0012068Y0008618
X0013061Y0009855
X0014439Y0012924
X0021055Y0010314
X0017528Y0005909
X0041131Y0008591
X004077Y0009502
X0041808Y0009498
X00418Y00103
X0041965Y0011225
X0041768Y0012129
X0042539Y0012604
X00424Y00134
X0043Y001405
X0043081Y0015117
X0042596Y0015839
X0043264Y0016366
X004289Y0017129
X0043109Y0018555
X0043301Y0020407
X0042286Y0014644
X0030059Y0015422
X0029701Y0016226
X0030059Y0017032
Y0017836
Y0018641
Y0013812
X0027612Y0016027
X0024981Y0017248
X0025148Y0018083
X0024536Y0019647
X00247Y001387
X0022065Y0013917
X0021676Y0016019
X0018386Y0020729
X0017626Y0020173
X0016702Y0020132
X0016439Y0028198
X0017057
Y0028816
X0016439
X0032513Y0042928
X0008842Y0039973
X0008616Y0032128
X0008473Y0028566
X001023Y0029737
X0012329Y0030443
X0011818Y0030982
X0012227Y0032426
X0012157Y0034407
X0009922Y0025995
X0009794Y0025298
X000985Y0022675
X00091Y0022651
X0009286Y0018937
X0009429Y0017957
X0009945Y0017548
X001011Y0016832
X0002521Y0026452
X0001769Y0027147
X0002997Y0032127
T02
X0001803Y0001803
X00011Y00035
X0001803Y0005197
X00035Y00059
X0005197Y0005197
X00059Y00035
X0005197Y0001803
X00035Y00011
X0038803Y0001803
X00381Y00035
X0038803Y0005197
X00405Y00059
X0042197Y0005197
X00429Y00035
X0042197Y0001803
X00405Y00011
Y00381
X0042197Y0038803
X00429Y00405
X0042197Y0042197
X00405Y00429
X0038803Y0042197
X00381Y00405
X0038803Y0038803
X0005197
X00035Y00381
X0001803Y0038803
X00011Y00405
X0001803Y0042197
X00035Y00429
X0005197Y0042197
X00059Y00405
T04
X000466Y00095
X00072
Y001204
X000466
X002492Y000785
Y000531
X002746
Y000785
X003
Y000531
X003254
Y000785
X00368Y00095
Y001204
X003934
X0035086Y0001837
X0032546
X0030006
X0027466
X0024926
X0022386
X00368Y001458
X003934
Y001712
X00368
Y001966
X003934
X00368Y00245
Y002704
Y002958
Y003212
Y003466
X003934
Y003212
Y002958
Y002704
X00072
Y00245
X000466
Y002704
Y002958
X00072
Y003212
X000466
Y003466
Y001966
Y001712
Y001458
X00072
Y001712
T05
X00035Y00035
X00405
Y00405
X00035
M30
