M48
;Layer_Color=9474304
;FILE_FORMAT=4:3
METRIC,LZ
;TYPE=PLATED
T01F00S00C0.300
T02F00S00C0.500
T04F00S00C1.000
T05F00S00C3.200
%
T01
X0014482Y00137
X0015182
X0015882
X0016582
X0032219Y0013656
X0030498Y0009865
X003265Y0019425
X003165Y0022
X0027201Y0023026
X0026251Y0024345
X00265Y0026325
X0026646Y0021076
X00186Y0021625
X001645Y0023025
X0016451Y0025
X001645Y0027
X001654Y0029
X001715Y00297
X00172Y00369
X00179
X00186
X00193
X002
X00207
X00214
X00221
X00228
X00235
X00242
X00249
X00256
X00263
X0027
X00277
X00284
X00291
X00298
X00305
X00312
X00319
X00326
Y00376
Y00383
Y0039
Y00397
Y00404
Y00411
Y00418
Y00425
Y00432
X0031975Y0034485
Y0033758
X00363Y0035973
Y00367
X00165Y00369
X00158
X00151
X00144
X001545Y00171
X00189Y0016125
X001995Y0014875
X0021301Y0014901
X0011225Y0017225
X0012075Y0035875
X00123Y00369
X0013
X00137
X00116
X00109
Y00376
Y00383
Y0039
Y00397
Y00404
Y00411
Y00418
Y00425
Y00432
X0008925Y0038675
T02
X0001803Y0001803
X00011Y00035
X0001803Y0005197
X00035Y00059
X0005197Y0005197
X00059Y00035
X0005197Y0001803
X00035Y00011
X0038803Y0001803
X00381Y00035
X0038803Y0005197
X00405Y00059
X0042197Y0005197
X00429Y00035
X0042197Y0001803
X00405Y00011
Y00381
X0042197Y0038803
X00429Y00405
X0042197Y0042197
X00405Y00429
X0038803Y0042197
X00381Y00405
X0038803Y0038803
X0005197
X00059Y00405
X0005197Y0042197
X00035Y00429
X0001803Y0042197
X00011Y00405
X0001803Y0038803
X00035Y00381
T04
X000466Y00095
X00072
Y001204
X000466
X00125Y001
Y000654
Y0004
X001504
Y000654
X001758
Y0004
X002012
Y000654
Y001
X001758
X001504
X00368Y00095
X003934
Y001204
X00368
Y001458
Y001712
X003934
Y001458
X00368Y001966
Y00245
X003934
Y002704
X00368
Y002958
X003934
Y003212
Y003466
X00368Y003212
X00105
Y002958
Y002704
Y00245
Y002196
X00072Y00245
X000466
Y002704
X00072
Y002958
X000466
Y003212
X00072
Y003466
X00105
X00072Y001712
Y001458
X000466
Y001712
Y001966
T05
X00035Y00035
X00405
Y00405
X00035
M30
