G04*
G04 #@! TF.GenerationSoftware,Altium Limited,Altium Designer,25.1.2 (22)*
G04*
G04 Layer_Color=8388736*
%FSLAX43Y43*%
%MOMM*%
G71*
G04*
G04 #@! TF.SameCoordinates,17EC2E02-D27E-49A4-BE65-F1638728C85A*
G04*
G04*
G04 #@! TF.FilePolarity,Negative*
G04*
G01*
G75*
%ADD29R,1.800X1.400*%
%ADD35R,1.400X1.800*%
%ADD45R,0.576X0.876*%
G04:AMPARAMS|DCode=46|XSize=1.576mm|YSize=0.876mm|CornerRadius=0.138mm|HoleSize=0mm|Usage=FLASHONLY|Rotation=0.000|XOffset=0mm|YOffset=0mm|HoleType=Round|Shape=RoundedRectangle|*
%AMROUNDEDRECTD46*
21,1,1.576,0.600,0,0,0.0*
21,1,1.300,0.876,0,0,0.0*
1,1,0.276,0.650,-0.300*
1,1,0.276,-0.650,-0.300*
1,1,0.276,-0.650,0.300*
1,1,0.276,0.650,0.300*
%
%ADD46ROUNDEDRECTD46*%
G04:AMPARAMS|DCode=47|XSize=0.726mm|YSize=1.676mm|CornerRadius=0.152mm|HoleSize=0mm|Usage=FLASHONLY|Rotation=270.000|XOffset=0mm|YOffset=0mm|HoleType=Round|Shape=RoundedRectangle|*
%AMROUNDEDRECTD47*
21,1,0.726,1.373,0,0,270.0*
21,1,0.422,1.676,0,0,270.0*
1,1,0.304,-0.686,-0.211*
1,1,0.304,-0.686,0.211*
1,1,0.304,0.686,0.211*
1,1,0.304,0.686,-0.211*
%
%ADD47ROUNDEDRECTD47*%
%ADD48R,1.676X0.726*%
%ADD49R,2.616X1.219*%
%ADD50R,1.219X2.616*%
G04:AMPARAMS|DCode=51|XSize=0.876mm|YSize=1.076mm|CornerRadius=0.138mm|HoleSize=0mm|Usage=FLASHONLY|Rotation=0.000|XOffset=0mm|YOffset=0mm|HoleType=Round|Shape=RoundedRectangle|*
%AMROUNDEDRECTD51*
21,1,0.876,0.800,0,0,0.0*
21,1,0.600,1.076,0,0,0.0*
1,1,0.276,0.300,-0.400*
1,1,0.276,-0.300,-0.400*
1,1,0.276,-0.300,0.400*
1,1,0.276,0.300,0.400*
%
%ADD51ROUNDEDRECTD51*%
%ADD52R,0.876X0.976*%
%ADD53R,0.876X0.576*%
%ADD54R,0.660X0.350*%
%ADD55R,1.100X1.250*%
%ADD56R,0.430X0.350*%
%ADD57R,0.701X0.906*%
%ADD58R,0.776X1.276*%
%ADD59R,0.836X1.276*%
%ADD60R,0.876X1.276*%
%ADD61R,0.834X0.888*%
%ADD62R,0.976X0.876*%
%ADD63R,2.076X0.626*%
G04:AMPARAMS|DCode=64|XSize=1.776mm|YSize=1.776mm|CornerRadius=0.888mm|HoleSize=0mm|Usage=FLASHONLY|Rotation=0.000|XOffset=0mm|YOffset=0mm|HoleType=Round|Shape=RoundedRectangle|*
%AMROUNDEDRECTD64*
21,1,1.776,0.000,0,0,0.0*
21,1,0.000,1.776,0,0,0.0*
1,1,1.776,0.000,0.000*
1,1,1.776,0.000,0.000*
1,1,1.776,0.000,0.000*
1,1,1.776,0.000,0.000*
%
%ADD64ROUNDEDRECTD64*%
%ADD65C,1.776*%
%ADD66R,1.776X1.776*%
G04:AMPARAMS|DCode=67|XSize=1.776mm|YSize=1.776mm|CornerRadius=0.888mm|HoleSize=0mm|Usage=FLASHONLY|Rotation=90.000|XOffset=0mm|YOffset=0mm|HoleType=Round|Shape=RoundedRectangle|*
%AMROUNDEDRECTD67*
21,1,1.776,0.000,0,0,90.0*
21,1,0.000,1.776,0,0,90.0*
1,1,1.776,0.000,0.000*
1,1,1.776,0.000,0.000*
1,1,1.776,0.000,0.000*
1,1,1.776,0.000,0.000*
%
%ADD67ROUNDEDRECTD67*%
%ADD68R,1.776X1.776*%
G04:AMPARAMS|DCode=69|XSize=1.176mm|YSize=1.776mm|CornerRadius=0.588mm|HoleSize=0mm|Usage=FLASHONLY|Rotation=0.000|XOffset=0mm|YOffset=0mm|HoleType=Round|Shape=RoundedRectangle|*
%AMROUNDEDRECTD69*
21,1,1.176,0.600,0,0,0.0*
21,1,0.000,1.776,0,0,0.0*
1,1,1.176,0.000,-0.300*
1,1,1.176,0.000,-0.300*
1,1,1.176,0.000,0.300*
1,1,1.176,0.000,0.300*
%
%ADD69ROUNDEDRECTD69*%
%ADD70C,1.076*%
D29*
X25825Y13650D02*
D03*
Y11050D02*
D03*
D35*
X12775Y12750D02*
D03*
X10175D02*
D03*
D45*
X32600Y22225D02*
D03*
X34100D02*
D03*
X32600Y20457D02*
D03*
X34100D02*
D03*
X33975Y27000D02*
D03*
X32475D02*
D03*
X32550Y25075D02*
D03*
X34050D02*
D03*
X34100Y23675D02*
D03*
X32600D02*
D03*
X18293Y16150D02*
D03*
X16793D02*
D03*
X15475D02*
D03*
X13975D02*
D03*
D46*
X30860Y17415D02*
D03*
Y15635D02*
D03*
X34140D02*
D03*
Y17415D02*
D03*
D47*
X15482Y12750D02*
D03*
Y14650D02*
D03*
X17982D02*
D03*
Y13700D02*
D03*
D48*
Y12750D02*
D03*
D49*
X29761Y35000D02*
D03*
X14250Y23000D02*
D03*
Y25000D02*
D03*
Y27000D02*
D03*
Y29000D02*
D03*
Y31000D02*
D03*
Y33000D02*
D03*
Y35000D02*
D03*
X29761Y33000D02*
D03*
Y31000D02*
D03*
Y29000D02*
D03*
Y27000D02*
D03*
Y25000D02*
D03*
Y23000D02*
D03*
Y21000D02*
D03*
X14250D02*
D03*
D50*
X17000Y19000D02*
D03*
X19000D02*
D03*
X21000D02*
D03*
X23000D02*
D03*
X25000D02*
D03*
X27000D02*
D03*
D51*
X9575Y14875D02*
D03*
X11075D02*
D03*
D52*
X10575Y19375D02*
D03*
X9275D02*
D03*
X10575Y18100D02*
D03*
X9275D02*
D03*
X10575Y16425D02*
D03*
X9275D02*
D03*
D53*
X22657Y14261D02*
D03*
Y12761D02*
D03*
X9750Y6870D02*
D03*
Y5370D02*
D03*
X12575Y16000D02*
D03*
Y14500D02*
D03*
X34122Y3072D02*
D03*
Y4572D02*
D03*
X34682Y12156D02*
D03*
Y13656D02*
D03*
X34122Y7372D02*
D03*
Y5872D02*
D03*
D54*
X28722Y12075D02*
D03*
X32097D02*
D03*
D55*
X28722Y11015D02*
D03*
X32097D02*
D03*
D56*
X27787Y10650D02*
D03*
Y11300D02*
D03*
Y11950D02*
D03*
X29657D02*
D03*
Y11300D02*
D03*
Y10650D02*
D03*
X31162D02*
D03*
Y11300D02*
D03*
Y11950D02*
D03*
X33032D02*
D03*
Y11300D02*
D03*
Y10650D02*
D03*
D57*
X30807Y13656D02*
D03*
X33032D02*
D03*
D58*
X28500Y7530D02*
D03*
X27500D02*
D03*
D59*
X29520D02*
D03*
X26480D02*
D03*
D60*
X30750D02*
D03*
X25250D02*
D03*
D61*
X27823Y13650D02*
D03*
X29077D02*
D03*
D62*
X21319Y14061D02*
D03*
Y12761D02*
D03*
X19982Y14061D02*
D03*
Y12761D02*
D03*
X34682Y10783D02*
D03*
Y9483D02*
D03*
X9750Y9500D02*
D03*
Y8200D02*
D03*
D63*
X35075Y42875D02*
D03*
Y39625D02*
D03*
X9000D02*
D03*
Y42875D02*
D03*
D64*
X39340Y17120D02*
D03*
X36800D02*
D03*
X39340Y14580D02*
D03*
Y12040D02*
D03*
X36800D02*
D03*
Y14580D02*
D03*
Y9500D02*
D03*
X10500Y29580D02*
D03*
Y32120D02*
D03*
Y21960D02*
D03*
Y24500D02*
D03*
Y27040D02*
D03*
X7200Y34660D02*
D03*
X4660Y24500D02*
D03*
X7200Y27040D02*
D03*
X4660D02*
D03*
X7200Y29580D02*
D03*
X4660D02*
D03*
X7200Y32120D02*
D03*
X4660D02*
D03*
Y9500D02*
D03*
X7200Y12040D02*
D03*
X4660D02*
D03*
X7200Y14580D02*
D03*
X4660D02*
D03*
X7200Y17120D02*
D03*
X4660D02*
D03*
Y19660D02*
D03*
X39340Y34660D02*
D03*
X36800Y24500D02*
D03*
X39340Y27040D02*
D03*
X36800D02*
D03*
X39340Y29580D02*
D03*
X36800D02*
D03*
X39340Y32120D02*
D03*
X36800D02*
D03*
D65*
Y19660D02*
D03*
D66*
X39340Y9500D02*
D03*
X10500Y34660D02*
D03*
X7200Y24500D02*
D03*
Y9500D02*
D03*
X39340Y24500D02*
D03*
D67*
X20120Y10000D02*
D03*
X17580D02*
D03*
X15040D02*
D03*
X12500Y6540D02*
D03*
X15040Y4000D02*
D03*
Y6540D02*
D03*
X17580Y4000D02*
D03*
Y6540D02*
D03*
X20120Y4000D02*
D03*
Y6540D02*
D03*
D68*
X12500Y10000D02*
D03*
Y4000D02*
D03*
D69*
X32320Y3650D02*
D03*
X23680D02*
D03*
X32320Y7450D02*
D03*
X23680D02*
D03*
D70*
X5197Y38803D02*
D03*
X5900Y40500D02*
D03*
X5197Y42197D02*
D03*
X3500Y42900D02*
D03*
X1803Y42197D02*
D03*
X1100Y40500D02*
D03*
X1803Y38803D02*
D03*
X3500Y38100D02*
D03*
X42197Y38803D02*
D03*
X42900Y40500D02*
D03*
X42197Y42197D02*
D03*
X40500Y42900D02*
D03*
X38803Y42197D02*
D03*
X38100Y40500D02*
D03*
X38803Y38803D02*
D03*
X40500Y38100D02*
D03*
X42197Y1803D02*
D03*
X42900Y3500D02*
D03*
X42197Y5197D02*
D03*
X40500Y5900D02*
D03*
X38803Y5197D02*
D03*
X38100Y3500D02*
D03*
X38803Y1803D02*
D03*
X40500Y1100D02*
D03*
X5197Y1803D02*
D03*
X5900Y3500D02*
D03*
X5197Y5197D02*
D03*
X3500Y5900D02*
D03*
X1803Y5197D02*
D03*
X1100Y3500D02*
D03*
X1803Y1803D02*
D03*
X3500Y1100D02*
D03*
M02*
