G04*
G04 #@! TF.GenerationSoftware,Altium Limited,Altium Designer,24.10.1 (45)*
G04*
G04 Layer_Color=128*
%FSLAX43Y43*%
%MOMM*%
G71*
G04*
G04 #@! TF.SameCoordinates,82C0A6C9-C4C8-43BB-9ED8-C2E15B313AAA*
G04*
G04*
G04 #@! TF.FilePolarity,Positive*
G04*
G01*
G75*
%ADD30R,1.156X0.536*%
G04:AMPARAMS|DCode=31|XSize=1.156mm|YSize=0.536mm|CornerRadius=0.268mm|HoleSize=0mm|Usage=FLASHONLY|Rotation=180.000|XOffset=0mm|YOffset=0mm|HoleType=Round|Shape=RoundedRectangle|*
%AMROUNDEDRECTD31*
21,1,1.156,0.000,0,0,180.0*
21,1,0.620,0.536,0,0,180.0*
1,1,0.536,-0.310,0.000*
1,1,0.536,0.310,0.000*
1,1,0.536,0.310,0.000*
1,1,0.536,-0.310,0.000*
%
%ADD31ROUNDEDRECTD31*%
%ADD33R,0.500X0.800*%
%ADD38R,0.900X0.800*%
G04:AMPARAMS|DCode=41|XSize=1.7mm|YSize=1.7mm|CornerRadius=0.85mm|HoleSize=0mm|Usage=FLASHONLY|Rotation=0.000|XOffset=0mm|YOffset=0mm|HoleType=Round|Shape=RoundedRectangle|*
%AMROUNDEDRECTD41*
21,1,1.700,0.000,0,0,0.0*
21,1,0.000,1.700,0,0,0.0*
1,1,1.700,0.000,0.000*
1,1,1.700,0.000,0.000*
1,1,1.700,0.000,0.000*
1,1,1.700,0.000,0.000*
%
%ADD41ROUNDEDRECTD41*%
%ADD42R,1.700X1.700*%
%ADD43R,1.700X1.700*%
G04:AMPARAMS|DCode=44|XSize=1.7mm|YSize=1.7mm|CornerRadius=0.85mm|HoleSize=0mm|Usage=FLASHONLY|Rotation=90.000|XOffset=0mm|YOffset=0mm|HoleType=Round|Shape=RoundedRectangle|*
%AMROUNDEDRECTD44*
21,1,1.700,0.000,0,0,90.0*
21,1,0.000,1.700,0,0,90.0*
1,1,1.700,0.000,0.000*
1,1,1.700,0.000,0.000*
1,1,1.700,0.000,0.000*
1,1,1.700,0.000,0.000*
%
%ADD44ROUNDEDRECTD44*%
%ADD45C,6.400*%
%ADD46C,1.000*%
%ADD89R,0.532X1.057*%
G04:AMPARAMS|DCode=90|XSize=1.057mm|YSize=0.532mm|CornerRadius=0.093mm|HoleSize=0mm|Usage=FLASHONLY|Rotation=90.000|XOffset=0mm|YOffset=0mm|HoleType=Round|Shape=RoundedRectangle|*
%AMROUNDEDRECTD90*
21,1,1.057,0.346,0,0,90.0*
21,1,0.871,0.532,0,0,90.0*
1,1,0.186,0.173,0.435*
1,1,0.186,0.173,-0.435*
1,1,0.186,-0.173,-0.435*
1,1,0.186,-0.173,0.435*
%
%ADD90ROUNDEDRECTD90*%
D30*
X13230Y28228D02*
D03*
X11080Y15873D02*
D03*
D31*
Y28228D02*
D03*
X13230Y27278D02*
D03*
Y26328D02*
D03*
X11080D02*
D03*
Y27278D02*
D03*
Y16823D02*
D03*
Y17773D02*
D03*
X13230D02*
D03*
Y16823D02*
D03*
Y15873D02*
D03*
D33*
X29027Y21778D02*
D03*
X27527D02*
D03*
X23791D02*
D03*
X25291D02*
D03*
X25291Y20558D02*
D03*
X23791D02*
D03*
X23791Y26477D02*
D03*
X25291D02*
D03*
X27527Y20558D02*
D03*
X29027D02*
D03*
X31263Y21778D02*
D03*
X32763D02*
D03*
X31263Y20558D02*
D03*
X32763D02*
D03*
D38*
X14771Y16805D02*
D03*
Y15505D02*
D03*
X9481Y28586D02*
D03*
Y27286D02*
D03*
D41*
X39340Y12040D02*
D03*
X36800D02*
D03*
X39340Y14580D02*
D03*
X36800D02*
D03*
X39340Y17120D02*
D03*
X36800D02*
D03*
X39340Y19660D02*
D03*
X36800Y9500D02*
D03*
X4660Y24500D02*
D03*
X7200Y27040D02*
D03*
X4660D02*
D03*
X7200Y29580D02*
D03*
X4660D02*
D03*
X7200Y32120D02*
D03*
X4660D02*
D03*
Y34660D02*
D03*
X36800Y24500D02*
D03*
X39340Y34660D02*
D03*
X36800Y32120D02*
D03*
X39340D02*
D03*
X36800Y29580D02*
D03*
X39340D02*
D03*
X36800Y27040D02*
D03*
X39340D02*
D03*
X4660Y9500D02*
D03*
X7200Y12040D02*
D03*
X4660D02*
D03*
X7200Y14580D02*
D03*
X4660D02*
D03*
X7200Y17120D02*
D03*
X4660D02*
D03*
Y19660D02*
D03*
D42*
X36800D02*
D03*
X7200Y24500D02*
D03*
X36800Y34660D02*
D03*
X7200Y9500D02*
D03*
D43*
X24920Y5310D02*
D03*
X35086Y1837D02*
D03*
D44*
X24920Y7850D02*
D03*
X27460Y5310D02*
D03*
Y7850D02*
D03*
X30000Y5310D02*
D03*
Y7850D02*
D03*
X32540Y5310D02*
D03*
Y7850D02*
D03*
X30006Y1837D02*
D03*
X32546D02*
D03*
X22386D02*
D03*
X24926D02*
D03*
X27466D02*
D03*
D45*
X3500Y40500D02*
D03*
Y3500D02*
D03*
X40500Y40500D02*
D03*
Y3500D02*
D03*
D46*
X3500Y38100D02*
D03*
X1803Y38803D02*
D03*
X1100Y40500D02*
D03*
X1803Y42197D02*
D03*
X3500Y42900D02*
D03*
X5197Y42197D02*
D03*
X5900Y40500D02*
D03*
X5197Y38803D02*
D03*
Y1803D02*
D03*
X5900Y3500D02*
D03*
X5197Y5197D02*
D03*
X3500Y5900D02*
D03*
X1803Y5197D02*
D03*
X1100Y3500D02*
D03*
X1803Y1803D02*
D03*
X3500Y1100D02*
D03*
X42197Y38803D02*
D03*
X42900Y40500D02*
D03*
X42197Y42197D02*
D03*
X40500Y42900D02*
D03*
X38803Y42197D02*
D03*
X38100Y40500D02*
D03*
X38803Y38803D02*
D03*
X40500Y38100D02*
D03*
X42197Y1803D02*
D03*
X42900Y3500D02*
D03*
X42197Y5197D02*
D03*
X40500Y5900D02*
D03*
X38803Y5197D02*
D03*
X38100Y3500D02*
D03*
X38803Y1803D02*
D03*
X40500Y1100D02*
D03*
D89*
X25491Y23171D02*
D03*
X29227D02*
D03*
X32963D02*
D03*
D90*
X23591D02*
D03*
X24541Y24972D02*
D03*
X28277D02*
D03*
X27327Y23171D02*
D03*
X32013Y24972D02*
D03*
X31062Y23171D02*
D03*
M02*
