%TF.GenerationSoftware,Altium Limited,Altium Designer,24.10.1 (45)*%
G04 Layer_Color=2752767*
%FSLAX43Y43*%
%MOMM*%
%TF.SameCoordinates,49FC1627-19C9-4530-BC61-3FE05538F24C*%
%TF.FilePolarity,Positive*%
%TF.FileFunction,Drawing*%
%TF.Part,Single*%
G01*
G75*
%TA.AperFunction,NonConductor*%
%ADD51C,0.127*%
%ADD52C,0.169*%
D51*
X18587Y3100D02*
X19095Y3608D01*
X19603Y3100D01*
X19095Y2592D01*
X18587Y3100D01*
X9947D02*
X10455Y3608D01*
X10963Y3100D01*
X10455Y2592D01*
X9947Y3100D01*
X18587Y6900D02*
X19095Y7408D01*
X19603Y6900D01*
X19095Y6392D01*
X18587Y6900D01*
X9947D02*
X10455Y7408D01*
X10963Y6900D01*
X10455Y6392D01*
X9947Y6900D01*
X39340Y11532D02*
X38832Y12548D01*
X39848D01*
X39340Y11532D01*
X36800D02*
X36292Y12548D01*
X37308D01*
X36800Y11532D01*
X39340Y14072D02*
X38832Y15088D01*
X39848D01*
X39340Y14072D01*
X36800D02*
X36292Y15088D01*
X37308D01*
X36800Y14072D01*
X39340Y16612D02*
X38832Y17628D01*
X39848D01*
X39340Y16612D01*
X36800D02*
X36292Y17628D01*
X37308D01*
X36800Y16612D01*
X39340Y19152D02*
X38832Y20168D01*
X39848D01*
X39340Y19152D01*
X36800D02*
X36292Y20168D01*
X37308D01*
X36800Y19152D01*
Y8992D02*
X36292Y10008D01*
X37308D01*
X36800Y8992D01*
X24920Y4802D02*
X24412Y5818D01*
X25428D01*
X24920Y4802D01*
Y7342D02*
X24412Y8358D01*
X25428D01*
X24920Y7342D01*
X27460Y4802D02*
X26952Y5818D01*
X27968D01*
X27460Y4802D01*
Y7342D02*
X26952Y8358D01*
X27968D01*
X27460Y7342D01*
X30000Y4802D02*
X29492Y5818D01*
X30508D01*
X30000Y4802D01*
Y7342D02*
X29492Y8358D01*
X30508D01*
X30000Y7342D01*
X32540Y4802D02*
X32032Y5818D01*
X33048D01*
X32540Y4802D01*
Y7342D02*
X32032Y8358D01*
X33048D01*
X32540Y7342D01*
X30006Y1329D02*
X29498Y2345D01*
X30514D01*
X30006Y1329D01*
X32546D02*
X32038Y2345D01*
X33054D01*
X32546Y1329D01*
X22386D02*
X21878Y2345D01*
X22894D01*
X22386Y1329D01*
X24926D02*
X24418Y2345D01*
X25434D01*
X24926Y1329D01*
X27466D02*
X26958Y2345D01*
X27974D01*
X27466Y1329D01*
X35086D02*
X34578Y2345D01*
X35594D01*
X35086Y1329D01*
X7200Y23992D02*
X6692Y25008D01*
X7708D01*
X7200Y23992D01*
X4660D02*
X4152Y25008D01*
X5168D01*
X4660Y23992D01*
X7200Y26532D02*
X6692Y27548D01*
X7708D01*
X7200Y26532D01*
X4660D02*
X4152Y27548D01*
X5168D01*
X4660Y26532D01*
X7200Y29072D02*
X6692Y30088D01*
X7708D01*
X7200Y29072D01*
X4660D02*
X4152Y30088D01*
X5168D01*
X4660Y29072D01*
X7200Y31612D02*
X6692Y32628D01*
X7708D01*
X7200Y31612D01*
X4660D02*
X4152Y32628D01*
X5168D01*
X4660Y31612D01*
Y34152D02*
X4152Y35168D01*
X5168D01*
X4660Y34152D01*
X2992Y37592D02*
Y38608D01*
X4008D01*
Y37592D01*
X2992D01*
X1295Y38295D02*
Y39311D01*
X2311D01*
Y38295D01*
X1295D01*
X592Y39992D02*
Y41008D01*
X1608D01*
Y39992D01*
X592D01*
X1295Y41689D02*
Y42705D01*
X2311D01*
Y41689D01*
X1295D01*
X2992Y42392D02*
Y43408D01*
X4008D01*
Y42392D01*
X2992D01*
X4689Y41689D02*
Y42705D01*
X5705D01*
Y41689D01*
X4689D01*
X5392Y39992D02*
Y41008D01*
X6408D01*
Y39992D01*
X5392D01*
X4689Y38295D02*
Y39311D01*
X5705D01*
Y38295D01*
X4689D01*
X36800Y23992D02*
X36292Y25008D01*
X37308D01*
X36800Y23992D01*
Y34152D02*
X36292Y35168D01*
X37308D01*
X36800Y34152D01*
X39340D02*
X38832Y35168D01*
X39848D01*
X39340Y34152D01*
X36800Y31612D02*
X36292Y32628D01*
X37308D01*
X36800Y31612D01*
X39340D02*
X38832Y32628D01*
X39848D01*
X39340Y31612D01*
X36800Y29072D02*
X36292Y30088D01*
X37308D01*
X36800Y29072D01*
X39340D02*
X38832Y30088D01*
X39848D01*
X39340Y29072D01*
X36800Y26532D02*
X36292Y27548D01*
X37308D01*
X36800Y26532D01*
X39340D02*
X38832Y27548D01*
X39848D01*
X39340Y26532D01*
X7200Y8992D02*
X6692Y10008D01*
X7708D01*
X7200Y8992D01*
X4660D02*
X4152Y10008D01*
X5168D01*
X4660Y8992D01*
X7200Y11532D02*
X6692Y12548D01*
X7708D01*
X7200Y11532D01*
X4660D02*
X4152Y12548D01*
X5168D01*
X4660Y11532D01*
X7200Y14072D02*
X6692Y15088D01*
X7708D01*
X7200Y14072D01*
X4660D02*
X4152Y15088D01*
X5168D01*
X4660Y14072D01*
X7200Y16612D02*
X6692Y17628D01*
X7708D01*
X7200Y16612D01*
X4660D02*
X4152Y17628D01*
X5168D01*
X4660Y16612D01*
Y19152D02*
X4152Y20168D01*
X5168D01*
X4660Y19152D01*
X4689Y1295D02*
Y2311D01*
X5705D01*
Y1295D01*
X4689D01*
X5392Y2992D02*
Y4008D01*
X6408D01*
Y2992D01*
X5392D01*
X4689Y4689D02*
Y5705D01*
X5705D01*
Y4689D01*
X4689D01*
X2992Y5392D02*
Y6408D01*
X4008D01*
Y5392D01*
X2992D01*
X1295Y4689D02*
Y5705D01*
X2311D01*
Y4689D01*
X1295D01*
X592Y2992D02*
Y4008D01*
X1608D01*
Y2992D01*
X592D01*
X1295Y1295D02*
Y2311D01*
X2311D01*
Y1295D01*
X1295D01*
X2992Y592D02*
Y1608D01*
X4008D01*
Y592D01*
X2992D01*
X41689Y38295D02*
Y39311D01*
X42705D01*
Y38295D01*
X41689D01*
X42392Y39992D02*
Y41008D01*
X43408D01*
Y39992D01*
X42392D01*
X41689Y41689D02*
Y42705D01*
X42705D01*
Y41689D01*
X41689D01*
X39992Y42392D02*
Y43408D01*
X41008D01*
Y42392D01*
X39992D01*
X38295Y41689D02*
Y42705D01*
X39311D01*
Y41689D01*
X38295D01*
X37592Y39992D02*
Y41008D01*
X38608D01*
Y39992D01*
X37592D01*
X38295Y38295D02*
Y39311D01*
X39311D01*
Y38295D01*
X38295D01*
X39992Y37592D02*
Y38608D01*
X41008D01*
Y37592D01*
X39992D01*
X41689Y1295D02*
Y2311D01*
X42705D01*
Y1295D01*
X41689D01*
X42392Y2992D02*
Y4008D01*
X43408D01*
Y2992D01*
X42392D01*
X41689Y4689D02*
Y5705D01*
X42705D01*
Y4689D01*
X41689D01*
X39992Y5392D02*
Y6408D01*
X41008D01*
Y5392D01*
X39992D01*
X38295Y4689D02*
Y5705D01*
X39311D01*
Y4689D01*
X38295D01*
X37592Y2992D02*
Y4008D01*
X38608D01*
Y2992D01*
X37592D01*
X38295Y1295D02*
Y2311D01*
X39311D01*
Y1295D01*
X38295D01*
X39992Y592D02*
Y1608D01*
X41008D01*
Y592D01*
X39992D01*
X30059Y13304D02*
X30313Y13558D01*
X30567D01*
X30313Y13812D01*
X30567Y14066D01*
X30313D01*
X30059Y14320D01*
X29805Y14066D01*
X29551D01*
X29805Y13812D01*
X29551Y13558D01*
X29805D01*
X30059Y13304D01*
X40770Y8994D02*
X41024Y9248D01*
X41278D01*
X41024Y9502D01*
X41278Y9756D01*
X41024D01*
X40770Y10010D01*
X40516Y9756D01*
X40262D01*
X40516Y9502D01*
X40262Y9248D01*
X40516D01*
X40770Y8994D01*
X43301Y19899D02*
X43555Y20153D01*
X43809D01*
X43555Y20407D01*
X43809Y20661D01*
X43555D01*
X43301Y20915D01*
X43047Y20661D01*
X42793D01*
X43047Y20407D01*
X42793Y20153D01*
X43047D01*
X43301Y19899D01*
X29701Y15718D02*
X29955Y15972D01*
X30209D01*
X29955Y16226D01*
X30209Y16480D01*
X29955D01*
X29701Y16734D01*
X29447Y16480D01*
X29193D01*
X29447Y16226D01*
X29193Y15972D01*
X29447D01*
X29701Y15718D01*
X43109Y18047D02*
X43363Y18301D01*
X43617D01*
X43363Y18555D01*
X43617Y18809D01*
X43363D01*
X43109Y19063D01*
X42855Y18809D01*
X42601D01*
X42855Y18555D01*
X42601Y18301D01*
X42855D01*
X43109Y18047D01*
X42596Y15331D02*
X42850Y15585D01*
X43104D01*
X42850Y15839D01*
X43104Y16093D01*
X42850D01*
X42596Y16347D01*
X42342Y16093D01*
X42088D01*
X42342Y15839D01*
X42088Y15585D01*
X42342D01*
X42596Y15331D01*
X42400Y12892D02*
X42654Y13146D01*
X42908D01*
X42654Y13400D01*
X42908Y13654D01*
X42654D01*
X42400Y13908D01*
X42146Y13654D01*
X41892D01*
X42146Y13400D01*
X41892Y13146D01*
X42146D01*
X42400Y12892D01*
X43000Y13542D02*
X43254Y13796D01*
X43508D01*
X43254Y14050D01*
X43508Y14304D01*
X43254D01*
X43000Y14558D01*
X42746Y14304D01*
X42492D01*
X42746Y14050D01*
X42492Y13796D01*
X42746D01*
X43000Y13542D01*
X41800Y9792D02*
X42054Y10046D01*
X42308D01*
X42054Y10300D01*
X42308Y10554D01*
X42054D01*
X41800Y10808D01*
X41546Y10554D01*
X41292D01*
X41546Y10300D01*
X41292Y10046D01*
X41546D01*
X41800Y9792D01*
X9342Y22167D02*
X9596Y22675D01*
X9342Y23183D01*
X9850Y22929D01*
X10358Y23183D01*
X10104Y22675D01*
X10358Y22167D01*
X9850Y22421D01*
X9342Y22167D01*
X9100Y22143D02*
X9354Y22397D01*
X9608D01*
X9354Y22651D01*
X9608Y22905D01*
X9354D01*
X9100Y23159D01*
X8846Y22905D01*
X8592D01*
X8846Y22651D01*
X8592Y22397D01*
X8846D01*
X9100Y22143D01*
X12329Y29935D02*
X12583Y30189D01*
X12837D01*
X12583Y30443D01*
X12837Y30697D01*
X12583D01*
X12329Y30951D01*
X12075Y30697D01*
X11821D01*
X12075Y30443D01*
X11821Y30189D01*
X12075D01*
X12329Y29935D01*
X11818Y30474D02*
X12072Y30728D01*
X12326D01*
X12072Y30982D01*
X12326Y31236D01*
X12072D01*
X11818Y31490D01*
X11564Y31236D01*
X11310D01*
X11564Y30982D01*
X11310Y30728D01*
X11564D01*
X11818Y30474D01*
X25148Y17575D02*
X25402Y17829D01*
X25656D01*
X25402Y18083D01*
X25656Y18337D01*
X25402D01*
X25148Y18591D01*
X24894Y18337D01*
X24640D01*
X24894Y18083D01*
X24640Y17829D01*
X24894D01*
X25148Y17575D01*
X24536Y19139D02*
X24790Y19393D01*
X25044D01*
X24790Y19647D01*
X25044Y19901D01*
X24790D01*
X24536Y20155D01*
X24282Y19901D01*
X24028D01*
X24282Y19647D01*
X24028Y19393D01*
X24282D01*
X24536Y19139D01*
X24981Y16740D02*
X25235Y16994D01*
X25489D01*
X25235Y17248D01*
X25489Y17502D01*
X25235D01*
X24981Y17756D01*
X24727Y17502D01*
X24473D01*
X24727Y17248D01*
X24473Y16994D01*
X24727D01*
X24981Y16740D01*
X30059Y16524D02*
X30313Y16778D01*
X30567D01*
X30313Y17032D01*
X30567Y17286D01*
X30313D01*
X30059Y17540D01*
X29805Y17286D01*
X29551D01*
X29805Y17032D01*
X29551Y16778D01*
X29805D01*
X30059Y16524D01*
Y17328D02*
X30313Y17582D01*
X30567D01*
X30313Y17836D01*
X30567Y18090D01*
X30313D01*
X30059Y18344D01*
X29805Y18090D01*
X29551D01*
X29805Y17836D01*
X29551Y17582D01*
X29805D01*
X30059Y17328D01*
Y18133D02*
X30313Y18387D01*
X30567D01*
X30313Y18641D01*
X30567Y18895D01*
X30313D01*
X30059Y19149D01*
X29805Y18895D01*
X29551D01*
X29805Y18641D01*
X29551Y18387D01*
X29805D01*
X30059Y18133D01*
X41131Y8083D02*
X41385Y8337D01*
X41639D01*
X41385Y8591D01*
X41639Y8845D01*
X41385D01*
X41131Y9099D01*
X40877Y8845D01*
X40623D01*
X40877Y8591D01*
X40623Y8337D01*
X40877D01*
X41131Y8083D01*
X41808Y8990D02*
X42062Y9244D01*
X42316D01*
X42062Y9498D01*
X42316Y9752D01*
X42062D01*
X41808Y10006D01*
X41554Y9752D01*
X41300D01*
X41554Y9498D01*
X41300Y9244D01*
X41554D01*
X41808Y8990D01*
X41965Y10717D02*
X42219Y10971D01*
X42473D01*
X42219Y11225D01*
X42473Y11479D01*
X42219D01*
X41965Y11733D01*
X41711Y11479D01*
X41457D01*
X41711Y11225D01*
X41457Y10971D01*
X41711D01*
X41965Y10717D01*
X42539Y12097D02*
X42793Y12351D01*
X43047D01*
X42793Y12604D01*
X43047Y12858D01*
X42793D01*
X42539Y13113D01*
X42285Y12858D01*
X42031D01*
X42285Y12604D01*
X42031Y12351D01*
X42285D01*
X42539Y12097D01*
X43081Y14609D02*
X43335Y14863D01*
X43589D01*
X43335Y15117D01*
X43589Y15371D01*
X43335D01*
X43081Y15625D01*
X42827Y15371D01*
X42573D01*
X42827Y15117D01*
X42573Y14863D01*
X42827D01*
X43081Y14609D01*
X43264Y15858D02*
X43518Y16112D01*
X43772D01*
X43518Y16366D01*
X43772Y16620D01*
X43518D01*
X43264Y16874D01*
X43010Y16620D01*
X42756D01*
X43010Y16366D01*
X42756Y16112D01*
X43010D01*
X43264Y15858D01*
X42286Y14136D02*
X42540Y14390D01*
X42794D01*
X42540Y14644D01*
X42794Y14898D01*
X42540D01*
X42286Y15152D01*
X42032Y14898D01*
X41778D01*
X42032Y14644D01*
X41778Y14390D01*
X42032D01*
X42286Y14136D01*
X41768Y11621D02*
X42022Y11875D01*
X42276D01*
X42022Y12129D01*
X42276Y12383D01*
X42022D01*
X41768Y12637D01*
X41514Y12383D01*
X41260D01*
X41514Y12129D01*
X41260Y11875D01*
X41514D01*
X41768Y11621D01*
X42890Y16621D02*
X43144Y16875D01*
X43398D01*
X43144Y17129D01*
X43398Y17383D01*
X43144D01*
X42890Y17637D01*
X42636Y17383D01*
X42382D01*
X42636Y17129D01*
X42382Y16875D01*
X42636D01*
X42890Y16621D01*
X30059Y14914D02*
X30313Y15168D01*
X30567D01*
X30313Y15422D01*
X30567Y15676D01*
X30313D01*
X30059Y15930D01*
X29805Y15676D01*
X29551D01*
X29805Y15422D01*
X29551Y15168D01*
X29805D01*
X30059Y14914D01*
X27612Y15519D02*
X27866Y15773D01*
X28120D01*
X27866Y16027D01*
X28120Y16281D01*
X27866D01*
X27612Y16535D01*
X27358Y16281D01*
X27104D01*
X27358Y16027D01*
X27104Y15773D01*
X27358D01*
X27612Y15519D01*
X32513Y42420D02*
X32767Y42674D01*
X33021D01*
X32767Y42928D01*
X33021Y43182D01*
X32767D01*
X32513Y43436D01*
X32259Y43182D01*
X32005D01*
X32259Y42928D01*
X32005Y42674D01*
X32259D01*
X32513Y42420D01*
X1769Y26639D02*
X2023Y26893D01*
X2277D01*
X2023Y27147D01*
X2277Y27401D01*
X2023D01*
X1769Y27655D01*
X1515Y27401D01*
X1261D01*
X1515Y27147D01*
X1261Y26893D01*
X1515D01*
X1769Y26639D01*
X2013Y25944D02*
X2267Y26452D01*
X2013Y26960D01*
X2521Y26706D01*
X3029Y26960D01*
X2775Y26452D01*
X3029Y25944D01*
X2521Y26198D01*
X2013Y25944D01*
X8108Y31620D02*
X8362Y32128D01*
X8108Y32636D01*
X8616Y32382D01*
X9124Y32636D01*
X8870Y32128D01*
X9124Y31620D01*
X8616Y31874D01*
X8108Y31620D01*
X2489Y31619D02*
X2743Y32127D01*
X2489Y32635D01*
X2997Y32381D01*
X3505Y32635D01*
X3251Y32127D01*
X3505Y31619D01*
X2997Y31873D01*
X2489Y31619D01*
X16549Y28308D02*
X16803Y28816D01*
X16549Y29324D01*
X17057Y29070D01*
X17565Y29324D01*
X17311Y28816D01*
X17565Y28308D01*
X17057Y28562D01*
X16549Y28308D01*
X15931Y27690D02*
X16185Y28198D01*
X15931Y28706D01*
X16439Y28452D01*
X16947Y28706D01*
X16693Y28198D01*
X16947Y27690D01*
X16439Y27944D01*
X15931Y27690D01*
X16549D02*
X16803Y28198D01*
X16549Y28706D01*
X17057Y28452D01*
X17565Y28706D01*
X17311Y28198D01*
X17565Y27690D01*
X17057Y27944D01*
X16549Y27690D01*
X15931Y28308D02*
X16185Y28816D01*
X15931Y29324D01*
X16439Y29070D01*
X16947Y29324D01*
X16693Y28816D01*
X16947Y28308D01*
X16439Y28562D01*
X15931Y28308D01*
X12227Y31918D02*
X12481Y32172D01*
X12735D01*
X12481Y32426D01*
X12735Y32680D01*
X12481D01*
X12227Y32934D01*
X11973Y32680D01*
X11719D01*
X11973Y32426D01*
X11719Y32172D01*
X11973D01*
X12227Y31918D01*
X12157Y33899D02*
X12411Y34153D01*
X12665D01*
X12411Y34407D01*
X12665Y34661D01*
X12411D01*
X12157Y34915D01*
X11903Y34661D01*
X11649D01*
X11903Y34407D01*
X11649Y34153D01*
X11903D01*
X12157Y33899D01*
X8842Y39465D02*
X9096Y39719D01*
X9350D01*
X9096Y39973D01*
X9350Y40227D01*
X9096D01*
X8842Y40481D01*
X8588Y40227D01*
X8334D01*
X8588Y39973D01*
X8334Y39719D01*
X8588D01*
X8842Y39465D01*
X24700Y13362D02*
X24954Y13616D01*
X25208D01*
X24954Y13870D01*
X25208Y14124D01*
X24954D01*
X24700Y14378D01*
X24446Y14124D01*
X24192D01*
X24446Y13870D01*
X24192Y13616D01*
X24446D01*
X24700Y13362D01*
X21168Y15511D02*
X21422Y16019D01*
X21168Y16527D01*
X21676Y16273D01*
X22184Y16527D01*
X21930Y16019D01*
X22184Y15511D01*
X21676Y15765D01*
X21168Y15511D01*
X6491Y4719D02*
X6745Y5227D01*
X6491Y5735D01*
X6999Y5481D01*
X7507Y5735D01*
X7253Y5227D01*
X7507Y4719D01*
X6999Y4973D01*
X6491Y4719D01*
X6465Y1500D02*
X6719Y2008D01*
X6465Y2516D01*
X6973Y2262D01*
X7481Y2516D01*
X7227Y2008D01*
X7481Y1500D01*
X6973Y1754D01*
X6465Y1500D01*
X7680Y3510D02*
X7934Y4018D01*
X7680Y4526D01*
X8188Y4272D01*
X8696Y4526D01*
X8442Y4018D01*
X8696Y3510D01*
X8188Y3764D01*
X7680Y3510D01*
X6517Y5498D02*
X6771Y6006D01*
X6517Y6514D01*
X7025Y6260D01*
X7533Y6514D01*
X7279Y6006D01*
X7533Y5498D01*
X7025Y5752D01*
X6517Y5498D01*
X17118Y19665D02*
X17372Y20173D01*
X17118Y20681D01*
X17626Y20427D01*
X18134Y20681D01*
X17880Y20173D01*
X18134Y19665D01*
X17626Y19919D01*
X17118Y19665D01*
X17878Y20221D02*
X18132Y20729D01*
X17878Y21237D01*
X18386Y20983D01*
X18894Y21237D01*
X18640Y20729D01*
X18894Y20221D01*
X18386Y20475D01*
X17878Y20221D01*
X9286Y24790D02*
X9540Y25298D01*
X9286Y25806D01*
X9794Y25552D01*
X10302Y25806D01*
X10048Y25298D01*
X10302Y24790D01*
X9794Y25044D01*
X9286Y24790D01*
X9414Y25487D02*
X9668Y25995D01*
X9414Y26503D01*
X9922Y26249D01*
X10430Y26503D01*
X10176Y25995D01*
X10430Y25487D01*
X9922Y25741D01*
X9414Y25487D01*
X8778Y18429D02*
X9032Y18937D01*
X8778Y19445D01*
X9286Y19191D01*
X9794Y19445D01*
X9540Y18937D01*
X9794Y18429D01*
X9286Y18683D01*
X8778Y18429D01*
X8921Y17449D02*
X9175Y17957D01*
X8921Y18465D01*
X9429Y18211D01*
X9937Y18465D01*
X9683Y17957D01*
X9937Y17449D01*
X9429Y17703D01*
X8921Y17449D01*
X9437Y17040D02*
X9691Y17548D01*
X9437Y18056D01*
X9945Y17802D01*
X10453Y18056D01*
X10199Y17548D01*
X10453Y17040D01*
X9945Y17294D01*
X9437Y17040D01*
X13931Y12416D02*
X14185Y12924D01*
X13931Y13432D01*
X14439Y13178D01*
X14947Y13432D01*
X14693Y12924D01*
X14947Y12416D01*
X14439Y12670D01*
X13931Y12416D01*
X9602Y16324D02*
X9856Y16832D01*
X9602Y17340D01*
X10110Y17086D01*
X10618Y17340D01*
X10364Y16832D01*
X10618Y16324D01*
X10110Y16578D01*
X9602Y16324D01*
X7965Y28058D02*
X8219Y28566D01*
X7965Y29074D01*
X8473Y28820D01*
X8981Y29074D01*
X8727Y28566D01*
X8981Y28058D01*
X8473Y28312D01*
X7965Y28058D01*
X9722Y29229D02*
X9976Y29737D01*
X9722Y30245D01*
X10230Y29991D01*
X10738Y30245D01*
X10484Y29737D01*
X10738Y29229D01*
X10230Y29483D01*
X9722Y29229D01*
X16194Y19624D02*
X16448Y20132D01*
X16194Y20640D01*
X16702Y20386D01*
X17210Y20640D01*
X16956Y20132D01*
X17210Y19624D01*
X16702Y19878D01*
X16194Y19624D01*
X21557Y13409D02*
X21811Y13917D01*
X21557Y14425D01*
X22065Y14171D01*
X22573Y14425D01*
X22319Y13917D01*
X22573Y13409D01*
X22065Y13663D01*
X21557Y13409D01*
X20547Y9806D02*
X20801Y10314D01*
X20547Y10822D01*
X21055Y10568D01*
X21563Y10822D01*
X21309Y10314D01*
X21563Y9806D01*
X21055Y10060D01*
X20547Y9806D01*
X17020Y5401D02*
X17274Y5909D01*
X17020Y6417D01*
X17528Y6163D01*
X18036Y6417D01*
X17782Y5909D01*
X18036Y5401D01*
X17528Y5655D01*
X17020Y5401D01*
X11506Y5379D02*
X11760Y5887D01*
X11506Y6395D01*
X12014Y6141D01*
X12522Y6395D01*
X12268Y5887D01*
X12522Y5379D01*
X12014Y5633D01*
X11506Y5379D01*
X12553Y9347D02*
X12807Y9855D01*
X12553Y10363D01*
X13061Y10109D01*
X13569Y10363D01*
X13315Y9855D01*
X13569Y9347D01*
X13061Y9601D01*
X12553Y9347D01*
X11560Y8110D02*
X11814Y8618D01*
X11560Y9126D01*
X12068Y8872D01*
X12576Y9126D01*
X12322Y8618D01*
X12576Y8110D01*
X12068Y8364D01*
X11560Y8110D01*
D52*
X4008Y40500D02*
G03*
X4008Y40500I-508J0D01*
G01*
Y3500D02*
G03*
X4008Y3500I-508J0D01*
G01*
X41008Y40500D02*
G03*
X41008Y40500I-508J0D01*
G01*
Y3500D02*
G03*
X41008Y3500I-508J0D01*
G01*
%TF.MD5,dcbc5085f9c319febf6de7151aaae695*%
M02*
