%TF.GenerationSoftware,Altium Limited,Altium Designer,24.10.1 (45)*%
G04 Layer_Color=0*
%FSLAX43Y43*%
%MOMM*%
%TF.SameCoordinates,49FC1627-19C9-4530-BC61-3FE05538F24C*%
%TF.FilePolarity,Positive*%
%TF.FileFunction,Plated,1,2,PTH,Drill*%
%TF.Part,Single*%
G01*
G75*
%TA.AperFunction,ComponentDrill*%
%ADD44O,0.600X1.200*%
%ADD45C,1.000*%
%ADD46C,1.000*%
%ADD47C,3.200*%
%ADD48C,0.500*%
%TA.AperFunction,ViaDrill,NotFilled*%
%ADD49C,0.300*%
D44*
X19095Y3100D02*
D03*
X10455D02*
D03*
X19095Y6900D02*
D03*
X10455D02*
D03*
D45*
X39340Y12040D02*
D03*
X36800D02*
D03*
X39340Y14580D02*
D03*
X36800D02*
D03*
X39340Y17120D02*
D03*
X36800D02*
D03*
X39340Y19660D02*
D03*
X36800D02*
D03*
Y9500D02*
D03*
X7200Y24500D02*
D03*
X4660D02*
D03*
X7200Y27040D02*
D03*
X4660D02*
D03*
X7200Y29580D02*
D03*
X4660D02*
D03*
X7200Y32120D02*
D03*
X4660D02*
D03*
Y34660D02*
D03*
X36800Y24500D02*
D03*
Y34660D02*
D03*
X39340D02*
D03*
X36800Y32120D02*
D03*
X39340D02*
D03*
X36800Y29580D02*
D03*
X39340D02*
D03*
X36800Y27040D02*
D03*
X39340D02*
D03*
X7200Y9500D02*
D03*
X4660D02*
D03*
X7200Y12040D02*
D03*
X4660D02*
D03*
X7200Y14580D02*
D03*
X4660D02*
D03*
X7200Y17120D02*
D03*
X4660D02*
D03*
Y19660D02*
D03*
D46*
X24920Y5310D02*
D03*
Y7850D02*
D03*
X27460Y5310D02*
D03*
Y7850D02*
D03*
X30000Y5310D02*
D03*
Y7850D02*
D03*
X32540Y5310D02*
D03*
Y7850D02*
D03*
X30006Y1837D02*
D03*
X32546D02*
D03*
X22386D02*
D03*
X24926D02*
D03*
X27466D02*
D03*
X35086D02*
D03*
D47*
X3500Y40500D02*
D03*
Y3500D02*
D03*
X40500Y40500D02*
D03*
Y3500D02*
D03*
D48*
X3500Y38100D02*
D03*
X1803Y38803D02*
D03*
X1100Y40500D02*
D03*
X1803Y42197D02*
D03*
X3500Y42900D02*
D03*
X5197Y42197D02*
D03*
X5900Y40500D02*
D03*
X5197Y38803D02*
D03*
Y1803D02*
D03*
X5900Y3500D02*
D03*
X5197Y5197D02*
D03*
X3500Y5900D02*
D03*
X1803Y5197D02*
D03*
X1100Y3500D02*
D03*
X1803Y1803D02*
D03*
X3500Y1100D02*
D03*
X42197Y38803D02*
D03*
X42900Y40500D02*
D03*
X42197Y42197D02*
D03*
X40500Y42900D02*
D03*
X38803Y42197D02*
D03*
X38100Y40500D02*
D03*
X38803Y38803D02*
D03*
X40500Y38100D02*
D03*
X42197Y1803D02*
D03*
X42900Y3500D02*
D03*
X42197Y5197D02*
D03*
X40500Y5900D02*
D03*
X38803Y5197D02*
D03*
X38100Y3500D02*
D03*
X38803Y1803D02*
D03*
X40500Y1100D02*
D03*
D49*
X30059Y13812D02*
D03*
X40770Y9502D02*
D03*
X43301Y20407D02*
D03*
X29701Y16226D02*
D03*
X43109Y18555D02*
D03*
X42596Y15839D02*
D03*
X42400Y13400D02*
D03*
X43000Y14050D02*
D03*
X41800Y10300D02*
D03*
X9850Y22675D02*
D03*
X9100Y22651D02*
D03*
X12329Y30443D02*
D03*
X11818Y30982D02*
D03*
X25148Y18083D02*
D03*
X24536Y19647D02*
D03*
X24981Y17248D02*
D03*
X30059Y17032D02*
D03*
Y17836D02*
D03*
Y18641D02*
D03*
X41131Y8591D02*
D03*
X41808Y9498D02*
D03*
X41965Y11225D02*
D03*
X42539Y12604D02*
D03*
X43081Y15117D02*
D03*
X43264Y16366D02*
D03*
X42286Y14644D02*
D03*
X41768Y12129D02*
D03*
X42890Y17129D02*
D03*
X30059Y15422D02*
D03*
X27612Y16027D02*
D03*
X32513Y42928D02*
D03*
X1769Y27147D02*
D03*
X2521Y26452D02*
D03*
X8616Y32128D02*
D03*
X2997Y32127D02*
D03*
X17057Y28816D02*
D03*
X16439Y28198D02*
D03*
X17057D02*
D03*
X16439Y28816D02*
D03*
X12227Y32426D02*
D03*
X12157Y34407D02*
D03*
X8842Y39973D02*
D03*
X24700Y13870D02*
D03*
X21676Y16019D02*
D03*
X6999Y5227D02*
D03*
X6973Y2008D02*
D03*
X8188Y4018D02*
D03*
X7025Y6006D02*
D03*
X17626Y20173D02*
D03*
X18386Y20729D02*
D03*
X9794Y25298D02*
D03*
X9922Y25995D02*
D03*
X9286Y18937D02*
D03*
X9429Y17957D02*
D03*
X9945Y17548D02*
D03*
X14439Y12924D02*
D03*
X10110Y16832D02*
D03*
X8473Y28566D02*
D03*
X10230Y29737D02*
D03*
X16702Y20132D02*
D03*
X22065Y13917D02*
D03*
X21055Y10314D02*
D03*
X17528Y5909D02*
D03*
X12014Y5887D02*
D03*
X13061Y9855D02*
D03*
X12068Y8618D02*
D03*
%TF.MD5,789a856f4f9845b034765d1c0b789e68*%
M02*
