%TF.GenerationSoftware,Altium Limited,Altium Designer,24.10.1 (45)*%
G04 Layer_Physical_Order=2*
G04 Layer_Color=16711680*
%FSLAX43Y43*%
%MOMM*%
%TF.SameCoordinates,4F6CA7F9-16B1-4BEF-A266-F2E80261E3DE*%
%TF.FilePolarity,Positive*%
%TF.FileFunction,Copper,L2,Bot,Signal*%
%TF.Part,Single*%
G01*
G75*
%TA.AperFunction,Conductor*%
%ADD10C,0.400*%
%ADD11C,0.329*%
%TA.AperFunction,SMDPad,CuDef*%
%ADD25R,1.156X0.536*%
G04:AMPARAMS|DCode=26|XSize=1.156mm|YSize=0.536mm|CornerRadius=0.268mm|HoleSize=0mm|Usage=FLASHONLY|Rotation=180.000|XOffset=0mm|YOffset=0mm|HoleType=Round|Shape=RoundedRectangle|*
%AMROUNDEDRECTD26*
21,1,1.156,0.000,0,0,180.0*
21,1,0.620,0.536,0,0,180.0*
1,1,0.536,-0.310,0.000*
1,1,0.536,0.310,0.000*
1,1,0.536,0.310,0.000*
1,1,0.536,-0.310,0.000*
%
%ADD26ROUNDEDRECTD26*%
%ADD28R,0.500X0.800*%
%ADD33R,0.900X0.800*%
%TA.AperFunction,Conductor*%
%ADD37C,1.200*%
%ADD38C,0.157*%
%ADD39C,0.180*%
%ADD41C,1.000*%
%ADD42C,0.110*%
%ADD43C,0.157*%
%TA.AperFunction,ComponentPad*%
G04:AMPARAMS|DCode=46|XSize=1.1mm|YSize=1.7mm|CornerRadius=0.55mm|HoleSize=0mm|Usage=FLASHONLY|Rotation=0.000|XOffset=0mm|YOffset=0mm|HoleType=Round|Shape=RoundedRectangle|*
%AMROUNDEDRECTD46*
21,1,1.100,0.600,0,0,0.0*
21,1,0.000,1.700,0,0,0.0*
1,1,1.100,0.000,-0.300*
1,1,1.100,0.000,-0.300*
1,1,1.100,0.000,0.300*
1,1,1.100,0.000,0.300*
%
%ADD46ROUNDEDRECTD46*%
G04:AMPARAMS|DCode=47|XSize=1.7mm|YSize=1.7mm|CornerRadius=0.85mm|HoleSize=0mm|Usage=FLASHONLY|Rotation=0.000|XOffset=0mm|YOffset=0mm|HoleType=Round|Shape=RoundedRectangle|*
%AMROUNDEDRECTD47*
21,1,1.700,0.000,0,0,0.0*
21,1,0.000,1.700,0,0,0.0*
1,1,1.700,0.000,0.000*
1,1,1.700,0.000,0.000*
1,1,1.700,0.000,0.000*
1,1,1.700,0.000,0.000*
%
%ADD47ROUNDEDRECTD47*%
%ADD48R,1.700X1.700*%
%ADD49R,1.700X1.700*%
G04:AMPARAMS|DCode=50|XSize=1.7mm|YSize=1.7mm|CornerRadius=0.85mm|HoleSize=0mm|Usage=FLASHONLY|Rotation=90.000|XOffset=0mm|YOffset=0mm|HoleType=Round|Shape=RoundedRectangle|*
%AMROUNDEDRECTD50*
21,1,1.700,0.000,0,0,90.0*
21,1,0.000,1.700,0,0,90.0*
1,1,1.700,0.000,0.000*
1,1,1.700,0.000,0.000*
1,1,1.700,0.000,0.000*
1,1,1.700,0.000,0.000*
%
%ADD50ROUNDEDRECTD50*%
%ADD51C,6.400*%
%ADD52C,1.000*%
%TA.AperFunction,ViaPad*%
%ADD53C,0.600*%
%TA.AperFunction,Conductor*%
%ADD54C,0.213*%
%ADD55C,0.213*%
%TA.AperFunction,SMDPad,CuDef*%
%ADD56R,0.532X1.057*%
G04:AMPARAMS|DCode=57|XSize=1.057mm|YSize=0.532mm|CornerRadius=0.093mm|HoleSize=0mm|Usage=FLASHONLY|Rotation=90.000|XOffset=0mm|YOffset=0mm|HoleType=Round|Shape=RoundedRectangle|*
%AMROUNDEDRECTD57*
21,1,1.057,0.346,0,0,90.0*
21,1,0.871,0.532,0,0,90.0*
1,1,0.186,0.173,0.435*
1,1,0.186,0.173,-0.435*
1,1,0.186,-0.173,-0.435*
1,1,0.186,-0.173,0.435*
%
%ADD57ROUNDEDRECTD57*%
G36*
X38718Y43469D02*
X38690Y43454D01*
X38250Y43135D01*
X37865Y42750D01*
X37546Y42310D01*
X37299Y41826D01*
X37131Y41309D01*
X37046Y40772D01*
Y40627D01*
X40500D01*
Y40500D01*
X40627D01*
Y37046D01*
X40772D01*
X41309Y37131D01*
X41826Y37299D01*
X42310Y37546D01*
X42750Y37865D01*
X43135Y38250D01*
X43454Y38690D01*
X43469Y38718D01*
X43592Y38689D01*
Y21000D01*
X43487Y20930D01*
X43411Y20961D01*
X43191D01*
X42987Y20877D01*
X42831Y20721D01*
X42747Y20517D01*
Y20474D01*
X42746Y20470D01*
X42741Y20439D01*
X42736Y20418D01*
X42728Y20394D01*
X42717Y20367D01*
X42701Y20338D01*
X42681Y20305D01*
X42659Y20273D01*
X42596Y20198D01*
X42390Y19992D01*
X40394D01*
X40369Y20086D01*
X40223Y20338D01*
X40018Y20543D01*
X39766Y20689D01*
X39485Y20764D01*
X39195D01*
X38914Y20689D01*
X38846Y20650D01*
X38053Y21443D01*
X37939Y21519D01*
X37805Y21546D01*
X37805Y21546D01*
X35322D01*
X35322Y21546D01*
X35188Y21519D01*
X35074Y21443D01*
X35074Y21443D01*
X34216Y20585D01*
X34099Y20633D01*
Y24016D01*
X34073Y24146D01*
X33999Y24256D01*
X33044Y25212D01*
X32934Y25285D01*
X32804Y25311D01*
X32539D01*
Y25408D01*
X32512Y25543D01*
X32436Y25658D01*
X32321Y25735D01*
X32185Y25762D01*
X31840D01*
X31704Y25735D01*
X31589Y25658D01*
X31513Y25543D01*
X31486Y25408D01*
Y24537D01*
X31513Y24401D01*
X31589Y24287D01*
X31704Y24210D01*
X31840Y24183D01*
X32185D01*
X32321Y24210D01*
X32436Y24287D01*
X32512Y24401D01*
X32539Y24537D01*
Y24626D01*
X32666Y24630D01*
X33226Y24071D01*
X33177Y23954D01*
X32442D01*
Y22432D01*
X32259D01*
Y21124D01*
Y19904D01*
X32258D01*
X32216Y19795D01*
X31809D01*
X31767Y19904D01*
X31767D01*
Y21212D01*
X30758D01*
Y21169D01*
X30641Y21121D01*
X30459Y21303D01*
Y25864D01*
X30433Y25994D01*
X30359Y26104D01*
X21816Y34647D01*
X21706Y34721D01*
X21576Y34746D01*
X12810D01*
X12764Y34750D01*
X12720Y34756D01*
X12679Y34763D01*
X12643Y34772D01*
X12610Y34783D01*
X12582Y34795D01*
X12557Y34808D01*
X12535Y34822D01*
X12506Y34844D01*
X12502Y34846D01*
X12471Y34877D01*
X12267Y34961D01*
X12047D01*
X11843Y34877D01*
X11687Y34721D01*
X11603Y34518D01*
Y34297D01*
X11687Y34094D01*
X11843Y33938D01*
X12047Y33853D01*
X12267D01*
X12471Y33938D01*
X12502Y33969D01*
X12506Y33971D01*
X12535Y33993D01*
X12557Y34007D01*
X12582Y34020D01*
X12610Y34032D01*
X12643Y34042D01*
X12679Y34052D01*
X12716Y34059D01*
X12814Y34068D01*
X21436D01*
X29781Y25724D01*
Y24847D01*
X29663Y24798D01*
X29250Y25212D01*
X29140Y25285D01*
X29010Y25311D01*
X28804D01*
Y25408D01*
X28777Y25543D01*
X28700Y25658D01*
X28585Y25735D01*
X28450Y25762D01*
X28104D01*
X27968Y25735D01*
X27854Y25658D01*
X27777Y25543D01*
X27750Y25408D01*
Y24537D01*
X27777Y24401D01*
X27854Y24287D01*
X27968Y24210D01*
X28104Y24183D01*
X28450D01*
X28585Y24210D01*
X28700Y24287D01*
X28777Y24401D01*
X28801Y24523D01*
X28842Y24548D01*
X28931Y24572D01*
X29422Y24081D01*
X29409Y23954D01*
X28707D01*
Y22432D01*
X28523D01*
Y21124D01*
Y19904D01*
X28900D01*
X28948Y19787D01*
X28445Y19284D01*
X28372Y19174D01*
X28346Y19044D01*
Y15186D01*
X28372Y15056D01*
X28445Y14946D01*
X29357Y14034D01*
X29387Y13999D01*
X29415Y13964D01*
X29438Y13929D01*
X29457Y13897D01*
X29472Y13867D01*
X29484Y13838D01*
X29493Y13811D01*
X29498Y13786D01*
X29503Y13750D01*
X29505Y13746D01*
Y13702D01*
X29589Y13498D01*
X29745Y13342D01*
X29948Y13258D01*
X29993D01*
X29997Y13257D01*
X30033Y13252D01*
X30058Y13246D01*
X30085Y13237D01*
X30114Y13226D01*
X30144Y13210D01*
X30176Y13191D01*
X30207Y13170D01*
X30283Y13108D01*
X31591Y11800D01*
X31701Y11727D01*
X31831Y11701D01*
X35748D01*
X35771Y11614D01*
X35917Y11362D01*
X36122Y11157D01*
X36374Y11011D01*
X36655Y10936D01*
X36945D01*
X37226Y11011D01*
X37272Y11038D01*
X38250Y10060D01*
X38360Y9987D01*
X38400Y9979D01*
X38387Y9852D01*
X37849D01*
X37829Y9926D01*
X37683Y10178D01*
X37478Y10383D01*
X37226Y10529D01*
X36945Y10604D01*
X36655D01*
X36374Y10529D01*
X36122Y10383D01*
X35917Y10178D01*
X35771Y9926D01*
X35696Y9645D01*
Y9355D01*
X35771Y9074D01*
X35917Y8822D01*
X36122Y8617D01*
X36374Y8471D01*
X36655Y8396D01*
X36945D01*
X37226Y8471D01*
X37478Y8617D01*
X37683Y8822D01*
X37829Y9074D01*
X37849Y9150D01*
X40100D01*
X40175Y9147D01*
X40218Y9142D01*
X40260Y9135D01*
X40297Y9126D01*
X40329Y9116D01*
X40356Y9106D01*
X40379Y9095D01*
X40397Y9083D01*
X40422Y9064D01*
X40425Y9063D01*
X40456Y9033D01*
X40659Y8948D01*
X40880D01*
X41083Y9033D01*
X41239Y9188D01*
X41324Y9392D01*
Y9612D01*
X41268Y9747D01*
X41328Y9893D01*
X41347Y9901D01*
X41385Y9907D01*
X41400Y9899D01*
X41422Y9885D01*
X41451Y9863D01*
X41455Y9862D01*
X41486Y9830D01*
X41690Y9746D01*
X41910D01*
X42114Y9830D01*
X42270Y9986D01*
X42354Y10190D01*
Y10410D01*
X42270Y10614D01*
X42114Y10770D01*
X41910Y10854D01*
X41690D01*
X41486Y10770D01*
X41455Y10738D01*
X41451Y10737D01*
X41422Y10715D01*
X41400Y10701D01*
X41375Y10688D01*
X41347Y10676D01*
X41314Y10665D01*
X41278Y10656D01*
X41241Y10649D01*
X41143Y10639D01*
X38630D01*
X37765Y11504D01*
X37829Y11614D01*
X37904Y11895D01*
Y12185D01*
X37829Y12466D01*
X37683Y12718D01*
X37478Y12923D01*
X37226Y13069D01*
X36945Y13144D01*
X36655D01*
X36374Y13069D01*
X36122Y12923D01*
X35917Y12718D01*
X35771Y12466D01*
X35748Y12379D01*
X31971D01*
X30760Y13590D01*
X30730Y13624D01*
X30703Y13660D01*
X30679Y13694D01*
X30660Y13727D01*
X30645Y13757D01*
X30633Y13786D01*
X30625Y13813D01*
X30619Y13838D01*
X30614Y13874D01*
X30613Y13878D01*
Y13922D01*
X30528Y14126D01*
X30373Y14282D01*
X30169Y14366D01*
X30125D01*
X30121Y14367D01*
X30085Y14372D01*
X30059Y14378D01*
X30033Y14387D01*
X30004Y14398D01*
X29973Y14413D01*
X29941Y14433D01*
X29910Y14454D01*
X29834Y14516D01*
X29394Y14956D01*
X29412Y15030D01*
X29449Y15081D01*
X29467Y15080D01*
X29510Y15074D01*
X29548Y15067D01*
X29581Y15058D01*
X29610Y15049D01*
X29634Y15038D01*
X29655Y15028D01*
X29671Y15017D01*
X29696Y14997D01*
X29705Y14992D01*
X29745Y14952D01*
X29948Y14868D01*
X30169D01*
X30373Y14952D01*
X30528Y15108D01*
X30613Y15312D01*
Y15465D01*
X35944D01*
X35996Y15338D01*
X35917Y15258D01*
X35771Y15006D01*
X35696Y14725D01*
Y14435D01*
X35771Y14154D01*
X35917Y13902D01*
X36122Y13697D01*
X36374Y13551D01*
X36655Y13476D01*
X36945D01*
X37226Y13551D01*
X37304Y13596D01*
X37816Y13085D01*
X37926Y13011D01*
X38055Y12986D01*
X38545D01*
X38597Y12859D01*
X38457Y12718D01*
X38311Y12466D01*
X38236Y12185D01*
Y11895D01*
X38311Y11614D01*
X38457Y11362D01*
X38662Y11157D01*
X38914Y11011D01*
X39195Y10936D01*
X39485D01*
X39766Y11011D01*
X40018Y11157D01*
X40223Y11362D01*
X40369Y11614D01*
X40416Y11790D01*
X41114D01*
X41160Y11787D01*
X41205Y11781D01*
X41246Y11773D01*
X41282Y11764D01*
X41314Y11753D01*
X41343Y11741D01*
X41368Y11728D01*
X41390Y11714D01*
X41419Y11692D01*
X41423Y11691D01*
X41454Y11659D01*
X41657Y11575D01*
X41878D01*
X42081Y11659D01*
X42237Y11815D01*
X42322Y12019D01*
Y12239D01*
X42237Y12443D01*
X42081Y12599D01*
X41878Y12683D01*
X41657D01*
X41454Y12599D01*
X41423Y12567D01*
X41419Y12566D01*
X41390Y12544D01*
X41368Y12530D01*
X41343Y12517D01*
X41314Y12505D01*
X41282Y12494D01*
X41246Y12485D01*
X41209Y12478D01*
X41111Y12468D01*
X40368D01*
X40223Y12718D01*
X40083Y12859D01*
X40135Y12986D01*
X41774D01*
X41847Y12984D01*
X41895Y12980D01*
X41989Y12967D01*
X42020Y12960D01*
X42048Y12952D01*
X42069Y12945D01*
X42074Y12943D01*
X42086Y12930D01*
X42290Y12846D01*
X42510D01*
X42714Y12930D01*
X42870Y13086D01*
X42954Y13290D01*
Y13510D01*
X42870Y13714D01*
X42714Y13870D01*
X42510Y13954D01*
X42290D01*
X42086Y13870D01*
X41988Y13771D01*
X41973Y13760D01*
X41951Y13736D01*
X41938Y13724D01*
X41922Y13713D01*
X41902Y13702D01*
X41879Y13692D01*
X41850Y13682D01*
X41816Y13674D01*
X41776Y13668D01*
X41731Y13664D01*
X40165D01*
X40112Y13791D01*
X40223Y13902D01*
X40369Y14154D01*
X40401Y14273D01*
X41647D01*
X41749Y14264D01*
X41789Y14258D01*
X41828Y14250D01*
X41861Y14240D01*
X41889Y14230D01*
X41913Y14220D01*
X41932Y14209D01*
X41948Y14198D01*
X41972Y14174D01*
X42175Y14090D01*
X42396D01*
X42600Y14174D01*
X42755Y14330D01*
X42840Y14534D01*
Y14754D01*
X42755Y14958D01*
X42600Y15113D01*
X42491Y15158D01*
X42516Y15285D01*
X42706D01*
X42910Y15370D01*
X43065Y15525D01*
X43150Y15729D01*
Y15950D01*
X43065Y16153D01*
X42910Y16309D01*
X42706Y16393D01*
X42486D01*
X42282Y16309D01*
X42248Y16275D01*
X42242Y16272D01*
X42215Y16251D01*
X42196Y16239D01*
X42173Y16227D01*
X42146Y16216D01*
X42114Y16206D01*
X42078Y16196D01*
X42041Y16190D01*
X41944Y16180D01*
X40141D01*
X40089Y16307D01*
X40223Y16442D01*
X40369Y16694D01*
X40385Y16755D01*
X42257D01*
X42357Y16747D01*
X42398Y16741D01*
X42437Y16733D01*
X42469Y16724D01*
X42496Y16715D01*
X42517Y16705D01*
X42534Y16696D01*
X42551Y16684D01*
X42576Y16659D01*
X42779Y16575D01*
X43000D01*
X43203Y16659D01*
X43359Y16815D01*
X43444Y17018D01*
Y17239D01*
X43359Y17443D01*
X43203Y17598D01*
X43000Y17683D01*
X42779D01*
X42576Y17598D01*
X42536Y17559D01*
X42528Y17554D01*
X42500Y17532D01*
X42479Y17518D01*
X42456Y17506D01*
X42429Y17494D01*
X42398Y17483D01*
X42362Y17473D01*
X42326Y17466D01*
X42231Y17457D01*
X40393D01*
X40369Y17546D01*
X40223Y17798D01*
X40018Y18003D01*
X39947Y18045D01*
X39981Y18172D01*
X42484D01*
X42584Y18164D01*
X42626Y18158D01*
X42665Y18151D01*
X42698Y18142D01*
X42725Y18133D01*
X42746Y18124D01*
X42761Y18116D01*
X42771Y18109D01*
X42795Y18086D01*
X42999Y18001D01*
X43219D01*
X43423Y18086D01*
X43465Y18128D01*
X43592Y18076D01*
Y5311D01*
X43469Y5282D01*
X43454Y5310D01*
X43135Y5750D01*
X42750Y6135D01*
X42310Y6454D01*
X41826Y6701D01*
X41309Y6869D01*
X40772Y6954D01*
X40627D01*
Y3500D01*
X40500D01*
Y3373D01*
X37046D01*
Y3228D01*
X37103Y2868D01*
X37122Y2883D01*
X37229Y3020D01*
X37289Y3175D01*
X37304Y3348D01*
X38896Y731D01*
X38701Y827D01*
X38464Y913D01*
X38187Y989D01*
X38111Y1004D01*
X38250Y865D01*
X38690Y546D01*
X38718Y531D01*
X38689Y408D01*
X26683D01*
X26634Y525D01*
X26962Y853D01*
X27040Y808D01*
X27321Y733D01*
X27611D01*
X27892Y808D01*
X28144Y953D01*
X28349Y1159D01*
X28495Y1410D01*
X28570Y1691D01*
Y1982D01*
X28495Y2263D01*
X28349Y2514D01*
X28144Y2720D01*
X27892Y2865D01*
X27611Y2941D01*
X27321D01*
X27040Y2865D01*
X26788Y2720D01*
X26583Y2514D01*
X26437Y2263D01*
X26362Y1982D01*
Y1691D01*
X26437Y1410D01*
X26482Y1332D01*
X26116Y966D01*
X25783D01*
X25734Y1083D01*
X25809Y1159D01*
X25955Y1410D01*
X26030Y1691D01*
Y1982D01*
X25955Y2263D01*
X25809Y2514D01*
X25604Y2720D01*
X25352Y2865D01*
X25071Y2941D01*
X24781D01*
X24500Y2865D01*
X24422Y2820D01*
X23974Y3268D01*
X23864Y3341D01*
X23735Y3367D01*
X21331D01*
X21201Y3341D01*
X21091Y3268D01*
X19048Y1225D01*
X10675D01*
X9484Y2417D01*
Y5541D01*
X9458Y5671D01*
X9384Y5781D01*
X7240Y7925D01*
X7130Y7999D01*
X7000Y8024D01*
X3610D01*
X2108Y9527D01*
Y22239D01*
X2235Y22264D01*
X2281Y22152D01*
X2499Y21796D01*
X2507Y21787D01*
X2588Y21692D01*
X2609Y21659D01*
X2610Y21659D01*
X2610Y21659D01*
X2625Y21649D01*
X2670Y21597D01*
X2771Y21478D01*
X3088Y21207D01*
X3444Y20989D01*
X3830Y20829D01*
X4108Y20762D01*
X4127Y20627D01*
X3982Y20543D01*
X3777Y20338D01*
X3631Y20086D01*
X3556Y19805D01*
Y19515D01*
X3631Y19234D01*
X3777Y18982D01*
X3982Y18777D01*
X4234Y18631D01*
X4515Y18556D01*
X4805D01*
X5086Y18631D01*
X5338Y18777D01*
X5543Y18982D01*
X5689Y19234D01*
X5764Y19515D01*
Y19805D01*
X5689Y20086D01*
X5543Y20338D01*
X5338Y20543D01*
X5276Y20579D01*
X5310Y20706D01*
X9133D01*
X9258Y20706D01*
X9378Y20691D01*
X9457Y20681D01*
X9643Y20604D01*
X9800Y20484D01*
X9802Y20481D01*
X11403Y18880D01*
X11405Y18878D01*
X11527Y18719D01*
X11605Y18532D01*
X11624Y18385D01*
X11547Y18298D01*
X11504Y18282D01*
X11389Y18305D01*
X10770D01*
X10566Y18264D01*
X10393Y18149D01*
X10278Y17976D01*
X10238Y17773D01*
X10278Y17569D01*
X10393Y17397D01*
X10566Y17281D01*
X10770Y17241D01*
X11389D01*
X11504Y17263D01*
X11631Y17165D01*
Y16395D01*
X10248D01*
Y15351D01*
X11269D01*
X11395Y15348D01*
X11470Y15252D01*
X11524Y15182D01*
X11604Y14987D01*
X11609Y14951D01*
X11607Y14940D01*
X11540Y14840D01*
X11540Y14840D01*
X11539Y14839D01*
X11539Y14839D01*
X10939Y14239D01*
X10939Y14239D01*
X10939Y14239D01*
X10938Y14239D01*
X10929Y14224D01*
X10665Y14022D01*
X10341Y13887D01*
X10011Y13844D01*
X9993Y13848D01*
X9260D01*
X9248Y13845D01*
X8879Y13881D01*
X8512Y13993D01*
X8232Y14142D01*
X8229Y14154D01*
X8304Y14435D01*
Y14725D01*
X8229Y15006D01*
X8083Y15258D01*
X7878Y15463D01*
X7626Y15609D01*
X7345Y15684D01*
X7055D01*
X6774Y15609D01*
X6522Y15463D01*
X6317Y15258D01*
X6171Y15006D01*
X6096Y14725D01*
Y14435D01*
X6171Y14154D01*
X6317Y13902D01*
X6522Y13697D01*
X6774Y13551D01*
X7055Y13476D01*
X7345D01*
X7626Y13551D01*
X7716Y13603D01*
X7723Y13598D01*
X7752Y13578D01*
X7765Y13573D01*
X8040Y13404D01*
X8138Y13364D01*
Y13237D01*
X8031Y13192D01*
X7789Y13044D01*
X7767Y13035D01*
X7735Y13014D01*
X7728Y13010D01*
X7626Y13069D01*
X7345Y13144D01*
X7055D01*
X6774Y13069D01*
X6522Y12923D01*
X6317Y12718D01*
X6279Y12653D01*
X6153Y12671D01*
X6049Y13108D01*
X5811Y13682D01*
X5643Y13956D01*
X5634Y13980D01*
X5614Y14012D01*
X5610Y14018D01*
X5689Y14154D01*
X5764Y14435D01*
Y14725D01*
X5689Y15006D01*
X5543Y15258D01*
X5338Y15463D01*
X5086Y15609D01*
X4805Y15684D01*
X4515D01*
X4234Y15609D01*
X3982Y15463D01*
X3777Y15258D01*
X3631Y15006D01*
X3556Y14725D01*
Y14435D01*
X3631Y14154D01*
X3777Y13902D01*
X3982Y13697D01*
X4234Y13551D01*
X4515Y13476D01*
X4805D01*
X5038Y13538D01*
X5155Y13348D01*
X5253Y13111D01*
X5157Y13028D01*
X5086Y13069D01*
X4805Y13144D01*
X4515D01*
X4234Y13069D01*
X3982Y12923D01*
X3777Y12718D01*
X3631Y12466D01*
X3556Y12185D01*
Y11895D01*
X3631Y11614D01*
X3777Y11362D01*
X3982Y11157D01*
X4234Y11011D01*
X4515Y10936D01*
X4805D01*
X5086Y11011D01*
X5291Y11130D01*
X5604Y10817D01*
X5605Y10815D01*
X5605Y10815D01*
X5795Y10669D01*
X5874Y10637D01*
X5904Y10616D01*
X6096Y10537D01*
Y10361D01*
X5360D01*
X5338Y10383D01*
X5086Y10529D01*
X4805Y10604D01*
X4515D01*
X4234Y10529D01*
X3982Y10383D01*
X3777Y10178D01*
X3631Y9926D01*
X3556Y9645D01*
Y9355D01*
X3631Y9074D01*
X3777Y8822D01*
X3982Y8617D01*
X4234Y8471D01*
X4515Y8396D01*
X4805D01*
X5086Y8471D01*
X5338Y8617D01*
X5360Y8639D01*
X6096D01*
Y8396D01*
X8304D01*
Y10249D01*
X12984D01*
Y10246D01*
X13493Y10286D01*
X13988Y10405D01*
X14460Y10600D01*
X14895Y10867D01*
X15282Y11198D01*
X15280Y11200D01*
X15280Y11200D01*
X15889Y11809D01*
X15893Y11805D01*
X16205Y12185D01*
X16436Y12619D01*
X16579Y13090D01*
X16627Y13579D01*
X16622D01*
Y18753D01*
X16625D01*
X16585Y19262D01*
X16466Y19758D01*
X16271Y20229D01*
X16005Y20664D01*
X15673Y21052D01*
X15671Y21050D01*
X15671Y21050D01*
X13046Y23674D01*
X13036Y23681D01*
X12866Y23903D01*
X12754Y24173D01*
X12718Y24450D01*
X12720Y24462D01*
Y25736D01*
X12818Y25816D01*
X12920Y25796D01*
X13540D01*
X13744Y25837D01*
X13916Y25952D01*
X14032Y26125D01*
X14072Y26328D01*
X14032Y26532D01*
X13916Y26705D01*
X13744Y26820D01*
X13540Y26860D01*
X12920D01*
X12818Y26840D01*
X12720Y26921D01*
Y27706D01*
X14062D01*
Y28750D01*
X12680D01*
X12568Y29219D01*
X12378Y29678D01*
X12317Y29778D01*
X12379Y29889D01*
X12439D01*
X12643Y29973D01*
X12674Y30004D01*
X12678Y30006D01*
X12707Y30028D01*
X12729Y30042D01*
X12754Y30055D01*
X12782Y30067D01*
X12815Y30077D01*
X12851Y30087D01*
X12888Y30094D01*
X12986Y30103D01*
X21988D01*
X24833Y27258D01*
X24787Y27131D01*
X24787D01*
Y25877D01*
X24732Y25790D01*
X24685Y25762D01*
X24396D01*
X24350Y25790D01*
X24295Y25877D01*
Y27131D01*
X23287D01*
Y25823D01*
X23394D01*
Y25173D01*
X23343Y25122D01*
X23267Y25008D01*
X23240Y24874D01*
X23240Y24874D01*
Y23905D01*
X23168Y23857D01*
X23091Y23742D01*
X23064Y23607D01*
Y22736D01*
X23091Y22600D01*
X23168Y22485D01*
X23255Y22427D01*
X23267Y22370D01*
X23287Y22340D01*
Y21786D01*
X23286Y21784D01*
X23283Y21778D01*
X23278Y21769D01*
X23271Y21758D01*
X23262Y21746D01*
X23258Y21742D01*
X22881Y21365D01*
X22805Y21251D01*
X22779Y21117D01*
X22779Y21117D01*
Y19100D01*
X22779Y19100D01*
X22805Y18965D01*
X22881Y18851D01*
X24258Y17475D01*
X24309Y17419D01*
X24336Y17385D01*
X24361Y17350D01*
X24381Y17318D01*
X24396Y17288D01*
X24408Y17262D01*
X24416Y17238D01*
X24421Y17217D01*
X24425Y17185D01*
X24427Y17182D01*
Y17138D01*
X24511Y16935D01*
X24667Y16779D01*
X24870Y16694D01*
X25091D01*
X25294Y16779D01*
X25450Y16935D01*
X25535Y17138D01*
Y17359D01*
X25450Y17562D01*
X25294Y17718D01*
X25091Y17802D01*
X25047D01*
X25044Y17804D01*
X25012Y17808D01*
X24991Y17813D01*
X24967Y17821D01*
X24941Y17833D01*
X24911Y17848D01*
X24879Y17868D01*
X24847Y17891D01*
X24771Y17954D01*
X23480Y19245D01*
Y20972D01*
X23633Y21124D01*
X24295D01*
Y22432D01*
X24116D01*
X24115Y22440D01*
X24049Y22538D01*
X24091Y22600D01*
X24118Y22736D01*
Y23607D01*
X24091Y23742D01*
X24014Y23857D01*
X23942Y23905D01*
Y24321D01*
X24069Y24360D01*
X24118Y24287D01*
X24233Y24210D01*
X24368Y24183D01*
X24714D01*
X24849Y24210D01*
X24964Y24287D01*
X25041Y24401D01*
X25068Y24537D01*
Y24638D01*
X25176Y24659D01*
X25286Y24732D01*
X25531Y24978D01*
X25604Y25088D01*
X25630Y25217D01*
Y25823D01*
X25795D01*
Y27131D01*
X25630D01*
Y27280D01*
X25604Y27410D01*
X25531Y27520D01*
X22368Y30682D01*
X22258Y30756D01*
X22129Y30782D01*
X12982D01*
X12936Y30785D01*
X12891Y30791D01*
X12851Y30798D01*
X12815Y30808D01*
X12782Y30818D01*
X12754Y30830D01*
X12729Y30843D01*
X12707Y30857D01*
X12678Y30879D01*
X12674Y30881D01*
X12643Y30912D01*
X12439Y30997D01*
X12372D01*
Y31093D01*
X12288Y31296D01*
X12132Y31452D01*
X11928Y31536D01*
X11884D01*
X11880Y31538D01*
X11844Y31543D01*
X11819Y31548D01*
X11792Y31557D01*
X11763Y31569D01*
X11733Y31584D01*
X11700Y31603D01*
X11669Y31624D01*
X11593Y31687D01*
X9865Y33415D01*
X9755Y33489D01*
X9625Y33515D01*
X5198D01*
X5179Y33538D01*
X5210Y33703D01*
X5338Y33777D01*
X5543Y33982D01*
X5689Y34234D01*
X5764Y34515D01*
Y34805D01*
X5689Y35086D01*
X5543Y35338D01*
X5338Y35543D01*
X5086Y35689D01*
X4805Y35764D01*
X4515D01*
X4234Y35689D01*
X3982Y35543D01*
X3777Y35338D01*
X3631Y35086D01*
X3556Y34805D01*
Y34515D01*
X3631Y34234D01*
X3777Y33982D01*
X3982Y33777D01*
X4110Y33703D01*
X4141Y33538D01*
X4122Y33515D01*
X3330D01*
X3200Y33489D01*
X3090Y33415D01*
X932Y31257D01*
X859Y31147D01*
X833Y31017D01*
Y9617D01*
X859Y9487D01*
X932Y9377D01*
X3228Y7081D01*
X3228Y7041D01*
X3217Y7000D01*
X3188Y6948D01*
X2691Y6869D01*
X2174Y6701D01*
X1690Y6454D01*
X1250Y6135D01*
X865Y5750D01*
X546Y5310D01*
X531Y5282D01*
X408Y5311D01*
Y38689D01*
X531Y38718D01*
X546Y38690D01*
X865Y38250D01*
X1250Y37865D01*
X1690Y37546D01*
X2174Y37299D01*
X2691Y37131D01*
X3228Y37046D01*
X3373D01*
Y40500D01*
X3500D01*
Y40627D01*
X6954D01*
Y40772D01*
X6869Y41309D01*
X6701Y41826D01*
X6454Y42310D01*
X6135Y42750D01*
X5750Y43135D01*
X5310Y43454D01*
X5282Y43469D01*
X5311Y43592D01*
X38689D01*
X38718Y43469D01*
D02*
G37*
G36*
X12387Y34609D02*
X12428Y34583D01*
X12472Y34560D01*
X12519Y34541D01*
X12569Y34524D01*
X12623Y34510D01*
X12679Y34500D01*
X12738Y34492D01*
X12801Y34487D01*
X12866Y34486D01*
Y34329D01*
X12801Y34327D01*
X12679Y34315D01*
X12623Y34305D01*
X12569Y34291D01*
X12519Y34274D01*
X12472Y34254D01*
X12428Y34232D01*
X12387Y34206D01*
X12349Y34177D01*
Y34638D01*
X12387Y34609D01*
D02*
G37*
G36*
X11116Y31205D02*
X11146Y31170D01*
X11139Y31054D01*
X11123Y31019D01*
X11112Y31006D01*
X11098Y30998D01*
X10994Y31062D01*
X10535Y31252D01*
X10052Y31368D01*
X9557Y31407D01*
Y31404D01*
X8208D01*
X8135Y31531D01*
X8229Y31694D01*
X8304Y31975D01*
Y31993D01*
X7200D01*
Y32247D01*
X8304D01*
Y32265D01*
X8229Y32546D01*
X8134Y32709D01*
X8208Y32836D01*
X9484D01*
X11116Y31205D01*
D02*
G37*
G36*
X11419Y31494D02*
X11514Y31417D01*
X11561Y31385D01*
X11609Y31357D01*
X11656Y31333D01*
X11703Y31313D01*
X11750Y31298D01*
X11798Y31288D01*
X11845Y31281D01*
X11519Y30955D01*
X11513Y31003D01*
X11502Y31050D01*
X11487Y31097D01*
X11468Y31144D01*
X11444Y31192D01*
X11416Y31239D01*
X11384Y31286D01*
X11347Y31334D01*
X11306Y31381D01*
X11261Y31429D01*
X11372Y31540D01*
X11419Y31494D01*
D02*
G37*
G36*
X12559Y30644D02*
X12600Y30618D01*
X12644Y30595D01*
X12691Y30576D01*
X12741Y30559D01*
X12795Y30545D01*
X12851Y30535D01*
X12910Y30527D01*
X12973Y30523D01*
X13038Y30521D01*
Y30364D01*
X12973Y30362D01*
X12851Y30350D01*
X12795Y30340D01*
X12741Y30326D01*
X12691Y30309D01*
X12644Y30290D01*
X12600Y30267D01*
X12559Y30241D01*
X12521Y30212D01*
Y30673D01*
X12559Y30644D01*
D02*
G37*
G36*
X4232Y28852D02*
X4216Y28864D01*
X4198Y28872D01*
X4179Y28875D01*
X4157Y28873D01*
X4134Y28866D01*
X4109Y28855D01*
X4082Y28838D01*
X4053Y28817D01*
X4023Y28791D01*
X3990Y28760D01*
X3840Y28910D01*
X3871Y28943D01*
X3897Y28973D01*
X3918Y29002D01*
X3935Y29029D01*
X3946Y29054D01*
X3953Y29077D01*
X3955Y29099D01*
X3952Y29118D01*
X3944Y29136D01*
X3932Y29152D01*
X4232Y28852D01*
D02*
G37*
G36*
X9965Y30293D02*
X10358Y30174D01*
X10720Y29981D01*
X11037Y29721D01*
X11297Y29404D01*
X11490Y29042D01*
X11552Y28839D01*
X11466Y28745D01*
X11389Y28760D01*
X10770D01*
X10566Y28720D01*
X10393Y28605D01*
X10278Y28432D01*
X10238Y28228D01*
X10278Y28025D01*
X10376Y27878D01*
X10353Y27794D01*
X10321Y27749D01*
X10241D01*
X10217Y27751D01*
X10185Y27756D01*
Y27940D01*
X9938D01*
X9928Y27942D01*
X9919Y27940D01*
X9906D01*
X9901Y27940D01*
X9899Y27940D01*
X8777D01*
Y27262D01*
X8756Y27232D01*
X8659Y27118D01*
X8428Y26886D01*
X8304Y26942D01*
Y27185D01*
X8229Y27466D01*
X8083Y27718D01*
X7878Y27923D01*
X7626Y28069D01*
X7345Y28144D01*
X7055D01*
X6774Y28069D01*
X6522Y27923D01*
X6469Y27870D01*
X6357Y27938D01*
X6379Y28012D01*
X6580Y28388D01*
X6733Y28575D01*
X6774Y28551D01*
X7055Y28476D01*
X7345D01*
X7626Y28551D01*
X7878Y28697D01*
X8083Y28902D01*
X8229Y29154D01*
X8304Y29435D01*
Y29725D01*
X8229Y30006D01*
X8116Y30202D01*
X8183Y30329D01*
X9557D01*
X9572Y30332D01*
X9965Y30293D01*
D02*
G37*
G36*
X6284Y30202D02*
X6171Y30006D01*
X6096Y29725D01*
Y29435D01*
X6171Y29154D01*
X6208Y29090D01*
X6037Y28889D01*
X5798Y28499D01*
X5624Y28078D01*
X5569Y27849D01*
X5447Y27815D01*
X5338Y27923D01*
X5086Y28069D01*
X4805Y28144D01*
X4515D01*
X4270Y28078D01*
X4145Y28083D01*
X3931Y28247D01*
Y28374D01*
X4145Y28537D01*
X4270Y28542D01*
X4515Y28476D01*
X4805D01*
X5086Y28551D01*
X5338Y28697D01*
X5543Y28902D01*
X5689Y29154D01*
X5764Y29435D01*
Y29725D01*
X5689Y30006D01*
X5576Y30202D01*
X5643Y30329D01*
X6217D01*
X6284Y30202D01*
D02*
G37*
G36*
X11548Y28419D02*
X11557Y28401D01*
X11572Y28386D01*
X11593Y28372D01*
X11620Y28361D01*
X11653Y28351D01*
X11692Y28344D01*
X11737Y28339D01*
X11788Y28336D01*
X11845Y28335D01*
Y28122D01*
X11788Y28121D01*
X11692Y28112D01*
X11653Y28105D01*
X11620Y28096D01*
X11593Y28084D01*
X11572Y28071D01*
X11557Y28055D01*
X11548Y28038D01*
X11545Y28018D01*
Y28439D01*
X11548Y28419D01*
D02*
G37*
G36*
X12658Y28015D02*
X12656Y28036D01*
X12650Y28054D01*
X12639Y28070D01*
X12624Y28083D01*
X12604Y28095D01*
X12581Y28105D01*
X12553Y28112D01*
X12520Y28118D01*
X12483Y28121D01*
X12442Y28122D01*
Y28335D01*
X12483Y28336D01*
X12520Y28339D01*
X12553Y28344D01*
X12581Y28352D01*
X12604Y28361D01*
X12624Y28373D01*
X12639Y28387D01*
X12650Y28403D01*
X12656Y28421D01*
X12658Y28441D01*
Y28015D01*
D02*
G37*
G36*
X4023Y27829D02*
X4053Y27803D01*
X4082Y27782D01*
X4109Y27765D01*
X4134Y27754D01*
X4157Y27747D01*
X4179Y27745D01*
X4198Y27748D01*
X4216Y27756D01*
X4232Y27768D01*
X3932Y27468D01*
X3944Y27484D01*
X3952Y27502D01*
X3955Y27521D01*
X3953Y27543D01*
X3946Y27566D01*
X3935Y27591D01*
X3918Y27618D01*
X3897Y27647D01*
X3871Y27677D01*
X3840Y27710D01*
X3990Y27860D01*
X4023Y27829D01*
D02*
G37*
G36*
X9932Y27645D02*
X9944Y27612D01*
X9964Y27582D01*
X9992Y27557D01*
X10028Y27535D01*
X10072Y27517D01*
X10124Y27503D01*
X10184Y27494D01*
X10252Y27488D01*
X10293Y27487D01*
X10626Y27505D01*
X10636Y27510D01*
Y27047D01*
X10622Y27054D01*
X10602Y27061D01*
X10574Y27067D01*
X10540Y27072D01*
X10450Y27079D01*
X10285Y27085D01*
X10252Y27084D01*
X10184Y27078D01*
X10124Y27068D01*
X10072Y27054D01*
X10028Y27036D01*
X9992Y27015D01*
X9964Y26989D01*
X9944Y26960D01*
X9932Y26926D01*
X9928Y26889D01*
Y27683D01*
X9932Y27645D01*
D02*
G37*
G36*
X9650Y26892D02*
X9617Y26912D01*
X9579Y26921D01*
X9535Y26920D01*
X9487Y26907D01*
X9433Y26884D01*
X9373Y26850D01*
X9309Y26805D01*
X9239Y26750D01*
X9085Y26606D01*
X8752Y26839D01*
X8833Y26923D01*
X8961Y27074D01*
X9008Y27140D01*
X9042Y27199D01*
X9065Y27253D01*
X9076Y27300D01*
X9075Y27341D01*
X9062Y27376D01*
X9038Y27404D01*
X9650Y26892D01*
D02*
G37*
G36*
X25370Y27001D02*
X25373Y26975D01*
X25376Y26951D01*
X25382Y26931D01*
X25389Y26914D01*
X25398Y26899D01*
X25408Y26888D01*
X25420Y26881D01*
X25433Y26876D01*
X25448Y26874D01*
X25134D01*
X25149Y26876D01*
X25162Y26881D01*
X25174Y26888D01*
X25184Y26899D01*
X25193Y26914D01*
X25200Y26931D01*
X25205Y26951D01*
X25209Y26975D01*
X25212Y27001D01*
X25212Y27031D01*
X25369D01*
X25370Y27001D01*
D02*
G37*
G36*
X10383Y26728D02*
X10387Y26695D01*
X10278Y26532D01*
X10238Y26328D01*
X10278Y26125D01*
X10393Y25952D01*
X10566Y25837D01*
X10770Y25796D01*
X11389D01*
X11518Y25822D01*
X11645Y25730D01*
Y24462D01*
X11642D01*
X11684Y24034D01*
X11809Y23623D01*
X12011Y23244D01*
X12284Y22912D01*
X12286Y22914D01*
X14911Y20289D01*
X14925Y20280D01*
X15185Y19963D01*
X15386Y19587D01*
X15510Y19178D01*
X15551Y18770D01*
X15547Y18753D01*
Y17556D01*
X15475Y17459D01*
X15241D01*
X15236Y17490D01*
X15234Y17515D01*
Y18976D01*
X15234Y18976D01*
X15199Y19153D01*
X15098Y19303D01*
X15098Y19303D01*
X9574Y24827D01*
X9424Y24928D01*
X9247Y24963D01*
X9247Y24963D01*
X9187D01*
X9159Y24968D01*
X9139Y24975D01*
X9128Y24980D01*
X9124Y24984D01*
X9120Y24989D01*
X9114Y24999D01*
X9107Y25020D01*
X9102Y25047D01*
Y26252D01*
X9341Y26491D01*
X9409Y26553D01*
X9464Y26598D01*
X9512Y26631D01*
X9513Y26632D01*
X9899D01*
X9901Y26631D01*
X9906Y26632D01*
X9919D01*
X9928Y26630D01*
X9938Y26632D01*
X10185D01*
Y26816D01*
X10217Y26821D01*
X10241Y26823D01*
X10342D01*
X10383Y26728D01*
D02*
G37*
G36*
X1970Y26917D02*
X1944Y26876D01*
X1922Y26832D01*
X1902Y26785D01*
X1885Y26734D01*
X1871Y26681D01*
X1861Y26625D01*
X1853Y26565D01*
X1849Y26503D01*
X1847Y26437D01*
X1690D01*
X1689Y26503D01*
X1676Y26625D01*
X1666Y26681D01*
X1652Y26734D01*
X1635Y26785D01*
X1616Y26832D01*
X1593Y26876D01*
X1567Y26917D01*
X1538Y26955D01*
X1999D01*
X1970Y26917D01*
D02*
G37*
G36*
X6694Y26364D02*
X6679Y26378D01*
X6663Y26387D01*
X6644Y26391D01*
X6624Y26390D01*
X6601Y26384D01*
X6577Y26373D01*
X6550Y26357D01*
X6522Y26336D01*
X6491Y26310D01*
X6458Y26279D01*
X6325Y26447D01*
X6357Y26480D01*
X6383Y26511D01*
X6405Y26540D01*
X6422Y26567D01*
X6434Y26593D01*
X6442Y26617D01*
X6445Y26640D01*
X6444Y26661D01*
X6437Y26680D01*
X6426Y26697D01*
X6694Y26364D01*
D02*
G37*
G36*
X25433Y26082D02*
X25420Y26077D01*
X25408Y26069D01*
X25398Y26058D01*
X25389Y26043D01*
X25382Y26026D01*
X25376Y26005D01*
X25373Y25981D01*
X25370Y25954D01*
X25369Y25923D01*
X25212D01*
X25212Y25954D01*
X25209Y25981D01*
X25205Y26005D01*
X25200Y26026D01*
X25193Y26043D01*
X25184Y26058D01*
X25174Y26069D01*
X25162Y26077D01*
X25149Y26082D01*
X25134Y26083D01*
X25448D01*
X25433Y26082D01*
D02*
G37*
G36*
X23908Y26082D02*
X23892Y26076D01*
X23879Y26067D01*
X23867Y26054D01*
X23857Y26038D01*
X23849Y26018D01*
X23843Y25994D01*
X23838Y25966D01*
X23836Y25935D01*
X23835Y25900D01*
X23655D01*
X23654Y25935D01*
X23651Y25966D01*
X23647Y25994D01*
X23640Y26018D01*
X23632Y26038D01*
X23622Y26054D01*
X23611Y26067D01*
X23597Y26076D01*
X23582Y26082D01*
X23565Y26083D01*
X23925D01*
X23908Y26082D01*
D02*
G37*
G36*
X3726Y32709D02*
X3631Y32546D01*
X3556Y32265D01*
Y32247D01*
X4660D01*
Y31993D01*
X3556D01*
Y31975D01*
X3631Y31694D01*
X3728Y31527D01*
X3659Y31392D01*
X3439Y31371D01*
X3094Y31266D01*
X2777Y31096D01*
X2499Y30868D01*
X2270Y30590D01*
X2101Y30272D01*
X1996Y29928D01*
X1961Y29569D01*
X1962D01*
Y28790D01*
X1961D01*
X1996Y28526D01*
X2097Y28280D01*
X2259Y28069D01*
X2470Y27907D01*
X2716Y27806D01*
X2980Y27771D01*
Y27772D01*
X3106D01*
X3108Y27773D01*
X3295Y27748D01*
X3470Y27675D01*
X3620Y27561D01*
X3621Y27559D01*
X3662Y27519D01*
X3631Y27466D01*
X3556Y27185D01*
Y26895D01*
X3631Y26614D01*
X3741Y26424D01*
X3678Y26290D01*
X3565Y26279D01*
X3260Y26186D01*
X2979Y26036D01*
X2828Y25912D01*
X2733Y25834D01*
X2644Y25744D01*
X2622Y25722D01*
X2531Y25634D01*
X2531Y25634D01*
X2453Y25538D01*
X2305Y25358D01*
X2235Y25226D01*
X2108Y25258D01*
Y26494D01*
X2111Y26540D01*
X2117Y26584D01*
X2124Y26625D01*
X2134Y26661D01*
X2145Y26694D01*
X2156Y26722D01*
X2169Y26747D01*
X2183Y26769D01*
X2205Y26798D01*
X2207Y26802D01*
X2238Y26833D01*
X2323Y27037D01*
Y27257D01*
X2238Y27461D01*
X2082Y27617D01*
X1879Y27701D01*
X1658D01*
X1616Y27684D01*
X1511Y27754D01*
Y30877D01*
X3471Y32836D01*
X3652D01*
X3726Y32709D01*
D02*
G37*
G36*
X32276Y25114D02*
X32281Y25101D01*
X32289Y25089D01*
X32300Y25079D01*
X32314Y25070D01*
X32332Y25063D01*
X32353Y25058D01*
X32377Y25054D01*
X32404Y25052D01*
X32434Y25051D01*
Y24894D01*
X32404Y24893D01*
X32377Y24891D01*
X32353Y24887D01*
X32332Y24881D01*
X32314Y24874D01*
X32300Y24865D01*
X32289Y24855D01*
X32281Y24843D01*
X32276Y24830D01*
X32274Y24815D01*
Y25129D01*
X32276Y25114D01*
D02*
G37*
G36*
X28540D02*
X28545Y25101D01*
X28553Y25089D01*
X28564Y25079D01*
X28578Y25070D01*
X28596Y25063D01*
X28617Y25058D01*
X28641Y25054D01*
X28668Y25052D01*
X28699Y25051D01*
Y24894D01*
X28668Y24893D01*
X28641Y24891D01*
X28617Y24887D01*
X28596Y24881D01*
X28578Y24874D01*
X28564Y24865D01*
X28553Y24855D01*
X28545Y24843D01*
X28540Y24830D01*
X28538Y24815D01*
Y25129D01*
X28540Y25114D01*
D02*
G37*
G36*
X24804D02*
X24809Y25101D01*
X24817Y25089D01*
X24828Y25079D01*
X24843Y25070D01*
X24860Y25063D01*
X24881Y25058D01*
X24905Y25054D01*
X24932Y25052D01*
X24963Y25051D01*
Y24894D01*
X24932Y24893D01*
X24905Y24891D01*
X24881Y24887D01*
X24860Y24881D01*
X24843Y24874D01*
X24828Y24865D01*
X24817Y24855D01*
X24809Y24843D01*
X24804Y24830D01*
X24803Y24815D01*
Y25129D01*
X24804Y25114D01*
D02*
G37*
G36*
X8844Y25024D02*
X8856Y24956D01*
X8875Y24896D01*
X8903Y24844D01*
X8939Y24800D01*
X8983Y24764D01*
X9035Y24736D01*
X9095Y24716D01*
X9163Y24704D01*
X9240Y24700D01*
X8639Y24300D01*
X8447Y24428D01*
Y24300D01*
X8370Y24298D01*
X8302Y24292D01*
X8241Y24282D01*
X8189Y24268D01*
X8145Y24250D01*
X8108Y24228D01*
X8080Y24202D01*
X8060Y24172D01*
X8048Y24138D01*
X8044Y24100D01*
Y24697D01*
X8040Y24700D01*
X8044Y24700D01*
Y24900D01*
X8048Y24862D01*
X8060Y24828D01*
X8080Y24798D01*
X8108Y24772D01*
X8145Y24750D01*
X8189Y24732D01*
X8213Y24726D01*
X8243Y24736D01*
X8295Y24764D01*
X8340Y24800D01*
X8375Y24844D01*
X8403Y24896D01*
X8424Y24956D01*
X8436Y25024D01*
X8439Y25100D01*
X8840D01*
X8844Y25024D01*
D02*
G37*
G36*
X23682Y23843D02*
X23684Y23812D01*
X23689Y23784D01*
X23695Y23760D01*
X23703Y23740D01*
X23713Y23723D01*
X23725Y23711D01*
X23738Y23701D01*
X23753Y23696D01*
X23770Y23694D01*
X23411D01*
X23428Y23696D01*
X23444Y23701D01*
X23457Y23711D01*
X23469Y23723D01*
X23479Y23740D01*
X23487Y23760D01*
X23493Y23784D01*
X23497Y23812D01*
X23500Y23843D01*
X23501Y23878D01*
X23681D01*
X23682Y23843D01*
D02*
G37*
G36*
X33062Y22648D02*
X33052Y22644D01*
X33044Y22639D01*
X33037Y22631D01*
X33031Y22620D01*
X33026Y22608D01*
X33022Y22593D01*
X33020Y22576D01*
X33018Y22557D01*
X33017Y22536D01*
X32908D01*
X32907Y22557D01*
X32905Y22576D01*
X32903Y22593D01*
X32899Y22608D01*
X32894Y22620D01*
X32888Y22631D01*
X32881Y22639D01*
X32873Y22644D01*
X32863Y22648D01*
X32853Y22649D01*
X33072D01*
X33062Y22648D01*
D02*
G37*
G36*
X29326D02*
X29317Y22644D01*
X29308Y22639D01*
X29301Y22631D01*
X29295Y22620D01*
X29290Y22608D01*
X29286Y22593D01*
X29284Y22576D01*
X29282Y22557D01*
X29282Y22536D01*
X29172D01*
X29171Y22557D01*
X29170Y22576D01*
X29167Y22593D01*
X29163Y22608D01*
X29158Y22620D01*
X29152Y22631D01*
X29145Y22639D01*
X29137Y22644D01*
X29127Y22648D01*
X29117Y22649D01*
X29336D01*
X29326Y22648D01*
D02*
G37*
G36*
X23721Y22645D02*
X23713Y22641D01*
X23705Y22634D01*
X23699Y22624D01*
X23693Y22611D01*
X23689Y22595D01*
X23685Y22577D01*
X23683Y22555D01*
X23681Y22531D01*
X23681Y22504D01*
X23501D01*
X23500Y22531D01*
X23496Y22577D01*
X23493Y22595D01*
X23488Y22611D01*
X23483Y22624D01*
X23476Y22634D01*
X23469Y22641D01*
X23460Y22645D01*
X23451Y22647D01*
X23731D01*
X23721Y22645D01*
D02*
G37*
G36*
X32818Y22264D02*
X32820Y22246D01*
X32822Y22229D01*
X32826Y22215D01*
X32831Y22203D01*
X32837Y22193D01*
X32844Y22185D01*
X32852Y22180D01*
X32862Y22176D01*
X32872Y22175D01*
X32653D01*
X32663Y22176D01*
X32673Y22180D01*
X32681Y22185D01*
X32688Y22193D01*
X32694Y22203D01*
X32699Y22215D01*
X32703Y22229D01*
X32705Y22246D01*
X32707Y22264D01*
X32708Y22285D01*
X32817D01*
X32818Y22264D01*
D02*
G37*
G36*
X29082D02*
X29084Y22246D01*
X29087Y22229D01*
X29090Y22215D01*
X29095Y22203D01*
X29101Y22193D01*
X29108Y22185D01*
X29117Y22180D01*
X29126Y22176D01*
X29136Y22175D01*
X28917D01*
X28927Y22176D01*
X28937Y22180D01*
X28945Y22185D01*
X28952Y22193D01*
X28958Y22203D01*
X28963Y22215D01*
X28967Y22229D01*
X28970Y22246D01*
X28971Y22264D01*
X28972Y22285D01*
X29082D01*
X29082Y22264D01*
D02*
G37*
G36*
X23881Y22281D02*
X23885Y22239D01*
X23887Y22222D01*
X23891Y22208D01*
X23895Y22196D01*
X23901Y22187D01*
X23907Y22181D01*
X23913Y22177D01*
X23921Y22175D01*
X23661D01*
X23668Y22177D01*
X23675Y22181D01*
X23681Y22187D01*
X23686Y22196D01*
X23691Y22208D01*
X23694Y22222D01*
X23697Y22239D01*
X23699Y22259D01*
X23701Y22305D01*
X23881D01*
X23881Y22281D01*
D02*
G37*
G36*
X23544Y21381D02*
X23543Y21385D01*
X23539Y21385D01*
X23532Y21382D01*
X23524Y21376D01*
X23512Y21367D01*
X23482Y21340D01*
X23417Y21277D01*
Y21531D01*
X23441Y21557D01*
X23463Y21583D01*
X23483Y21609D01*
X23500Y21634D01*
X23514Y21660D01*
X23526Y21685D01*
X23535Y21711D01*
X23541Y21736D01*
X23546Y21761D01*
X23547Y21786D01*
X23544Y21381D01*
D02*
G37*
G36*
X32862Y21383D02*
X32852Y21380D01*
X32844Y21374D01*
X32837Y21366D01*
X32831Y21356D01*
X32826Y21344D01*
X32822Y21329D01*
X32820Y21312D01*
X32818Y21293D01*
X32817Y21272D01*
X32708D01*
X32707Y21293D01*
X32705Y21312D01*
X32703Y21329D01*
X32699Y21344D01*
X32694Y21356D01*
X32688Y21366D01*
X32681Y21374D01*
X32673Y21380D01*
X32663Y21383D01*
X32653Y21385D01*
X32872D01*
X32862Y21383D01*
D02*
G37*
G36*
X29126D02*
X29117Y21380D01*
X29108Y21374D01*
X29101Y21366D01*
X29095Y21356D01*
X29090Y21344D01*
X29087Y21329D01*
X29084Y21312D01*
X29082Y21293D01*
X29082Y21272D01*
X28972D01*
X28971Y21293D01*
X28970Y21312D01*
X28967Y21329D01*
X28963Y21344D01*
X28958Y21356D01*
X28952Y21366D01*
X28945Y21374D01*
X28937Y21380D01*
X28927Y21383D01*
X28917Y21385D01*
X29136D01*
X29126Y21383D01*
D02*
G37*
G36*
X32818Y21044D02*
X32820Y21025D01*
X32822Y21009D01*
X32826Y20995D01*
X32831Y20983D01*
X32837Y20973D01*
X32844Y20965D01*
X32852Y20959D01*
X32862Y20956D01*
X32872Y20955D01*
X32653D01*
X32663Y20956D01*
X32673Y20959D01*
X32681Y20965D01*
X32688Y20973D01*
X32694Y20983D01*
X32699Y20995D01*
X32703Y21009D01*
X32705Y21025D01*
X32707Y21044D01*
X32708Y21065D01*
X32817D01*
X32818Y21044D01*
D02*
G37*
G36*
X29082D02*
X29084Y21025D01*
X29087Y21009D01*
X29090Y20995D01*
X29095Y20983D01*
X29101Y20973D01*
X29108Y20965D01*
X29117Y20959D01*
X29126Y20956D01*
X29136Y20955D01*
X28917D01*
X28927Y20956D01*
X28937Y20959D01*
X28945Y20965D01*
X28952Y20973D01*
X28958Y20983D01*
X28963Y20995D01*
X28967Y21009D01*
X28970Y21025D01*
X28971Y21044D01*
X28972Y21065D01*
X29082D01*
X29082Y21044D01*
D02*
G37*
G36*
X31019Y20401D02*
X31017Y20416D01*
X31012Y20429D01*
X31004Y20441D01*
X30993Y20451D01*
X30979Y20460D01*
X30961Y20467D01*
X30940Y20473D01*
X30916Y20476D01*
X30889Y20479D01*
X30859Y20480D01*
Y20637D01*
X30889Y20637D01*
X30916Y20640D01*
X30940Y20644D01*
X30961Y20649D01*
X30979Y20656D01*
X30993Y20665D01*
X31004Y20675D01*
X31012Y20687D01*
X31017Y20700D01*
X31019Y20715D01*
Y20401D01*
D02*
G37*
G36*
X38708Y20421D02*
X38733Y20399D01*
X38757Y20382D01*
X38779Y20368D01*
X38800Y20359D01*
X38819Y20354D01*
X38837Y20352D01*
X38853Y20355D01*
X38868Y20361D01*
X38881Y20372D01*
X38628Y20118D01*
X38639Y20132D01*
X38645Y20147D01*
X38648Y20163D01*
X38646Y20181D01*
X38641Y20200D01*
X38632Y20221D01*
X38618Y20243D01*
X38601Y20267D01*
X38579Y20292D01*
X38554Y20319D01*
X38681Y20446D01*
X38708Y20421D01*
D02*
G37*
G36*
X43328Y20108D02*
X43284Y20102D01*
X43240Y20091D01*
X43195Y20076D01*
X43149Y20057D01*
X43103Y20032D01*
X43057Y20004D01*
X43010Y19971D01*
X42962Y19933D01*
X42865Y19844D01*
X42738Y19971D01*
X42785Y20020D01*
X42865Y20116D01*
X42898Y20163D01*
X42926Y20209D01*
X42951Y20255D01*
X42970Y20301D01*
X42985Y20346D01*
X42996Y20390D01*
X43002Y20434D01*
X43328Y20108D01*
D02*
G37*
G36*
X35956Y19480D02*
X35954Y19497D01*
X35949Y19512D01*
X35940Y19526D01*
X35927Y19538D01*
X35910Y19548D01*
X35890Y19556D01*
X35866Y19562D01*
X35839Y19566D01*
X35808Y19569D01*
X35773Y19570D01*
Y19750D01*
X35808Y19751D01*
X35839Y19754D01*
X35866Y19758D01*
X35890Y19764D01*
X35910Y19772D01*
X35927Y19782D01*
X35940Y19794D01*
X35949Y19808D01*
X35954Y19823D01*
X35956Y19840D01*
Y19480D01*
D02*
G37*
G36*
X40174Y19804D02*
X40179Y19789D01*
X40188Y19775D01*
X40202Y19764D01*
X40219Y19754D01*
X40240Y19746D01*
X40265Y19740D01*
X40294Y19735D01*
X40327Y19732D01*
X40364Y19731D01*
X40360Y19551D01*
X40323Y19551D01*
X40290Y19548D01*
X40260Y19543D01*
X40235Y19537D01*
X40213Y19529D01*
X40195Y19519D01*
X40181Y19508D01*
X40171Y19494D01*
X40164Y19479D01*
X40162Y19462D01*
X40172Y19821D01*
X40174Y19804D01*
D02*
G37*
G36*
X37645Y19523D02*
X37649Y19498D01*
X37656Y19473D01*
X37665Y19448D01*
X37676Y19423D01*
X37691Y19397D01*
X37708Y19371D01*
X37727Y19346D01*
X37749Y19320D01*
X37774Y19294D01*
Y19039D01*
X37749Y19063D01*
X37727Y19081D01*
X37708Y19094D01*
X37691Y19102D01*
X37676Y19104D01*
X37665Y19102D01*
X37656Y19094D01*
X37649Y19081D01*
X37645Y19063D01*
X37644Y19039D01*
Y19548D01*
X37645Y19523D01*
D02*
G37*
G36*
X30286Y18845D02*
X30325Y18821D01*
X30368Y18800D01*
X30414Y18782D01*
X30464Y18767D01*
X30517Y18754D01*
X30573Y18744D01*
X30634Y18737D01*
X30765Y18731D01*
Y18551D01*
X30698Y18550D01*
X30573Y18539D01*
X30517Y18529D01*
X30464Y18516D01*
X30414Y18501D01*
X30368Y18483D01*
X30325Y18462D01*
X30286Y18438D01*
X30251Y18411D01*
Y18872D01*
X30286Y18845D01*
D02*
G37*
G36*
X42927Y18316D02*
X42895Y18338D01*
X42858Y18358D01*
X42817Y18375D01*
X42772Y18391D01*
X42723Y18403D01*
X42669Y18414D01*
X42612Y18422D01*
X42485Y18431D01*
X42415Y18432D01*
X42394Y18612D01*
X42460Y18614D01*
X42522Y18619D01*
X42582Y18627D01*
X42637Y18638D01*
X42690Y18653D01*
X42739Y18671D01*
X42785Y18692D01*
X42828Y18716D01*
X42867Y18743D01*
X42903Y18774D01*
X42927Y18316D01*
D02*
G37*
G36*
X3718Y25076D02*
X3631Y24926D01*
X3556Y24645D01*
Y24355D01*
X3631Y24074D01*
X3777Y23822D01*
X3982Y23617D01*
X4234Y23471D01*
X4515Y23396D01*
X4805D01*
X5086Y23471D01*
X5338Y23617D01*
X5360Y23639D01*
X6096D01*
Y23396D01*
X8304D01*
Y24030D01*
X8334Y24035D01*
X8360Y24037D01*
X9055D01*
X14308Y18784D01*
Y17515D01*
X14306Y17490D01*
X14301Y17459D01*
X14111D01*
X14036Y17564D01*
X14032Y17572D01*
X14072Y17773D01*
X14032Y17976D01*
X13916Y18149D01*
X13744Y18264D01*
X13540Y18305D01*
X12920D01*
X12833Y18288D01*
X12802Y18298D01*
X12701Y18391D01*
X12672Y18692D01*
X12566Y19040D01*
X12395Y19361D01*
X12242Y19546D01*
X12164Y19642D01*
X12163Y19640D01*
X10563Y21240D01*
X10563Y21243D01*
X10563Y21243D01*
X10468Y21321D01*
X10283Y21472D01*
X9964Y21643D01*
X9618Y21748D01*
X9258Y21783D01*
X9258Y21783D01*
Y21783D01*
X9132Y21781D01*
X4916D01*
X4789Y21799D01*
X4788Y21799D01*
X4779Y21795D01*
X4757Y21784D01*
X4653Y21774D01*
X4343Y21804D01*
X4045Y21895D01*
X3770Y22042D01*
X3529Y22240D01*
X3424Y22368D01*
X3424Y22368D01*
X3333Y22479D01*
X3186Y22753D01*
X3096Y23051D01*
X3085Y23159D01*
X3096Y23171D01*
X3089Y23188D01*
X3078Y23313D01*
Y24241D01*
X3078D01*
X3078Y24319D01*
X3074Y24346D01*
X3099Y24539D01*
X3174Y24719D01*
X3218Y24776D01*
X3293Y24872D01*
X3293Y24872D01*
X3406Y24986D01*
X3494Y25073D01*
X3591Y25144D01*
X3623Y25165D01*
X3718Y25076D01*
D02*
G37*
G36*
X35696Y18556D02*
X37889D01*
X38170Y18274D01*
X38170Y18274D01*
X38284Y18198D01*
X38418Y18172D01*
X38699D01*
X38733Y18045D01*
X38662Y18003D01*
X38457Y17798D01*
X38311Y17546D01*
X38236Y17265D01*
Y16975D01*
X38311Y16694D01*
X38359Y16611D01*
X38258Y16533D01*
X37885Y16905D01*
X37904Y16975D01*
Y17265D01*
X37829Y17546D01*
X37683Y17798D01*
X37478Y18003D01*
X37226Y18149D01*
X36945Y18224D01*
X36655D01*
X36374Y18149D01*
X36122Y18003D01*
X35917Y17798D01*
X35771Y17546D01*
X35696Y17265D01*
Y16975D01*
X35771Y16694D01*
X35917Y16442D01*
X36089Y16270D01*
X36042Y16143D01*
X30441D01*
X30311Y16117D01*
X30201Y16043D01*
X30162Y16004D01*
X30130Y15976D01*
X29948D01*
X29745Y15891D01*
X29705Y15851D01*
X29696Y15846D01*
X29671Y15827D01*
X29655Y15816D01*
X29634Y15805D01*
X29610Y15795D01*
X29581Y15785D01*
X29548Y15776D01*
X29514Y15770D01*
X29500Y15769D01*
X29328Y15941D01*
Y18571D01*
X29378Y18608D01*
X29505Y18544D01*
Y18531D01*
X29589Y18328D01*
X29745Y18172D01*
X29948Y18087D01*
X30169D01*
X30373Y18172D01*
X30403Y18202D01*
X30407Y18204D01*
X30432Y18223D01*
X30451Y18235D01*
X30473Y18246D01*
X30500Y18256D01*
X30532Y18266D01*
X30569Y18275D01*
X30607Y18282D01*
X30705Y18291D01*
X32675D01*
X32727Y18164D01*
X31946Y17382D01*
X30729D01*
X30654Y17386D01*
X30611Y17391D01*
X30569Y17398D01*
X30532Y17407D01*
X30500Y17417D01*
X30473Y17427D01*
X30451Y17438D01*
X30432Y17450D01*
X30407Y17469D01*
X30403Y17471D01*
X30373Y17501D01*
X30169Y17586D01*
X29948D01*
X29745Y17501D01*
X29589Y17345D01*
X29505Y17142D01*
Y16921D01*
X29589Y16718D01*
X29745Y16562D01*
X29948Y16478D01*
X30169D01*
X30373Y16562D01*
X30403Y16593D01*
X30407Y16594D01*
X30432Y16613D01*
X30451Y16625D01*
X30473Y16636D01*
X30500Y16647D01*
X30532Y16657D01*
X30569Y16665D01*
X30607Y16672D01*
X30705Y16681D01*
X32091D01*
X32091Y16681D01*
X32225Y16708D01*
X32339Y16784D01*
X34865Y19309D01*
X35696D01*
Y18556D01*
D02*
G37*
G36*
X24593Y17765D02*
X24689Y17685D01*
X24736Y17652D01*
X24783Y17623D01*
X24829Y17599D01*
X24874Y17579D01*
X24919Y17564D01*
X24964Y17553D01*
X25008Y17547D01*
X24682Y17221D01*
X24676Y17265D01*
X24665Y17310D01*
X24650Y17355D01*
X24630Y17400D01*
X24606Y17446D01*
X24577Y17493D01*
X24544Y17540D01*
X24506Y17587D01*
X24418Y17684D01*
X24545Y17811D01*
X24593Y17765D01*
D02*
G37*
G36*
X14973Y17526D02*
X14979Y17457D01*
X14989Y17397D01*
X15003Y17344D01*
X15021Y17300D01*
X15043Y17264D01*
X15069Y17235D01*
X15099Y17215D01*
X15133Y17203D01*
X15171Y17199D01*
X14371D01*
X14409Y17203D01*
X14443Y17215D01*
X14473Y17235D01*
X14499Y17264D01*
X14521Y17300D01*
X14539Y17344D01*
X14553Y17397D01*
X14563Y17457D01*
X14569Y17526D01*
X14571Y17602D01*
X14971D01*
X14973Y17526D01*
D02*
G37*
G36*
X14324Y16408D02*
X14320Y16446D01*
X14308Y16479D01*
X14288Y16509D01*
X14260Y16534D01*
X14224Y16556D01*
X14180Y16574D01*
X14128Y16587D01*
X14068Y16597D01*
X14000Y16603D01*
X13994Y16603D01*
X13694Y16585D01*
X13660Y16579D01*
X13632Y16572D01*
X13609Y16565D01*
X13674Y17054D01*
X13690Y17045D01*
X13712Y17037D01*
X13742Y17029D01*
X13778Y17023D01*
X13870Y17013D01*
X13989Y17007D01*
X13996Y17007D01*
X14000Y17007D01*
X14068Y17013D01*
X14128Y17023D01*
X14180Y17037D01*
X14224Y17054D01*
X14260Y17076D01*
X14288Y17102D01*
X14308Y17131D01*
X14320Y17165D01*
X14324Y17202D01*
Y16408D01*
D02*
G37*
G36*
X40173Y17268D02*
X40179Y17253D01*
X40188Y17240D01*
X40201Y17228D01*
X40219Y17218D01*
X40240Y17210D01*
X40265Y17204D01*
X40294Y17199D01*
X40327Y17197D01*
X40364Y17196D01*
X40361Y17016D01*
X40324Y17015D01*
X40290Y17012D01*
X40261Y17008D01*
X40235Y17002D01*
X40214Y16994D01*
X40196Y16984D01*
X40182Y16972D01*
X40172Y16959D01*
X40166Y16944D01*
X40163Y16927D01*
X40172Y17285D01*
X40173Y17268D01*
D02*
G37*
G36*
X42705Y16892D02*
X42671Y16916D01*
X42634Y16937D01*
X42592Y16955D01*
X42547Y16971D01*
X42497Y16985D01*
X42444Y16996D01*
X42387Y17005D01*
X42261Y17015D01*
X42192Y17016D01*
X42177Y17196D01*
X42243Y17197D01*
X42365Y17210D01*
X42421Y17221D01*
X42474Y17235D01*
X42523Y17252D01*
X42570Y17273D01*
X42613Y17296D01*
X42653Y17323D01*
X42690Y17353D01*
X42705Y16892D01*
D02*
G37*
G36*
X30286Y17235D02*
X30325Y17211D01*
X30368Y17190D01*
X30414Y17172D01*
X30464Y17157D01*
X30517Y17144D01*
X30573Y17134D01*
X30634Y17127D01*
X30765Y17122D01*
Y16942D01*
X30698Y16940D01*
X30573Y16929D01*
X30517Y16919D01*
X30464Y16906D01*
X30414Y16891D01*
X30368Y16873D01*
X30325Y16852D01*
X30286Y16828D01*
X30251Y16801D01*
Y17262D01*
X30286Y17235D01*
D02*
G37*
G36*
X37616Y16907D02*
X37613Y16889D01*
X37614Y16869D01*
X37619Y16848D01*
X37627Y16826D01*
X37639Y16803D01*
X37654Y16779D01*
X37674Y16753D01*
X37696Y16726D01*
X37723Y16699D01*
X37639Y16528D01*
X37612Y16554D01*
X37586Y16576D01*
X37562Y16593D01*
X37541Y16606D01*
X37521Y16614D01*
X37504Y16618D01*
X37488Y16617D01*
X37474Y16611D01*
X37463Y16601D01*
X37453Y16586D01*
X37623Y16924D01*
X37616Y16907D01*
D02*
G37*
G36*
X15475Y16151D02*
X15547Y16054D01*
Y13579D01*
X15551Y13559D01*
X15505Y13208D01*
X15362Y12862D01*
X15146Y12580D01*
X15129Y12569D01*
X14520Y11960D01*
X14520Y11959D01*
X14519Y11959D01*
X14519Y11959D01*
X14510Y11946D01*
X14194Y11686D01*
X13817Y11485D01*
X13409Y11361D01*
X13000Y11321D01*
X12984Y11324D01*
X8208D01*
X8135Y11451D01*
X8229Y11614D01*
X8304Y11895D01*
Y12185D01*
X8231Y12458D01*
X8519Y12612D01*
X8927Y12735D01*
X9336Y12776D01*
X9352Y12772D01*
X10134D01*
Y12770D01*
X10539Y12809D01*
X10928Y12928D01*
X11287Y13119D01*
X11506Y13299D01*
X11602Y13378D01*
X11600Y13380D01*
X12399Y14179D01*
X12399Y14179D01*
X12400Y14177D01*
X12567Y14395D01*
X12672Y14648D01*
X12708Y14919D01*
X12708D01*
X12725Y15039D01*
X12742Y15124D01*
X12790Y15196D01*
X12861Y15293D01*
X12968Y15341D01*
X13540D01*
X13744Y15381D01*
X13916Y15497D01*
X14032Y15669D01*
X14072Y15873D01*
X14040Y16036D01*
X14110Y16134D01*
X14134Y16151D01*
X14314D01*
X14324Y16149D01*
X14334Y16151D01*
X14347D01*
X14352Y16151D01*
X14353Y16151D01*
X15475D01*
D02*
G37*
G36*
X30496Y15748D02*
X30464Y15715D01*
X30389Y15628D01*
X30372Y15603D01*
X30359Y15581D01*
X30350Y15561D01*
X30344Y15543D01*
X30342Y15527D01*
X30344Y15513D01*
X30150Y15707D01*
X30164Y15705D01*
X30180Y15707D01*
X30198Y15713D01*
X30218Y15722D01*
X30240Y15735D01*
X30265Y15752D01*
X30292Y15773D01*
X30352Y15827D01*
X30385Y15859D01*
X30496Y15748D01*
D02*
G37*
G36*
X42407Y15606D02*
X42372Y15632D01*
X42334Y15654D01*
X42291Y15674D01*
X42246Y15692D01*
X42196Y15706D01*
X42143Y15718D01*
X42086Y15728D01*
X42025Y15734D01*
X41893Y15740D01*
X41887Y15920D01*
X41953Y15921D01*
X42076Y15933D01*
X42133Y15943D01*
X42186Y15957D01*
X42236Y15973D01*
X42282Y15992D01*
X42325Y16014D01*
X42364Y16039D01*
X42401Y16067D01*
X42407Y15606D01*
D02*
G37*
G36*
X29859Y15198D02*
X29824Y15226D01*
X29787Y15250D01*
X29746Y15272D01*
X29702Y15291D01*
X29655Y15307D01*
X29604Y15320D01*
X29550Y15330D01*
X29493Y15337D01*
X29432Y15342D01*
X29368Y15343D01*
Y15500D01*
X29432Y15502D01*
X29550Y15513D01*
X29604Y15523D01*
X29655Y15536D01*
X29702Y15552D01*
X29746Y15571D01*
X29787Y15593D01*
X29824Y15618D01*
X29859Y15645D01*
Y15198D01*
D02*
G37*
G36*
X38572Y15175D02*
X38594Y15156D01*
X38614Y15141D01*
X38633Y15130D01*
X38650Y15123D01*
X38666Y15120D01*
X38680Y15120D01*
X38692Y15125D01*
X38703Y15133D01*
X38712Y15145D01*
X38546Y14869D01*
X38552Y14883D01*
X38556Y14898D01*
X38556Y14914D01*
X38552Y14932D01*
X38546Y14950D01*
X38536Y14970D01*
X38523Y14990D01*
X38507Y15012D01*
X38488Y15035D01*
X38465Y15058D01*
X38549Y15197D01*
X38572Y15175D01*
D02*
G37*
G36*
X40167Y14753D02*
X40173Y14740D01*
X40181Y14728D01*
X40194Y14718D01*
X40209Y14710D01*
X40228Y14703D01*
X40250Y14697D01*
X40276Y14694D01*
X40305Y14691D01*
X40337Y14690D01*
X40343Y14533D01*
X40311Y14533D01*
X40282Y14530D01*
X40257Y14526D01*
X40235Y14521D01*
X40216Y14514D01*
X40201Y14505D01*
X40190Y14495D01*
X40182Y14483D01*
X40177Y14470D01*
X40176Y14455D01*
X40165Y14768D01*
X40167Y14753D01*
D02*
G37*
G36*
X42104Y14405D02*
X42069Y14429D01*
X42029Y14451D01*
X41987Y14470D01*
X41940Y14487D01*
X41890Y14501D01*
X41837Y14513D01*
X41780Y14522D01*
X41655Y14532D01*
X41587Y14533D01*
X41569Y14690D01*
X41633Y14692D01*
X41694Y14697D01*
X41752Y14706D01*
X41808Y14718D01*
X41860Y14734D01*
X41910Y14753D01*
X41957Y14775D01*
X42001Y14801D01*
X42043Y14830D01*
X42081Y14863D01*
X42104Y14405D01*
D02*
G37*
G36*
X37490Y14090D02*
X37484Y14077D01*
X37482Y14063D01*
X37483Y14048D01*
X37488Y14031D01*
X37496Y14013D01*
X37507Y13994D01*
X37522Y13973D01*
X37541Y13951D01*
X37563Y13928D01*
X37452Y13817D01*
X37429Y13839D01*
X37407Y13858D01*
X37386Y13873D01*
X37367Y13884D01*
X37349Y13892D01*
X37332Y13897D01*
X37317Y13898D01*
X37303Y13896D01*
X37290Y13890D01*
X37278Y13880D01*
X37500Y14102D01*
X37490Y14090D01*
D02*
G37*
G36*
X7921Y14146D02*
X7915Y14129D01*
X7913Y14111D01*
X7917Y14091D01*
X7926Y14070D01*
X7940Y14048D01*
X7960Y14025D01*
X7985Y14000D01*
X8015Y13974D01*
X8051Y13947D01*
X7900Y13791D01*
X7862Y13817D01*
X7828Y13838D01*
X7795Y13856D01*
X7765Y13868D01*
X7738Y13877D01*
X7712Y13881D01*
X7689Y13881D01*
X7669Y13877D01*
X7651Y13868D01*
X7635Y13855D01*
X7934Y14162D01*
X7921Y14146D01*
D02*
G37*
G36*
X29660Y14324D02*
X29755Y14246D01*
X29802Y14214D01*
X29849Y14186D01*
X29897Y14162D01*
X29944Y14143D01*
X29991Y14128D01*
X30039Y14117D01*
X30086Y14111D01*
X29760Y13785D01*
X29753Y13832D01*
X29743Y13879D01*
X29728Y13927D01*
X29708Y13974D01*
X29685Y14021D01*
X29657Y14069D01*
X29624Y14116D01*
X29588Y14163D01*
X29547Y14211D01*
X29501Y14258D01*
X29612Y14369D01*
X29660Y14324D01*
D02*
G37*
G36*
X5351Y14093D02*
X5341Y14076D01*
X5336Y14056D01*
X5334Y14033D01*
X5337Y14007D01*
X5344Y13980D01*
X5355Y13949D01*
X5371Y13916D01*
X5390Y13881D01*
X5414Y13843D01*
X5253Y13698D01*
X5228Y13735D01*
X5203Y13767D01*
X5179Y13793D01*
X5157Y13814D01*
X5135Y13830D01*
X5114Y13840D01*
X5095Y13845D01*
X5076Y13844D01*
X5058Y13838D01*
X5042Y13827D01*
X5365Y14109D01*
X5351Y14093D01*
D02*
G37*
G36*
X30364Y13792D02*
X30375Y13744D01*
X30390Y13697D01*
X30409Y13650D01*
X30433Y13603D01*
X30461Y13555D01*
X30493Y13508D01*
X30530Y13460D01*
X30571Y13413D01*
X30616Y13366D01*
X30505Y13255D01*
X30458Y13300D01*
X30363Y13377D01*
X30315Y13410D01*
X30268Y13438D01*
X30221Y13461D01*
X30173Y13481D01*
X30126Y13496D01*
X30079Y13507D01*
X30032Y13513D01*
X30357Y13839D01*
X30364Y13792D01*
D02*
G37*
G36*
X42234Y13150D02*
X42203Y13168D01*
X42167Y13185D01*
X42127Y13199D01*
X42083Y13212D01*
X42034Y13222D01*
X41923Y13238D01*
X41860Y13242D01*
X41722Y13246D01*
X41680Y13403D01*
X41746Y13405D01*
X41808Y13411D01*
X41866Y13420D01*
X41920Y13433D01*
X41971Y13449D01*
X42017Y13469D01*
X42060Y13493D01*
X42099Y13521D01*
X42134Y13552D01*
X42166Y13587D01*
X42234Y13150D01*
D02*
G37*
G36*
X8060Y12662D02*
X8023Y12635D01*
X7992Y12610D01*
X7967Y12586D01*
X7947Y12563D01*
X7932Y12541D01*
X7922Y12520D01*
X7918Y12501D01*
X7920Y12482D01*
X7926Y12465D01*
X7938Y12449D01*
X7643Y12760D01*
X7659Y12747D01*
X7677Y12738D01*
X7697Y12733D01*
X7720Y12733D01*
X7746Y12737D01*
X7774Y12745D01*
X7804Y12757D01*
X7837Y12773D01*
X7872Y12794D01*
X7910Y12819D01*
X8060Y12662D01*
D02*
G37*
G36*
X40151Y12270D02*
X40158Y12257D01*
X40168Y12246D01*
X40181Y12235D01*
X40198Y12227D01*
X40218Y12220D01*
X40241Y12215D01*
X40268Y12211D01*
X40298Y12208D01*
X40331Y12208D01*
X40347Y12051D01*
X40314Y12050D01*
X40285Y12047D01*
X40259Y12043D01*
X40237Y12038D01*
X40219Y12031D01*
X40204Y12022D01*
X40193Y12012D01*
X40185Y12000D01*
X40181Y11987D01*
X40181Y11972D01*
X40148Y12285D01*
X40151Y12270D01*
D02*
G37*
G36*
X41576Y11899D02*
X41538Y11927D01*
X41497Y11953D01*
X41452Y11976D01*
X41405Y11996D01*
X41355Y12013D01*
X41302Y12026D01*
X41245Y12037D01*
X41186Y12044D01*
X41124Y12049D01*
X41058Y12051D01*
Y12208D01*
X41124Y12209D01*
X41245Y12221D01*
X41302Y12232D01*
X41355Y12245D01*
X41405Y12262D01*
X41452Y12282D01*
X41497Y12305D01*
X41538Y12331D01*
X41576Y12359D01*
Y11899D01*
D02*
G37*
G36*
X35967Y11883D02*
X35966Y11898D01*
X35961Y11911D01*
X35952Y11923D01*
X35941Y11933D01*
X35925Y11942D01*
X35907Y11949D01*
X35885Y11954D01*
X35860Y11958D01*
X35832Y11961D01*
X35800Y11961D01*
Y12119D01*
X35832Y12119D01*
X35860Y12122D01*
X35885Y12126D01*
X35907Y12131D01*
X35925Y12138D01*
X35941Y12147D01*
X35952Y12157D01*
X35961Y12169D01*
X35966Y12182D01*
X35967Y12197D01*
Y11883D01*
D02*
G37*
G36*
X5453Y11759D02*
X5448Y11738D01*
X5448Y11716D01*
X5452Y11693D01*
X5461Y11668D01*
X5474Y11641D01*
X5492Y11613D01*
X5514Y11583D01*
X5541Y11552D01*
X5573Y11519D01*
X5453Y11337D01*
X5421Y11368D01*
X5390Y11394D01*
X5362Y11414D01*
X5337Y11430D01*
X5313Y11440D01*
X5291Y11445D01*
X5272Y11445D01*
X5255Y11440D01*
X5240Y11429D01*
X5227Y11413D01*
X5462Y11778D01*
X5453Y11759D01*
D02*
G37*
G36*
X37467Y11523D02*
X37461Y11510D01*
X37458Y11496D01*
X37459Y11481D01*
X37464Y11464D01*
X37472Y11446D01*
X37484Y11427D01*
X37499Y11406D01*
X37518Y11384D01*
X37540Y11360D01*
X37424Y11254D01*
X37401Y11277D01*
X37378Y11295D01*
X37358Y11311D01*
X37338Y11323D01*
X37320Y11331D01*
X37302Y11336D01*
X37287Y11338D01*
X37272Y11336D01*
X37259Y11331D01*
X37247Y11322D01*
X37477Y11534D01*
X37467Y11523D01*
D02*
G37*
G36*
X41608Y10070D02*
X41570Y10098D01*
X41529Y10124D01*
X41485Y10147D01*
X41438Y10167D01*
X41387Y10184D01*
X41334Y10197D01*
X41278Y10208D01*
X41218Y10215D01*
X41156Y10220D01*
X41090Y10221D01*
Y10379D01*
X41156Y10380D01*
X41278Y10392D01*
X41334Y10403D01*
X41387Y10416D01*
X41438Y10433D01*
X41485Y10453D01*
X41529Y10476D01*
X41570Y10502D01*
X41608Y10530D01*
Y10070D01*
D02*
G37*
G36*
X37629Y9663D02*
X37635Y9648D01*
X37645Y9635D01*
X37658Y9623D01*
X37676Y9613D01*
X37697Y9605D01*
X37723Y9599D01*
X37752Y9595D01*
X37785Y9592D01*
X37822Y9591D01*
X37822Y9411D01*
X37785Y9410D01*
X37752Y9408D01*
X37723Y9403D01*
X37698Y9397D01*
X37676Y9389D01*
X37659Y9379D01*
X37645Y9367D01*
X37636Y9354D01*
X37630Y9339D01*
X37628Y9322D01*
X37627Y9680D01*
X37629Y9663D01*
D02*
G37*
G36*
X40578Y9271D02*
X40542Y9298D01*
X40503Y9322D01*
X40461Y9343D01*
X40415Y9361D01*
X40365Y9376D01*
X40312Y9389D01*
X40255Y9399D01*
X40195Y9406D01*
X40064Y9411D01*
X40063Y9591D01*
X40130Y9592D01*
X40254Y9604D01*
X40311Y9614D01*
X40364Y9626D01*
X40414Y9642D01*
X40460Y9660D01*
X40502Y9681D01*
X40542Y9705D01*
X40577Y9732D01*
X40578Y9271D01*
D02*
G37*
G36*
X24297Y2577D02*
X24319Y2559D01*
X24340Y2544D01*
X24359Y2532D01*
X24377Y2524D01*
X24394Y2520D01*
X24409Y2519D01*
X24423Y2521D01*
X24436Y2527D01*
X24448Y2536D01*
X24226Y2314D01*
X24236Y2326D01*
X24242Y2339D01*
X24244Y2353D01*
X24243Y2369D01*
X24238Y2386D01*
X24230Y2404D01*
X24219Y2423D01*
X24204Y2443D01*
X24185Y2465D01*
X24163Y2488D01*
X24274Y2599D01*
X24297Y2577D01*
D02*
G37*
G36*
X26988Y1137D02*
X26976Y1146D01*
X26963Y1152D01*
X26949Y1155D01*
X26934Y1153D01*
X26917Y1149D01*
X26899Y1141D01*
X26880Y1129D01*
X26859Y1114D01*
X26837Y1096D01*
X26814Y1074D01*
X26703Y1185D01*
X26725Y1208D01*
X26744Y1230D01*
X26759Y1250D01*
X26770Y1270D01*
X26778Y1288D01*
X26783Y1304D01*
X26784Y1320D01*
X26782Y1334D01*
X26776Y1347D01*
X26766Y1359D01*
X26988Y1137D01*
D02*
G37*
G36*
X8354Y4911D02*
Y2361D01*
X8380Y2231D01*
X8454Y2121D01*
X10050Y525D01*
X10001Y408D01*
X5311D01*
X5282Y531D01*
X5310Y546D01*
X5750Y865D01*
X6135Y1250D01*
X6454Y1690D01*
X6701Y2174D01*
X6869Y2691D01*
X6954Y3228D01*
Y3373D01*
X3500D01*
Y3627D01*
X6954D01*
Y3772D01*
X6869Y4309D01*
X6701Y4826D01*
X6454Y5310D01*
X6135Y5750D01*
X5750Y6135D01*
X5310Y6454D01*
X4826Y6701D01*
X4423Y6832D01*
X4443Y6959D01*
X6307D01*
X8354Y4911D01*
D02*
G37*
%LPC*%
G36*
X40373Y40373D02*
X37046D01*
Y40228D01*
X37131Y39691D01*
X37299Y39174D01*
X37546Y38690D01*
X37865Y38250D01*
X38250Y37865D01*
X38690Y37546D01*
X39174Y37299D01*
X39691Y37131D01*
X40228Y37046D01*
X40373D01*
Y40373D01*
D02*
G37*
G36*
X6954D02*
X3627D01*
Y37046D01*
X3772D01*
X4309Y37131D01*
X4826Y37299D01*
X5310Y37546D01*
X5750Y37865D01*
X6135Y38250D01*
X6454Y38690D01*
X6701Y39174D01*
X6869Y39691D01*
X6954Y40228D01*
Y40373D01*
D02*
G37*
G36*
X39485Y35764D02*
X39195D01*
X38914Y35689D01*
X38662Y35543D01*
X38457Y35338D01*
X38311Y35086D01*
X38236Y34805D01*
Y34515D01*
X38311Y34234D01*
X38457Y33982D01*
X38662Y33777D01*
X38914Y33631D01*
X39195Y33556D01*
X39485D01*
X39766Y33631D01*
X40018Y33777D01*
X40223Y33982D01*
X40369Y34234D01*
X40444Y34515D01*
Y34805D01*
X40369Y35086D01*
X40223Y35338D01*
X40018Y35543D01*
X39766Y35689D01*
X39485Y35764D01*
D02*
G37*
G36*
X37904D02*
X35696D01*
Y33556D01*
X37904D01*
Y35764D01*
D02*
G37*
G36*
X39485Y33224D02*
X39195D01*
X38914Y33149D01*
X38662Y33003D01*
X38457Y32798D01*
X38311Y32546D01*
X38236Y32265D01*
Y31975D01*
X38311Y31694D01*
X38457Y31442D01*
X38662Y31237D01*
X38914Y31091D01*
X39195Y31016D01*
X39485D01*
X39766Y31091D01*
X40018Y31237D01*
X40223Y31442D01*
X40369Y31694D01*
X40444Y31975D01*
Y32265D01*
X40369Y32546D01*
X40223Y32798D01*
X40018Y33003D01*
X39766Y33149D01*
X39485Y33224D01*
D02*
G37*
G36*
X36945D02*
X36655D01*
X36374Y33149D01*
X36122Y33003D01*
X35917Y32798D01*
X35771Y32546D01*
X35696Y32265D01*
Y31975D01*
X35771Y31694D01*
X35917Y31442D01*
X36122Y31237D01*
X36374Y31091D01*
X36655Y31016D01*
X36945D01*
X37226Y31091D01*
X37478Y31237D01*
X37683Y31442D01*
X37829Y31694D01*
X37904Y31975D01*
Y32265D01*
X37829Y32546D01*
X37683Y32798D01*
X37478Y33003D01*
X37226Y33149D01*
X36945Y33224D01*
D02*
G37*
G36*
X39485Y30684D02*
X39195D01*
X38914Y30609D01*
X38662Y30463D01*
X38457Y30258D01*
X38311Y30006D01*
X38236Y29725D01*
Y29435D01*
X38311Y29154D01*
X38457Y28902D01*
X38662Y28697D01*
X38914Y28551D01*
X39195Y28476D01*
X39485D01*
X39766Y28551D01*
X40018Y28697D01*
X40223Y28902D01*
X40369Y29154D01*
X40444Y29435D01*
Y29725D01*
X40369Y30006D01*
X40223Y30258D01*
X40018Y30463D01*
X39766Y30609D01*
X39485Y30684D01*
D02*
G37*
G36*
X36945D02*
X36655D01*
X36374Y30609D01*
X36122Y30463D01*
X35917Y30258D01*
X35771Y30006D01*
X35696Y29725D01*
Y29435D01*
X35771Y29154D01*
X35917Y28902D01*
X36122Y28697D01*
X36374Y28551D01*
X36655Y28476D01*
X36945D01*
X37226Y28551D01*
X37478Y28697D01*
X37683Y28902D01*
X37829Y29154D01*
X37904Y29435D01*
Y29725D01*
X37829Y30006D01*
X37683Y30258D01*
X37478Y30463D01*
X37226Y30609D01*
X36945Y30684D01*
D02*
G37*
G36*
X39485Y28144D02*
X39195D01*
X38914Y28069D01*
X38662Y27923D01*
X38457Y27718D01*
X38311Y27466D01*
X38236Y27185D01*
Y26895D01*
X38311Y26614D01*
X38457Y26362D01*
X38662Y26157D01*
X38914Y26011D01*
X39195Y25936D01*
X39485D01*
X39766Y26011D01*
X40018Y26157D01*
X40223Y26362D01*
X40369Y26614D01*
X40444Y26895D01*
Y27185D01*
X40369Y27466D01*
X40223Y27718D01*
X40018Y27923D01*
X39766Y28069D01*
X39485Y28144D01*
D02*
G37*
G36*
X36945D02*
X36655D01*
X36374Y28069D01*
X36122Y27923D01*
X35917Y27718D01*
X35771Y27466D01*
X35696Y27185D01*
Y26895D01*
X35771Y26614D01*
X35917Y26362D01*
X36122Y26157D01*
X36374Y26011D01*
X36655Y25936D01*
X36945D01*
X37226Y26011D01*
X37478Y26157D01*
X37683Y26362D01*
X37829Y26614D01*
X37904Y26895D01*
Y27185D01*
X37829Y27466D01*
X37683Y27718D01*
X37478Y27923D01*
X37226Y28069D01*
X36945Y28144D01*
D02*
G37*
G36*
Y25604D02*
X36655D01*
X36374Y25529D01*
X36122Y25383D01*
X35917Y25178D01*
X35771Y24926D01*
X35696Y24645D01*
Y24355D01*
X35771Y24074D01*
X35917Y23822D01*
X36122Y23617D01*
X36374Y23471D01*
X36655Y23396D01*
X36945D01*
X37226Y23471D01*
X37478Y23617D01*
X37683Y23822D01*
X37829Y24074D01*
X37904Y24355D01*
Y24645D01*
X37829Y24926D01*
X37683Y25178D01*
X37478Y25383D01*
X37226Y25529D01*
X36945Y25604D01*
D02*
G37*
G36*
X12337Y32980D02*
X12117D01*
X11913Y32896D01*
X11757Y32740D01*
X11673Y32536D01*
Y32316D01*
X11757Y32112D01*
X11913Y31957D01*
X12117Y31872D01*
X12337D01*
X12541Y31957D01*
X12572Y31988D01*
X12576Y31990D01*
X12605Y32012D01*
X12627Y32025D01*
X12652Y32038D01*
X12680Y32050D01*
X12713Y32061D01*
X12749Y32070D01*
X12786Y32077D01*
X12884Y32087D01*
X21930D01*
X25980Y28037D01*
Y23954D01*
X24971D01*
Y22432D01*
X24787D01*
Y21212D01*
X24787D01*
Y19904D01*
X25795D01*
Y21124D01*
X25795D01*
Y22389D01*
X25980D01*
Y21281D01*
X26006Y21151D01*
X26080Y21041D01*
X26802Y20318D01*
X26912Y20245D01*
X27023Y20223D01*
Y19904D01*
X28031D01*
Y21212D01*
X27023D01*
Y21212D01*
X26913Y21167D01*
X26659Y21421D01*
Y28177D01*
X26633Y28307D01*
X26559Y28417D01*
X22310Y32666D01*
X22200Y32739D01*
X22071Y32765D01*
X12880D01*
X12835Y32769D01*
X12790Y32774D01*
X12749Y32782D01*
X12713Y32791D01*
X12680Y32802D01*
X12652Y32814D01*
X12627Y32827D01*
X12605Y32841D01*
X12576Y32863D01*
X12572Y32865D01*
X12541Y32896D01*
X12337Y32980D01*
D02*
G37*
G36*
X4805Y18224D02*
X4787D01*
Y17247D01*
X4986D01*
Y17906D01*
X5063Y17871D01*
X5156Y17839D01*
X5265Y17811D01*
X5389Y17787D01*
X5562Y17765D01*
X5543Y17798D01*
X5338Y18003D01*
X5086Y18149D01*
X4805Y18224D01*
D02*
G37*
G36*
X7345D02*
X7327D01*
Y17247D01*
X8304D01*
Y17265D01*
X8229Y17546D01*
X8083Y17798D01*
X7878Y18003D01*
X7626Y18149D01*
X7345Y18224D01*
D02*
G37*
G36*
X7073D02*
X7055D01*
X6774Y18149D01*
X6522Y18003D01*
X6317Y17798D01*
X6297Y17764D01*
X6331Y17767D01*
X6471Y17787D01*
X6704Y17839D01*
X6797Y17871D01*
X6874Y17906D01*
Y17247D01*
X7073D01*
Y18224D01*
D02*
G37*
G36*
X4533D02*
X4515D01*
X4234Y18149D01*
X3982Y18003D01*
X3777Y17798D01*
X3631Y17546D01*
X3556Y17265D01*
Y17247D01*
X4533D01*
Y18224D01*
D02*
G37*
G36*
X7073Y16993D02*
X6874D01*
Y16334D01*
X6797Y16369D01*
X6704Y16401D01*
X6595Y16429D01*
X6471Y16453D01*
X6298Y16475D01*
X6317Y16442D01*
X6522Y16237D01*
X6774Y16091D01*
X7055Y16016D01*
X7073D01*
Y16993D01*
D02*
G37*
G36*
X8304D02*
X7327D01*
Y16016D01*
X7345D01*
X7626Y16091D01*
X7878Y16237D01*
X8083Y16442D01*
X8229Y16694D01*
X8304Y16975D01*
Y16993D01*
D02*
G37*
G36*
X4986D02*
X4787D01*
Y16016D01*
X4805D01*
X5086Y16091D01*
X5338Y16237D01*
X5543Y16442D01*
X5563Y16476D01*
X5529Y16473D01*
X5389Y16453D01*
X5156Y16401D01*
X5063Y16369D01*
X4986Y16334D01*
Y16993D01*
D02*
G37*
G36*
X4533D02*
X3556D01*
Y16975D01*
X3631Y16694D01*
X3777Y16442D01*
X3982Y16237D01*
X4234Y16091D01*
X4515Y16016D01*
X4533D01*
Y16993D01*
D02*
G37*
G36*
X25065Y8954D02*
X25047D01*
Y7977D01*
X26024D01*
Y7995D01*
X25949Y8276D01*
X25803Y8528D01*
X25598Y8733D01*
X25346Y8879D01*
X25065Y8954D01*
D02*
G37*
G36*
X24793D02*
X24775D01*
X24494Y8879D01*
X24242Y8733D01*
X24037Y8528D01*
X23891Y8276D01*
X23816Y7995D01*
Y7977D01*
X24793D01*
Y8954D01*
D02*
G37*
G36*
X32685D02*
X32395D01*
X32114Y8879D01*
X31862Y8733D01*
X31657Y8528D01*
X31511Y8276D01*
X31436Y7995D01*
Y7705D01*
X31509Y7432D01*
X31491Y7408D01*
X31474Y7388D01*
X30462Y6376D01*
X30442Y6359D01*
X30418Y6341D01*
X30145Y6414D01*
X29855D01*
X29574Y6339D01*
X29322Y6193D01*
X29117Y5988D01*
X28971Y5736D01*
X28896Y5455D01*
Y5165D01*
X28971Y4884D01*
X29117Y4632D01*
X29322Y4427D01*
X29574Y4281D01*
X29855Y4206D01*
X30145D01*
X30426Y4281D01*
X30678Y4427D01*
X30883Y4632D01*
X31029Y4884D01*
X31104Y5165D01*
Y5455D01*
X31031Y5728D01*
X31049Y5752D01*
X31066Y5772D01*
X32078Y6784D01*
X32098Y6801D01*
X32122Y6819D01*
X32395Y6746D01*
X32685D01*
X32966Y6821D01*
X33218Y6967D01*
X33423Y7172D01*
X33569Y7424D01*
X33644Y7705D01*
Y7995D01*
X33569Y8276D01*
X33423Y8528D01*
X33218Y8733D01*
X32966Y8879D01*
X32685Y8954D01*
D02*
G37*
G36*
X30145D02*
X29855D01*
X29574Y8879D01*
X29322Y8733D01*
X29117Y8528D01*
X28971Y8276D01*
X28896Y7995D01*
Y7705D01*
X28971Y7424D01*
X29117Y7172D01*
X29322Y6967D01*
X29574Y6821D01*
X29855Y6746D01*
X30145D01*
X30426Y6821D01*
X30678Y6967D01*
X30883Y7172D01*
X31029Y7424D01*
X31104Y7705D01*
Y7995D01*
X31029Y8276D01*
X30883Y8528D01*
X30678Y8733D01*
X30426Y8879D01*
X30145Y8954D01*
D02*
G37*
G36*
X26024Y7723D02*
X25047D01*
Y6746D01*
X25065D01*
X25346Y6821D01*
X25598Y6967D01*
X25803Y7172D01*
X25949Y7424D01*
X26024Y7705D01*
Y7723D01*
D02*
G37*
G36*
X24793D02*
X23816D01*
Y7705D01*
X23891Y7424D01*
X24037Y7172D01*
X24242Y6967D01*
X24494Y6821D01*
X24775Y6746D01*
X24793D01*
Y7723D01*
D02*
G37*
G36*
X26024Y6414D02*
X25047D01*
Y5437D01*
X26024D01*
Y6414D01*
D02*
G37*
G36*
X24793D02*
X23816D01*
Y5437D01*
X24793D01*
Y6414D01*
D02*
G37*
G36*
X32685D02*
X32395D01*
X32114Y6339D01*
X31862Y6193D01*
X31657Y5988D01*
X31511Y5736D01*
X31436Y5455D01*
Y5165D01*
X31511Y4884D01*
X31657Y4632D01*
X31862Y4427D01*
X32114Y4281D01*
X32395Y4206D01*
X32685D01*
X32966Y4281D01*
X33218Y4427D01*
X33423Y4632D01*
X33569Y4884D01*
X33644Y5165D01*
Y5455D01*
X33569Y5736D01*
X33423Y5988D01*
X33218Y6193D01*
X32966Y6339D01*
X32685Y6414D01*
D02*
G37*
G36*
X27605Y8954D02*
X27315D01*
X27034Y8879D01*
X26782Y8733D01*
X26577Y8528D01*
X26431Y8276D01*
X26356Y7995D01*
Y7705D01*
X26431Y7424D01*
X26449Y7393D01*
X26470Y7348D01*
X26494Y7279D01*
X26542Y7066D01*
X26560Y6946D01*
X26587Y6524D01*
X26577Y6367D01*
X26541Y6088D01*
X26519Y5978D01*
X26495Y5885D01*
X26470Y5812D01*
X26449Y5767D01*
X26431Y5736D01*
X26356Y5455D01*
Y5165D01*
X26431Y4884D01*
X26577Y4632D01*
X26782Y4427D01*
X27034Y4281D01*
X27315Y4206D01*
X27605D01*
X27886Y4281D01*
X28138Y4427D01*
X28343Y4632D01*
X28489Y4884D01*
X28564Y5165D01*
Y5455D01*
X28489Y5736D01*
X28472Y5766D01*
X28453Y5806D01*
X28430Y5875D01*
X28407Y5966D01*
X28388Y6067D01*
X28344Y6663D01*
X28353Y6809D01*
X28387Y7087D01*
X28407Y7194D01*
X28430Y7285D01*
X28453Y7354D01*
X28472Y7394D01*
X28489Y7424D01*
X28564Y7705D01*
Y7995D01*
X28489Y8276D01*
X28343Y8528D01*
X28138Y8733D01*
X27886Y8879D01*
X27605Y8954D01*
D02*
G37*
G36*
X26024Y5183D02*
X25047D01*
Y4206D01*
X26024D01*
Y5183D01*
D02*
G37*
G36*
X24793D02*
X23816D01*
Y4206D01*
X24793D01*
Y5183D01*
D02*
G37*
G36*
X19095Y8011D02*
X18885Y7983D01*
X18690Y7902D01*
X18522Y7773D01*
X18393Y7605D01*
X18312Y7410D01*
X18284Y7200D01*
Y6600D01*
X18304Y6451D01*
X18303Y6449D01*
X18334Y5424D01*
Y4512D01*
X18327Y3936D01*
X18273Y3922D01*
X18159Y3900D01*
X18035Y3883D01*
X17744Y3862D01*
X17677Y3861D01*
X11873D01*
X11806Y3862D01*
X11515Y3883D01*
X11391Y3900D01*
X11277Y3922D01*
X11235Y3933D01*
X11216Y4576D01*
Y5488D01*
X11226Y6236D01*
X11234Y6364D01*
X11237Y6384D01*
X11238Y6389D01*
X11238Y6390D01*
X11239Y6392D01*
X11239Y6395D01*
X11239Y6398D01*
X11266Y6600D01*
Y7200D01*
X11238Y7410D01*
X11157Y7605D01*
X11028Y7773D01*
X10860Y7902D01*
X10665Y7983D01*
X10455Y8011D01*
X10245Y7983D01*
X10050Y7902D01*
X9882Y7773D01*
X9753Y7605D01*
X9672Y7410D01*
X9644Y7200D01*
Y6600D01*
X9664Y6451D01*
X9663Y6449D01*
X9694Y5424D01*
Y4512D01*
X9684Y3764D01*
X9676Y3636D01*
X9673Y3616D01*
X9672Y3611D01*
X9672Y3610D01*
X9671Y3608D01*
X9671Y3605D01*
X9671Y3602D01*
X9644Y3400D01*
Y2800D01*
X9672Y2590D01*
X9753Y2395D01*
X9882Y2227D01*
X10050Y2098D01*
X10245Y2017D01*
X10455Y1989D01*
X10665Y2017D01*
X10820Y2081D01*
X10830Y2083D01*
X10838Y2088D01*
X10860Y2098D01*
X10871Y2106D01*
X10877Y2108D01*
X10943Y2153D01*
X11008Y2189D01*
X11086Y2222D01*
X11175Y2252D01*
X11277Y2278D01*
X11391Y2300D01*
X11515Y2317D01*
X11806Y2338D01*
X11873Y2339D01*
X17677D01*
X17744Y2338D01*
X18035Y2317D01*
X18159Y2300D01*
X18273Y2278D01*
X18375Y2252D01*
X18464Y2222D01*
X18542Y2189D01*
X18607Y2153D01*
X18673Y2108D01*
X18679Y2106D01*
X18690Y2098D01*
X18712Y2088D01*
X18720Y2083D01*
X18730Y2081D01*
X18885Y2017D01*
X19095Y1989D01*
X19305Y2017D01*
X19500Y2098D01*
X19668Y2227D01*
X19797Y2395D01*
X19878Y2590D01*
X19906Y2800D01*
Y3400D01*
X19886Y3549D01*
X19887Y3551D01*
X19856Y4576D01*
Y5488D01*
X19866Y6236D01*
X19874Y6364D01*
X19877Y6384D01*
X19878Y6389D01*
X19878Y6390D01*
X19879Y6392D01*
X19879Y6395D01*
X19879Y6398D01*
X19906Y6600D01*
Y7200D01*
X19878Y7410D01*
X19797Y7605D01*
X19668Y7773D01*
X19500Y7902D01*
X19305Y7983D01*
X19095Y8011D01*
D02*
G37*
G36*
X40373Y6954D02*
X40228D01*
X39691Y6869D01*
X39174Y6701D01*
X38690Y6454D01*
X38250Y6135D01*
X37865Y5750D01*
X37546Y5310D01*
X37299Y4826D01*
X37131Y4309D01*
X37046Y3772D01*
Y3627D01*
X40373D01*
Y6954D01*
D02*
G37*
G36*
X36190Y2941D02*
X35213D01*
Y2439D01*
X35515Y2446D01*
X35933Y2488D01*
Y2684D01*
X35945Y2637D01*
X35981Y2595D01*
X36041Y2558D01*
X36125Y2525D01*
X36176Y2513D01*
X36190Y2514D01*
Y2941D01*
D02*
G37*
G36*
X34959D02*
X33982D01*
Y1964D01*
X34959D01*
Y2941D01*
D02*
G37*
G36*
X35213Y1234D02*
Y733D01*
X36190D01*
Y1164D01*
X36125Y1148D01*
X36041Y1116D01*
X35981Y1079D01*
X35945Y1037D01*
X35933Y990D01*
Y1221D01*
X35213Y1234D01*
D02*
G37*
G36*
X34959Y1710D02*
X33982D01*
Y733D01*
X34959D01*
Y1710D01*
D02*
G37*
G36*
X32691Y2941D02*
X32401D01*
X32120Y2865D01*
X31868Y2720D01*
X31663Y2514D01*
X31517Y2263D01*
X31442Y1982D01*
Y1691D01*
X31517Y1410D01*
X31663Y1159D01*
X31868Y953D01*
X32120Y808D01*
X32401Y733D01*
X32691D01*
X32972Y808D01*
X33224Y953D01*
X33429Y1159D01*
X33575Y1410D01*
X33650Y1691D01*
Y1982D01*
X33575Y2263D01*
X33429Y2514D01*
X33224Y2720D01*
X32972Y2865D01*
X32691Y2941D01*
D02*
G37*
G36*
X30151D02*
X29861D01*
X29580Y2865D01*
X29328Y2720D01*
X29123Y2514D01*
X28977Y2263D01*
X28902Y1982D01*
Y1691D01*
X28977Y1410D01*
X29123Y1159D01*
X29328Y953D01*
X29580Y808D01*
X29861Y733D01*
X30151D01*
X30432Y808D01*
X30684Y953D01*
X30889Y1159D01*
X31035Y1410D01*
X31110Y1691D01*
Y1982D01*
X31035Y2263D01*
X30889Y2514D01*
X30684Y2720D01*
X30432Y2865D01*
X30151Y2941D01*
D02*
G37*
%LPD*%
G36*
X12457Y32628D02*
X12498Y32602D01*
X12542Y32579D01*
X12589Y32559D01*
X12640Y32543D01*
X12693Y32529D01*
X12749Y32518D01*
X12809Y32511D01*
X12871Y32506D01*
X12937Y32505D01*
Y32348D01*
X12871Y32346D01*
X12749Y32334D01*
X12693Y32323D01*
X12640Y32310D01*
X12589Y32293D01*
X12542Y32273D01*
X12498Y32250D01*
X12457Y32225D01*
X12419Y32196D01*
Y32657D01*
X12457Y32628D01*
D02*
G37*
G36*
X25590Y22648D02*
X25581Y22644D01*
X25573Y22639D01*
X25566Y22631D01*
X25559Y22620D01*
X25555Y22608D01*
X25551Y22593D01*
X25548Y22576D01*
X25546Y22557D01*
X25546Y22536D01*
X25436D01*
X25435Y22557D01*
X25434Y22576D01*
X25431Y22593D01*
X25427Y22608D01*
X25422Y22620D01*
X25416Y22631D01*
X25409Y22639D01*
X25401Y22644D01*
X25392Y22648D01*
X25381Y22649D01*
X25601D01*
X25590Y22648D01*
D02*
G37*
G36*
X25346Y22264D02*
X25348Y22246D01*
X25351Y22229D01*
X25355Y22215D01*
X25359Y22203D01*
X25366Y22193D01*
X25373Y22185D01*
X25381Y22180D01*
X25390Y22176D01*
X25401Y22175D01*
X25181D01*
X25192Y22176D01*
X25201Y22180D01*
X25209Y22185D01*
X25216Y22193D01*
X25222Y22203D01*
X25227Y22215D01*
X25231Y22229D01*
X25234Y22246D01*
X25235Y22264D01*
X25236Y22285D01*
X25346D01*
X25346Y22264D01*
D02*
G37*
G36*
X25390Y21383D02*
X25381Y21380D01*
X25373Y21374D01*
X25366Y21366D01*
X25359Y21356D01*
X25355Y21344D01*
X25351Y21329D01*
X25348Y21312D01*
X25346Y21293D01*
X25346Y21272D01*
X25236D01*
X25235Y21293D01*
X25234Y21312D01*
X25231Y21329D01*
X25227Y21344D01*
X25222Y21356D01*
X25216Y21366D01*
X25209Y21374D01*
X25201Y21380D01*
X25192Y21383D01*
X25181Y21385D01*
X25401D01*
X25390Y21383D01*
D02*
G37*
G36*
X25346Y21043D02*
X25348Y21024D01*
X25351Y21007D01*
X25355Y20993D01*
X25359Y20980D01*
X25366Y20970D01*
X25373Y20962D01*
X25381Y20957D01*
X25390Y20953D01*
X25401Y20952D01*
X25181D01*
X25192Y20953D01*
X25201Y20957D01*
X25209Y20962D01*
X25216Y20970D01*
X25222Y20980D01*
X25227Y20993D01*
X25231Y21007D01*
X25234Y21024D01*
X25235Y21043D01*
X25236Y21065D01*
X25346D01*
X25346Y21043D01*
D02*
G37*
G36*
X27283Y20401D02*
X27281Y20416D01*
X27276Y20429D01*
X27268Y20441D01*
X27257Y20451D01*
X27243Y20460D01*
X27225Y20467D01*
X27204Y20473D01*
X27180Y20476D01*
X27153Y20479D01*
X27123Y20480D01*
Y20637D01*
X27153Y20637D01*
X27180Y20640D01*
X27204Y20644D01*
X27225Y20649D01*
X27243Y20656D01*
X27257Y20665D01*
X27268Y20675D01*
X27276Y20687D01*
X27281Y20700D01*
X27283Y20715D01*
Y20401D01*
D02*
G37*
G36*
X32219Y7065D02*
X32195Y7085D01*
X32167Y7096D01*
X32136Y7100D01*
X32102Y7096D01*
X32065Y7084D01*
X32025Y7065D01*
X31982Y7038D01*
X31935Y7003D01*
X31886Y6961D01*
X31833Y6910D01*
X31600Y7143D01*
X31651Y7196D01*
X31693Y7245D01*
X31728Y7292D01*
X31755Y7335D01*
X31774Y7375D01*
X31786Y7412D01*
X31790Y7446D01*
X31786Y7477D01*
X31775Y7505D01*
X31755Y7529D01*
X32219Y7065D01*
D02*
G37*
G36*
X30940Y6017D02*
X30889Y5964D01*
X30847Y5915D01*
X30812Y5868D01*
X30785Y5825D01*
X30766Y5785D01*
X30754Y5748D01*
X30750Y5714D01*
X30754Y5683D01*
X30765Y5655D01*
X30785Y5631D01*
X30321Y6095D01*
X30345Y6075D01*
X30373Y6064D01*
X30404Y6060D01*
X30438Y6064D01*
X30475Y6076D01*
X30515Y6095D01*
X30558Y6122D01*
X30605Y6157D01*
X30654Y6199D01*
X30707Y6250D01*
X30940Y6017D01*
D02*
G37*
G36*
X28212Y7449D02*
X28181Y7358D01*
X28154Y7250D01*
X28131Y7127D01*
X28095Y6833D01*
X28084Y6662D01*
X28131Y6033D01*
X28154Y5910D01*
X28181Y5802D01*
X28212Y5711D01*
X28246Y5636D01*
X26674D01*
X26710Y5715D01*
X26743Y5810D01*
X26772Y5920D01*
X26797Y6045D01*
X26835Y6342D01*
X26847Y6524D01*
X26818Y6974D01*
X26797Y7115D01*
X26743Y7350D01*
X26710Y7445D01*
X26674Y7524D01*
X28246D01*
X28212Y7449D01*
D02*
G37*
G36*
X19622Y6432D02*
X19616Y6389D01*
X19607Y6246D01*
X19595Y5378D01*
X18595D01*
X18562Y6457D01*
X19628D01*
X19622Y6432D01*
D02*
G37*
G36*
X10982D02*
X10976Y6389D01*
X10967Y6246D01*
X10955Y5378D01*
X9955D01*
X9922Y6457D01*
X10988D01*
X10982Y6432D01*
D02*
G37*
G36*
X19628Y3543D02*
X18819D01*
Y2322D01*
X18742Y2375D01*
X18654Y2422D01*
X18556Y2464D01*
X18448Y2500D01*
X18330Y2531D01*
X18201Y2556D01*
X18063Y2575D01*
X17755Y2597D01*
X17586Y2600D01*
Y3600D01*
X17755Y3603D01*
X18063Y3625D01*
X18201Y3644D01*
X18330Y3669D01*
X18448Y3700D01*
X18556Y3736D01*
X18583Y3747D01*
X18583Y3754D01*
X18595Y4622D01*
X19595D01*
X19628Y3543D01*
D02*
G37*
G36*
X10982Y3741D02*
X10994Y3736D01*
X11102Y3700D01*
X11220Y3669D01*
X11349Y3644D01*
X11487Y3625D01*
X11795Y3603D01*
X11964Y3600D01*
Y2600D01*
X11795Y2597D01*
X11487Y2575D01*
X11349Y2556D01*
X11220Y2531D01*
X11102Y2500D01*
X10994Y2464D01*
X10896Y2422D01*
X10808Y2375D01*
X10731Y2322D01*
Y3543D01*
X9922D01*
X9928Y3568D01*
X9934Y3611D01*
X9943Y3754D01*
X9955Y4622D01*
X10955D01*
X10982Y3741D01*
D02*
G37*
D10*
X23791Y20408D02*
Y20558D01*
X24536Y19647D02*
Y19663D01*
X23791Y20408D02*
X24536Y19663D01*
X15519Y27278D02*
X16439Y28198D01*
X13230Y27278D02*
X15519D01*
X8639Y24500D02*
X9247D01*
X7200D02*
X8639D01*
Y26444D02*
X9481Y27286D01*
X8639Y24500D02*
Y26444D01*
X9481Y27286D02*
X11072D01*
X9247Y24500D02*
X14771Y18976D01*
Y16805D02*
Y18976D01*
X13230Y16823D02*
X13248Y16805D01*
X14771D01*
X11072Y27286D02*
X11080Y27278D01*
X14439Y12924D02*
Y14646D01*
X14771Y14978D01*
Y15505D01*
X10110Y16832D02*
X10119Y16823D01*
X11080D01*
X9472Y28576D02*
X9481Y28586D01*
X8473Y28566D02*
X8482Y28576D01*
X9472D01*
X10230Y29285D02*
Y29737D01*
X9531Y28586D02*
X10230Y29285D01*
X9481Y28586D02*
X9531D01*
D11*
X30000Y5310D02*
X32540Y7850D01*
D25*
X13230Y28228D02*
D03*
X11080Y15873D02*
D03*
D26*
Y28228D02*
D03*
X13230Y27278D02*
D03*
Y26328D02*
D03*
X11080D02*
D03*
Y27278D02*
D03*
Y16823D02*
D03*
Y17773D02*
D03*
X13230D02*
D03*
Y16823D02*
D03*
Y15873D02*
D03*
D28*
X29027Y21778D02*
D03*
X27527D02*
D03*
X23791D02*
D03*
X25291D02*
D03*
X25291Y20558D02*
D03*
X23791D02*
D03*
X23791Y26477D02*
D03*
X25291D02*
D03*
X27527Y20558D02*
D03*
X29027D02*
D03*
X31263Y21778D02*
D03*
X32763D02*
D03*
X31263Y20558D02*
D03*
X32763D02*
D03*
D33*
X14771Y16805D02*
D03*
Y15505D02*
D03*
X9481Y28586D02*
D03*
Y27286D02*
D03*
D37*
X27466Y5245D02*
Y7785D01*
X35086Y1837D02*
X38837D01*
X4660Y24500D02*
X7200D01*
X4660Y9500D02*
X7200D01*
X38837Y1837D02*
X40500Y3500D01*
X4660Y17120D02*
X7200D01*
D38*
X30059Y13812D02*
X31831Y12040D01*
X28685Y15186D02*
X30059Y13812D01*
X29368Y15422D02*
X30059D01*
X28989Y15800D02*
X29368Y15422D01*
X28989Y15800D02*
Y18778D01*
X38055Y13325D02*
X42325D01*
X42400Y13400D01*
X36800Y11989D02*
X38489Y10300D01*
X41800D01*
X36800Y11989D02*
Y12040D01*
X1172Y9617D02*
X3491Y7298D01*
X1172Y9617D02*
Y31017D01*
X3330Y33176D01*
X28277Y24972D02*
X29010D01*
X29770Y20129D02*
Y24212D01*
X29010Y24972D02*
X29770Y24212D01*
X28685Y19044D02*
X29770Y20129D01*
X28685Y15186D02*
Y19044D01*
X28989Y18778D02*
X29667Y19456D01*
X30120Y21163D02*
X30724Y20558D01*
X30120Y21163D02*
Y25864D01*
X21576Y34407D02*
X30120Y25864D01*
X30724Y20558D02*
X31263D01*
X12157Y34407D02*
X21576D01*
X26319Y21281D02*
Y28177D01*
X27042Y20558D02*
X27527D01*
X26319Y21281D02*
X27042Y20558D01*
X22071Y32426D02*
X26319Y28177D01*
X12227Y32426D02*
X22071D01*
X25291Y26477D02*
Y27280D01*
X22129Y30443D02*
X25291Y27280D01*
X12329Y30443D02*
X22129D01*
X3330Y33176D02*
X9625D01*
X11818Y30982D01*
X32013Y24972D02*
X32804D01*
X33760Y20445D02*
Y24016D01*
X32804Y24972D02*
X33760Y24016D01*
X29667Y19456D02*
X32770D01*
X33760Y20445D01*
X25291Y25217D02*
Y26477D01*
X24541Y24972D02*
X25046D01*
X25291Y25217D01*
X30441Y15804D02*
X37831D01*
X30059Y15422D02*
X30441Y15804D01*
X37831D02*
X39054Y14580D01*
X39340D01*
X31831Y12040D02*
X36800D01*
X42254Y14612D02*
X42286Y14644D01*
X39372Y14612D02*
X42254D01*
X36800Y14580D02*
X38055Y13325D01*
X39340Y14580D02*
X39372Y14612D01*
X3491Y7298D02*
X6447D01*
X8693Y5052D01*
Y2361D02*
Y5052D01*
Y2361D02*
X10428Y627D01*
X26256D01*
X27466Y1837D01*
X9145Y2276D02*
X10535Y886D01*
X7000Y7685D02*
X9145Y5541D01*
Y2276D02*
Y5541D01*
X23735Y3028D02*
X24926Y1837D01*
X21331Y3028D02*
X23735D01*
X19189Y886D02*
X21331Y3028D01*
X10535Y886D02*
X19189D01*
X3469Y7685D02*
X7000D01*
X1769Y9386D02*
X3469Y7685D01*
X1769Y9386D02*
Y27147D01*
D39*
X36800Y9500D02*
X36801Y9501D01*
X40768D02*
X40770Y9502D01*
X36801Y9501D02*
X40768D01*
X42535Y19641D02*
X43301Y20407D01*
X39359Y19641D02*
X42535D01*
X39340Y19660D02*
X39359Y19641D01*
X37805Y21195D02*
X39340Y19660D01*
X38465Y15830D02*
X42586D01*
X42596Y15839D01*
X23791Y21778D02*
Y22305D01*
X23789D02*
X23791D01*
X23591Y22504D02*
X23789Y22305D01*
X23591Y22504D02*
Y23171D01*
X23745Y26431D02*
X23791Y26477D01*
X23745Y25027D02*
Y26431D01*
X23591Y24874D02*
X23745Y25027D01*
X23591Y23171D02*
Y24874D01*
X23129Y21117D02*
X23791Y21778D01*
X23129Y19100D02*
Y21117D01*
X35322Y21195D02*
X37805D01*
X32769Y18641D02*
X35322Y21195D01*
X30059Y18641D02*
X32769D01*
X23129Y19100D02*
X24981Y17248D01*
X43076Y18522D02*
X43109Y18555D01*
X38418Y18522D02*
X43076D01*
X37281Y19660D02*
X38418Y18522D01*
X36800Y19660D02*
X37281D01*
X36800Y17120D02*
X37174D01*
X38465Y15830D01*
X34720Y19660D02*
X36800D01*
X32091Y17032D02*
X34720Y19660D01*
X30059Y17032D02*
X32091D01*
X42867Y17106D02*
X42890Y17129D01*
X39354Y17106D02*
X42867D01*
X39340Y17120D02*
X39354Y17106D01*
D41*
X10455Y3100D02*
X19095D01*
Y6900D01*
X10455Y3100D02*
Y6900D01*
X4660Y32120D02*
X7200D01*
D42*
X25291Y20558D02*
Y22316D01*
X25491Y22516D01*
Y23171D01*
X32763Y21778D02*
Y22316D01*
Y20558D02*
Y21778D01*
Y22316D02*
X32963Y22516D01*
Y23171D01*
X29027Y21778D02*
Y22316D01*
Y20558D02*
Y21778D01*
Y22316D02*
X29227Y22516D01*
Y23171D01*
D43*
X39340Y12040D02*
X39429Y12129D01*
X41768D01*
D46*
X19095Y3100D02*
D03*
X10455D02*
D03*
X19095Y6900D02*
D03*
X10455D02*
D03*
D47*
X39340Y12040D02*
D03*
X36800D02*
D03*
X39340Y14580D02*
D03*
X36800D02*
D03*
X39340Y17120D02*
D03*
X36800D02*
D03*
X39340Y19660D02*
D03*
X36800Y9500D02*
D03*
X4660Y24500D02*
D03*
X7200Y27040D02*
D03*
X4660D02*
D03*
X7200Y29580D02*
D03*
X4660D02*
D03*
X7200Y32120D02*
D03*
X4660D02*
D03*
Y34660D02*
D03*
X36800Y24500D02*
D03*
X39340Y34660D02*
D03*
X36800Y32120D02*
D03*
X39340D02*
D03*
X36800Y29580D02*
D03*
X39340D02*
D03*
X36800Y27040D02*
D03*
X39340D02*
D03*
X4660Y9500D02*
D03*
X7200Y12040D02*
D03*
X4660D02*
D03*
X7200Y14580D02*
D03*
X4660D02*
D03*
X7200Y17120D02*
D03*
X4660D02*
D03*
Y19660D02*
D03*
D48*
X36800D02*
D03*
X7200Y24500D02*
D03*
X36800Y34660D02*
D03*
X7200Y9500D02*
D03*
D49*
X24920Y5310D02*
D03*
X35086Y1837D02*
D03*
D50*
X24920Y7850D02*
D03*
X27460Y5310D02*
D03*
Y7850D02*
D03*
X30000Y5310D02*
D03*
Y7850D02*
D03*
X32540Y5310D02*
D03*
Y7850D02*
D03*
X30006Y1837D02*
D03*
X32546D02*
D03*
X22386D02*
D03*
X24926D02*
D03*
X27466D02*
D03*
D51*
X3500Y40500D02*
D03*
Y3500D02*
D03*
X40500Y40500D02*
D03*
Y3500D02*
D03*
D52*
X3500Y38100D02*
D03*
X1803Y38803D02*
D03*
X1100Y40500D02*
D03*
X1803Y42197D02*
D03*
X3500Y42900D02*
D03*
X5197Y42197D02*
D03*
X5900Y40500D02*
D03*
X5197Y38803D02*
D03*
Y1803D02*
D03*
X5900Y3500D02*
D03*
X5197Y5197D02*
D03*
X3500Y5900D02*
D03*
X1803Y5197D02*
D03*
X1100Y3500D02*
D03*
X1803Y1803D02*
D03*
X3500Y1100D02*
D03*
X42197Y38803D02*
D03*
X42900Y40500D02*
D03*
X42197Y42197D02*
D03*
X40500Y42900D02*
D03*
X38803Y42197D02*
D03*
X38100Y40500D02*
D03*
X38803Y38803D02*
D03*
X40500Y38100D02*
D03*
X42197Y1803D02*
D03*
X42900Y3500D02*
D03*
X42197Y5197D02*
D03*
X40500Y5900D02*
D03*
X38803Y5197D02*
D03*
X38100Y3500D02*
D03*
X38803Y1803D02*
D03*
X40500Y1100D02*
D03*
D53*
X30059Y13812D02*
D03*
X40770Y9502D02*
D03*
X43301Y20407D02*
D03*
X29701Y16226D02*
D03*
X43109Y18555D02*
D03*
X42596Y15839D02*
D03*
X42400Y13400D02*
D03*
X43000Y14050D02*
D03*
X41800Y10300D02*
D03*
X9850Y22675D02*
D03*
X9100Y22651D02*
D03*
X12329Y30443D02*
D03*
X11818Y30982D02*
D03*
X25148Y18083D02*
D03*
X24536Y19647D02*
D03*
X24981Y17248D02*
D03*
X30059Y17032D02*
D03*
Y17836D02*
D03*
Y18641D02*
D03*
X41131Y8591D02*
D03*
X41808Y9498D02*
D03*
X41965Y11225D02*
D03*
X42539Y12604D02*
D03*
X43081Y15117D02*
D03*
X43264Y16366D02*
D03*
X42286Y14644D02*
D03*
X41768Y12129D02*
D03*
X42890Y17129D02*
D03*
X30059Y15422D02*
D03*
X27612Y16027D02*
D03*
X32513Y42928D02*
D03*
X1769Y27147D02*
D03*
X2521Y26452D02*
D03*
X8616Y32128D02*
D03*
X2997Y32127D02*
D03*
X17057Y28816D02*
D03*
X16439Y28198D02*
D03*
X17057D02*
D03*
X16439Y28816D02*
D03*
X12227Y32426D02*
D03*
X12157Y34407D02*
D03*
X8842Y39973D02*
D03*
X24700Y13870D02*
D03*
X21676Y16019D02*
D03*
X6999Y5227D02*
D03*
X6973Y2008D02*
D03*
X8188Y4018D02*
D03*
X7025Y6006D02*
D03*
X17626Y20173D02*
D03*
X18386Y20729D02*
D03*
X9794Y25298D02*
D03*
X9922Y25995D02*
D03*
X9286Y18937D02*
D03*
X9429Y17957D02*
D03*
X9945Y17548D02*
D03*
X14439Y12924D02*
D03*
X10110Y16832D02*
D03*
X8473Y28566D02*
D03*
X10230Y29737D02*
D03*
X16702Y20132D02*
D03*
X22065Y13917D02*
D03*
X21055Y10314D02*
D03*
X17528Y5909D02*
D03*
X12014Y5887D02*
D03*
X13061Y9855D02*
D03*
X12068Y8618D02*
D03*
D54*
X5870Y11911D02*
G03*
X4820Y14420I-3590J-28D01*
G01*
X5901Y11729D02*
G03*
X6190Y11283I1363J566D01*
G01*
X5886Y11785D02*
G03*
X5901Y11729I211J27D01*
G01*
X6972Y10617D02*
G03*
X6975Y10617I4J340D01*
G01*
X5864Y11077D02*
G03*
X5865Y11076I240J240D01*
G01*
X6895Y10973D02*
G03*
X6975Y10957I81J197D01*
G01*
X5865Y11076D02*
G03*
X6044Y10956I391J391D01*
G01*
X6765Y10658D02*
G03*
X6972Y10617I211J511D01*
G01*
X3882Y25941D02*
G03*
X2994Y25574I0J-1256D01*
G01*
X5137Y25941D02*
G03*
X5553Y26112I0J593D01*
G01*
X3882Y25602D02*
G03*
X3234Y25333I0J-916D01*
G01*
X5237Y25602D02*
G03*
X5908Y25879I0J951D01*
G01*
X5553Y26112D02*
G03*
X5851Y26826I-709J714D01*
G01*
X15629Y12069D02*
G03*
X16255Y13579I-1511J1511D01*
G01*
X12984Y10617D02*
G03*
X15020Y11460I0J2880D01*
G01*
X12984Y10957D02*
G03*
X14778Y11699I0J2540D01*
G01*
X12353Y28241D02*
G03*
X9557Y31037I-2796J0D01*
G01*
X14778Y11699D02*
G03*
X14780Y11700I-1794J1798D01*
G01*
X12353Y24462D02*
G03*
X12787Y23414I1482J0D01*
G01*
X12013Y28241D02*
G03*
X9557Y30697I-2456J0D01*
G01*
X16255Y18753D02*
G03*
X15411Y20790I-2880J0D01*
G01*
X15915Y18753D02*
G03*
X15171Y20549I-2540J0D01*
G01*
X15389Y12309D02*
G03*
X15915Y13579I-1270J1270D01*
G01*
X12013Y24462D02*
G03*
X12546Y23174I1822J0D01*
G01*
X3797Y30697D02*
G03*
X2670Y29569I0J-1127D01*
G01*
X3106Y28480D02*
G03*
X3881Y28801I0J1095D01*
G01*
X2670Y28790D02*
G03*
X2980Y28480I310J0D01*
G01*
X3797Y31037D02*
G03*
X2330Y29569I0J-1467D01*
G01*
X3881Y27819D02*
G03*
X3106Y28140I-775J-775D01*
G01*
X2330Y28790D02*
G03*
X2980Y28140I650J0D01*
G01*
X6595Y28975D02*
G03*
X5851Y27179I1796J-1796D01*
G01*
X9258Y21414D02*
G03*
X9257Y21414I0J-340D01*
G01*
X9257Y21074D02*
G03*
X9258Y21074I1J340D01*
G01*
X10302Y20981D02*
G03*
X9258Y21414I-1044J-1044D01*
G01*
X2869Y21919D02*
X2870Y21919D01*
X2373Y23116D02*
G03*
X2373Y23114I169J16D01*
G01*
X4831Y21074D02*
G03*
X4819Y21073I1J-213D01*
G01*
X4787Y21413D02*
G03*
X4800Y21413I1J213D01*
G01*
X2711Y23148D02*
G03*
X3134Y22133I1942J212D01*
G01*
X4831Y21414D02*
G03*
X4800Y21413I1J-553D01*
G01*
X2870Y21919D02*
G03*
X4804Y21073I1783J1442D01*
G01*
X3134Y22133D02*
G03*
X4782Y21413I1519J1232D01*
G01*
X2370Y23168D02*
G03*
X2373Y23116I553J2D01*
G01*
X2710Y23169D02*
G03*
X2711Y23148I213J1D01*
G01*
X2373Y23114D02*
G03*
X2869Y21919I2280J247D01*
G01*
X10061Y20741D02*
G03*
X9258Y21074I-803J-803D01*
G01*
X2792Y25373D02*
G03*
X2368Y24293I1026J-1026D01*
G01*
X2710Y24241D02*
G03*
X2710Y24261I-553J0D01*
G01*
X3033Y25132D02*
G03*
X2708Y24306I786J-786D01*
G01*
X2370Y24241D02*
G03*
X2370Y24250I-213J0D01*
G01*
X13230Y15873D02*
G03*
X12701Y15654I0J-748D01*
G01*
X12338Y18330D02*
G03*
X11903Y19380I-1486J0D01*
G01*
X12601Y15553D02*
G03*
X12338Y14919I634J-634D01*
G01*
X12139Y14438D02*
G03*
X12338Y14919I-481J481D01*
G01*
X10134Y13140D02*
G03*
X11339Y13639I0J1706D01*
G01*
X9352Y13140D02*
G03*
X7556Y12396I0J-2540D01*
G01*
X11998Y18330D02*
G03*
X11663Y19140I-1146J0D01*
G01*
X11987Y14938D02*
G03*
X11998Y15060I-669J122D01*
G01*
X11609Y15654D02*
G03*
X11080Y15873I-529J-529D01*
G01*
X11799Y14580D02*
G03*
X11987Y14938I-481J480D01*
G01*
X11987Y14938D02*
G03*
X11655Y15608I-1162J-160D01*
G01*
X7622Y14158D02*
G03*
X9260Y13480I1638J1640D01*
G01*
X9993D02*
G03*
X11198Y13979I0J1706D01*
G01*
X11339Y13639D02*
G03*
X11340Y13640I-1205J1207D01*
G01*
X11799Y14579D02*
X11799Y14580D01*
X11198Y13979D02*
G03*
X11199Y13980I-1205J1207D01*
G01*
X7621Y14159D02*
G03*
X7622Y14158I1639J1639D01*
G01*
X6222Y11251D02*
X6335Y11204D01*
X6895Y10973D01*
X5870Y11911D02*
X5886Y11785D01*
X6190Y11283D02*
X6192Y11281D01*
X6192Y11281D02*
X6222Y11251D01*
X6975Y10617D02*
X12984D01*
X4901Y12040D02*
X5864Y11077D01*
X6044Y10956D02*
X6765Y10658D01*
X6975Y10957D02*
X12984D01*
X3882Y25602D02*
X5237D01*
X3882Y25941D02*
X5137D01*
X5908Y25879D02*
X7069Y27040D01*
X12353Y28241D02*
X12365Y28228D01*
X15020Y11460D02*
X15629Y12069D01*
X3797Y31037D02*
X9557D01*
X11080Y28228D02*
X12000D01*
X12787Y23414D02*
X15411Y20790D01*
X12353Y24462D02*
Y28241D01*
X16255Y13579D02*
Y18753D01*
X12365Y28228D02*
X13230D01*
X15915Y13579D02*
Y18753D01*
X3797Y30697D02*
X9557D01*
X12000Y28228D02*
X12013Y28241D01*
X12546Y23174D02*
X15171Y20549D01*
X14780Y11700D02*
X15389Y12309D01*
X12013Y24462D02*
Y28241D01*
X3881Y28801D02*
X4660Y29580D01*
X2670Y28790D02*
Y29569D01*
X2980Y28480D02*
X3106D01*
X3881Y27819D02*
X4660Y27040D01*
X2330Y28790D02*
Y29569D01*
X2980Y28140D02*
X3106D01*
X4660Y12040D02*
X4901D01*
X3033Y25132D02*
X3234Y25333D01*
X5851Y26826D02*
X5851Y26828D01*
X7069Y27040D02*
X7200D01*
X5851Y26828D02*
Y27179D01*
X6595Y28975D02*
X7200Y29580D01*
X2370Y23168D02*
Y24241D01*
X4831Y21074D02*
X9257D01*
X2710Y23169D02*
Y24241D01*
X4782Y21413D02*
X4787Y21413D01*
X4831Y21414D02*
X9257D01*
X4804Y21073D02*
X4819Y21073D01*
X2792Y25373D02*
X2994Y25574D01*
X2708Y24306D02*
X2710Y24261D01*
X2368Y24293D02*
X2370Y24250D01*
X12601Y15553D02*
X12701Y15654D01*
X10302Y20981D02*
X11903Y19380D01*
X12338Y14919D02*
Y18330D01*
X11340Y13640D02*
X12139Y14438D01*
X9352Y13140D02*
X10134D01*
X7200Y12040D02*
X7556Y12396D01*
X11998Y15060D02*
Y18330D01*
X10061Y20741D02*
X11663Y19140D01*
X11609Y15654D02*
X11655Y15608D01*
X9260Y13480D02*
X9993D01*
X11199Y13980D02*
X11799Y14579D01*
X7200Y14580D02*
X7621Y14159D01*
D55*
X6192Y11281D02*
D03*
X2711Y23148D02*
D03*
X11903Y19380D02*
D03*
D56*
X25491Y23171D02*
D03*
X29227D02*
D03*
X32963D02*
D03*
D57*
X23591D02*
D03*
X24541Y24972D02*
D03*
X28277D02*
D03*
X27327Y23171D02*
D03*
X32013Y24972D02*
D03*
X31062Y23171D02*
D03*
%TF.MD5,b876ce403aec7b98a1f9153f8a544ba6*%
M02*
