%TF.GenerationSoftware,Altium Limited,Altium Designer,25.1.2 (22)*%
G04 Layer_Color=16711935*
%FSLAX43Y43*%
%MOMM*%
%TF.SameCoordinates,C73E9825-E1A6-41E5-9903-38CA47DD4C8D*%
%TF.FilePolarity,Negative*%
%TF.FileFunction,Soldermask,Bot*%
%TF.Part,Single*%
G01*
G75*
%TA.AperFunction,SMDPad,CuDef*%
G04:AMPARAMS|DCode=61|XSize=1.133mm|YSize=0.608mm|CornerRadius=0.131mm|HoleSize=0mm|Usage=FLASHONLY|Rotation=270.000|XOffset=0mm|YOffset=0mm|HoleType=Round|Shape=RoundedRectangle|*
%AMROUNDEDRECTD61*
21,1,1.133,0.346,0,0,270.0*
21,1,0.871,0.608,0,0,270.0*
1,1,0.262,-0.173,-0.435*
1,1,0.262,-0.173,0.435*
1,1,0.262,0.173,0.435*
1,1,0.262,0.173,-0.435*
%
%ADD61ROUNDEDRECTD61*%
%ADD62R,0.608X1.133*%
%ADD63R,0.876X0.576*%
%ADD64R,0.576X0.876*%
%ADD65R,1.133X0.608*%
G04:AMPARAMS|DCode=66|XSize=1.133mm|YSize=0.608mm|CornerRadius=0.131mm|HoleSize=0mm|Usage=FLASHONLY|Rotation=180.000|XOffset=0mm|YOffset=0mm|HoleType=Round|Shape=RoundedRectangle|*
%AMROUNDEDRECTD66*
21,1,1.133,0.346,0,0,180.0*
21,1,0.871,0.608,0,0,180.0*
1,1,0.262,-0.435,0.173*
1,1,0.262,0.435,0.173*
1,1,0.262,0.435,-0.173*
1,1,0.262,-0.435,-0.173*
%
%ADD66ROUNDEDRECTD66*%
%ADD67R,0.976X0.876*%
%TA.AperFunction,ComponentPad*%
G04:AMPARAMS|DCode=68|XSize=1.776mm|YSize=1.776mm|CornerRadius=0.888mm|HoleSize=0mm|Usage=FLASHONLY|Rotation=0.000|XOffset=0mm|YOffset=0mm|HoleType=Round|Shape=RoundedRectangle|*
%AMROUNDEDRECTD68*
21,1,1.776,0.000,0,0,0.0*
21,1,0.000,1.776,0,0,0.0*
1,1,1.776,0.000,0.000*
1,1,1.776,0.000,0.000*
1,1,1.776,0.000,0.000*
1,1,1.776,0.000,0.000*
%
%ADD68ROUNDEDRECTD68*%
%ADD69C,1.776*%
%ADD70R,1.776X1.776*%
G04:AMPARAMS|DCode=71|XSize=1.776mm|YSize=1.776mm|CornerRadius=0.888mm|HoleSize=0mm|Usage=FLASHONLY|Rotation=90.000|XOffset=0mm|YOffset=0mm|HoleType=Round|Shape=RoundedRectangle|*
%AMROUNDEDRECTD71*
21,1,1.776,0.000,0,0,90.0*
21,1,0.000,1.776,0,0,90.0*
1,1,1.776,0.000,0.000*
1,1,1.776,0.000,0.000*
1,1,1.776,0.000,0.000*
1,1,1.776,0.000,0.000*
%
%ADD71ROUNDEDRECTD71*%
%ADD72R,1.776X1.776*%
G04:AMPARAMS|DCode=73|XSize=1.176mm|YSize=1.776mm|CornerRadius=0.588mm|HoleSize=0mm|Usage=FLASHONLY|Rotation=0.000|XOffset=0mm|YOffset=0mm|HoleType=Round|Shape=RoundedRectangle|*
%AMROUNDEDRECTD73*
21,1,1.176,0.600,0,0,0.0*
21,1,0.000,1.776,0,0,0.0*
1,1,1.176,0.000,-0.300*
1,1,1.176,0.000,-0.300*
1,1,1.176,0.000,0.300*
1,1,1.176,0.000,0.300*
%
%ADD73ROUNDEDRECTD73*%
%ADD74C,1.076*%
D61*
X21070Y14062D02*
D03*
X20120Y12261D02*
D03*
D62*
X19170Y14062D02*
D03*
D63*
X22428Y19327D02*
D03*
Y17827D02*
D03*
X14125Y17900D02*
D03*
Y19400D02*
D03*
X18240Y19325D02*
D03*
Y17825D02*
D03*
X25008Y27194D02*
D03*
Y28694D02*
D03*
X23646D02*
D03*
Y27194D02*
D03*
X21001Y17825D02*
D03*
Y19325D02*
D03*
X16860Y17825D02*
D03*
Y19325D02*
D03*
X19621Y17825D02*
D03*
Y19325D02*
D03*
X26371Y21894D02*
D03*
Y20394D02*
D03*
Y27194D02*
D03*
Y28694D02*
D03*
X25008Y20394D02*
D03*
Y21894D02*
D03*
X26371Y23794D02*
D03*
Y25294D02*
D03*
X25008Y23794D02*
D03*
Y25294D02*
D03*
D64*
X20120Y8200D02*
D03*
X18620D02*
D03*
X15040D02*
D03*
X16540D02*
D03*
D65*
X29873Y21894D02*
D03*
Y25294D02*
D03*
Y28694D02*
D03*
D66*
Y19994D02*
D03*
X28072Y20944D02*
D03*
X29873Y23394D02*
D03*
X28072Y24344D02*
D03*
Y27744D02*
D03*
X29873Y26794D02*
D03*
D67*
X15480Y19325D02*
D03*
Y18025D02*
D03*
D68*
X39340Y17120D02*
D03*
X36800D02*
D03*
X39340Y14580D02*
D03*
Y12040D02*
D03*
X36800D02*
D03*
Y14580D02*
D03*
Y9500D02*
D03*
X10500Y29580D02*
D03*
Y32120D02*
D03*
Y21960D02*
D03*
Y24500D02*
D03*
Y27040D02*
D03*
X7200Y34660D02*
D03*
X4660Y24500D02*
D03*
X7200Y27040D02*
D03*
X4660D02*
D03*
X7200Y29580D02*
D03*
X4660D02*
D03*
X7200Y32120D02*
D03*
X4660D02*
D03*
Y9500D02*
D03*
X7200Y12040D02*
D03*
X4660D02*
D03*
X7200Y14580D02*
D03*
X4660D02*
D03*
X7200Y17120D02*
D03*
X4660D02*
D03*
Y19660D02*
D03*
X39340Y34660D02*
D03*
X36800Y24500D02*
D03*
X39340Y27040D02*
D03*
X36800D02*
D03*
X39340Y29580D02*
D03*
X36800D02*
D03*
X39340Y32120D02*
D03*
X36800D02*
D03*
D69*
Y19660D02*
D03*
D70*
X39340Y9500D02*
D03*
X10500Y34660D02*
D03*
X7200Y24500D02*
D03*
Y9500D02*
D03*
X39340Y24500D02*
D03*
D71*
X20120Y10000D02*
D03*
X17580D02*
D03*
X15040D02*
D03*
X12500Y6540D02*
D03*
X15040Y4000D02*
D03*
Y6540D02*
D03*
X17580Y4000D02*
D03*
Y6540D02*
D03*
X20120Y4000D02*
D03*
Y6540D02*
D03*
D72*
X12500Y10000D02*
D03*
Y4000D02*
D03*
D73*
X32320Y3650D02*
D03*
X23680D02*
D03*
X32320Y7450D02*
D03*
X23680D02*
D03*
D74*
X5197Y38803D02*
D03*
X5900Y40500D02*
D03*
X5197Y42197D02*
D03*
X3500Y42900D02*
D03*
X1803Y42197D02*
D03*
X1100Y40500D02*
D03*
X1803Y38803D02*
D03*
X3500Y38100D02*
D03*
X42197Y38803D02*
D03*
X42900Y40500D02*
D03*
X42197Y42197D02*
D03*
X40500Y42900D02*
D03*
X38803Y42197D02*
D03*
X38100Y40500D02*
D03*
X38803Y38803D02*
D03*
X40500Y38100D02*
D03*
X42197Y1803D02*
D03*
X42900Y3500D02*
D03*
X42197Y5197D02*
D03*
X40500Y5900D02*
D03*
X38803Y5197D02*
D03*
X38100Y3500D02*
D03*
X38803Y1803D02*
D03*
X40500Y1100D02*
D03*
X5197Y1803D02*
D03*
X5900Y3500D02*
D03*
X5197Y5197D02*
D03*
X3500Y5900D02*
D03*
X1803Y5197D02*
D03*
X1100Y3500D02*
D03*
X1803Y1803D02*
D03*
X3500Y1100D02*
D03*
%TF.MD5,13ddb6fafc248272bcdd78edb06fd30d*%
M02*
