%TF.GenerationSoftware,Altium Limited,Altium Designer,25.1.2 (22)*%
G04 Layer_Color=0*
%FSLAX43Y43*%
%MOMM*%
%TF.SameCoordinates,30ACFE5D-B22B-494A-8854-B944D40A9612*%
%TF.FilePolarity,Positive*%
%TF.FileFunction,Plated,1,2,PTH,Drill*%
%TF.Part,Single*%
G01*
G75*
%TA.AperFunction,ComponentDrill*%
%ADD43C,1.000*%
%ADD44C,1.000*%
%ADD45O,0.600X1.200*%
%ADD46C,0.500*%
%ADD47C,3.200*%
%TA.AperFunction,ViaDrill,NotFilled*%
%ADD48C,0.300*%
D43*
X39340Y17120D02*
D03*
X36800Y19660D02*
D03*
Y17120D02*
D03*
X39340Y9500D02*
D03*
Y14580D02*
D03*
Y12040D02*
D03*
X36800D02*
D03*
Y14580D02*
D03*
Y9500D02*
D03*
X10500Y29580D02*
D03*
Y32120D02*
D03*
Y21960D02*
D03*
Y24500D02*
D03*
Y27040D02*
D03*
Y34660D02*
D03*
X7200D02*
D03*
Y24500D02*
D03*
X4660D02*
D03*
X7200Y27040D02*
D03*
X4660D02*
D03*
X7200Y29580D02*
D03*
X4660D02*
D03*
X7200Y32120D02*
D03*
X4660D02*
D03*
X7200Y9500D02*
D03*
X4660D02*
D03*
X7200Y12040D02*
D03*
X4660D02*
D03*
X7200Y14580D02*
D03*
X4660D02*
D03*
X7200Y17120D02*
D03*
X4660D02*
D03*
Y19660D02*
D03*
X39340Y34660D02*
D03*
Y24500D02*
D03*
X36800D02*
D03*
X39340Y27040D02*
D03*
X36800D02*
D03*
X39340Y29580D02*
D03*
X36800D02*
D03*
X39340Y32120D02*
D03*
X36800D02*
D03*
D44*
X20120Y10000D02*
D03*
X17580D02*
D03*
X15040D02*
D03*
X12500D02*
D03*
Y4000D02*
D03*
Y6540D02*
D03*
X15040Y4000D02*
D03*
Y6540D02*
D03*
X17580Y4000D02*
D03*
Y6540D02*
D03*
X20120Y4000D02*
D03*
Y6540D02*
D03*
D45*
X32320Y3650D02*
D03*
X23680D02*
D03*
X32320Y7450D02*
D03*
X23680D02*
D03*
D46*
X5197Y38803D02*
D03*
X5900Y40500D02*
D03*
X5197Y42197D02*
D03*
X3500Y42900D02*
D03*
X1803Y42197D02*
D03*
X1100Y40500D02*
D03*
X1803Y38803D02*
D03*
X3500Y38100D02*
D03*
X42197Y38803D02*
D03*
X42900Y40500D02*
D03*
X42197Y42197D02*
D03*
X40500Y42900D02*
D03*
X38803Y42197D02*
D03*
X38100Y40500D02*
D03*
X38803Y38803D02*
D03*
X40500Y38100D02*
D03*
X42197Y1803D02*
D03*
X42900Y3500D02*
D03*
X42197Y5197D02*
D03*
X40500Y5900D02*
D03*
X38803Y5197D02*
D03*
X38100Y3500D02*
D03*
X38803Y1803D02*
D03*
X40500Y1100D02*
D03*
X5197Y1803D02*
D03*
X5900Y3500D02*
D03*
X5197Y5197D02*
D03*
X3500Y5900D02*
D03*
X1803Y5197D02*
D03*
X1100Y3500D02*
D03*
X1803Y1803D02*
D03*
X3500Y1100D02*
D03*
D47*
Y40500D02*
D03*
X40500D02*
D03*
Y3500D02*
D03*
X3500D02*
D03*
D48*
X16540Y29000D02*
D03*
X36300Y35973D02*
D03*
Y36700D02*
D03*
X26646Y21076D02*
D03*
X18600Y21625D02*
D03*
X21301Y14901D02*
D03*
X11225Y17225D02*
D03*
X15450Y17100D02*
D03*
X31650Y22000D02*
D03*
X26251Y24345D02*
D03*
X27201Y23026D02*
D03*
X26500Y26325D02*
D03*
X12075Y35875D02*
D03*
X8925Y38675D02*
D03*
X32650Y19425D02*
D03*
X10900Y36900D02*
D03*
X32600D02*
D03*
X22100D02*
D03*
X22800D02*
D03*
X21400D02*
D03*
X20700D02*
D03*
X20000D02*
D03*
X27700D02*
D03*
X30500D02*
D03*
X29100D02*
D03*
X29800D02*
D03*
X28400D02*
D03*
X31200D02*
D03*
X18600D02*
D03*
X19300D02*
D03*
X17900D02*
D03*
X27000D02*
D03*
X25600D02*
D03*
X23500D02*
D03*
X24200D02*
D03*
X24900D02*
D03*
X15800D02*
D03*
X16500D02*
D03*
X15100D02*
D03*
X13000D02*
D03*
X17200D02*
D03*
X14400D02*
D03*
X11600D02*
D03*
X31900D02*
D03*
X26300D02*
D03*
X12300D02*
D03*
X13700D02*
D03*
X10900Y37600D02*
D03*
X32600D02*
D03*
X17150Y29700D02*
D03*
X16450Y27000D02*
D03*
X16451Y25000D02*
D03*
X16450Y23025D02*
D03*
X32219Y13656D02*
D03*
X30498Y9865D02*
D03*
X18900Y16125D02*
D03*
X19950Y14875D02*
D03*
X15182Y13700D02*
D03*
X14482D02*
D03*
X16582D02*
D03*
X15882D02*
D03*
X31975Y33758D02*
D03*
Y34485D02*
D03*
X32600Y38300D02*
D03*
Y39000D02*
D03*
Y39700D02*
D03*
Y40400D02*
D03*
Y41100D02*
D03*
Y41800D02*
D03*
Y42500D02*
D03*
Y43200D02*
D03*
X10900D02*
D03*
Y42500D02*
D03*
Y41800D02*
D03*
Y41100D02*
D03*
Y40400D02*
D03*
Y39700D02*
D03*
Y39000D02*
D03*
Y38300D02*
D03*
%TF.MD5,914a2d101b6f1884639c6fdbf20219a9*%
M02*
