%TF.GenerationSoftware,Altium Limited,Altium Designer,24.10.1 (45)*%
G04 Layer_Color=128*
%FSLAX43Y43*%
%MOMM*%
%TF.SameCoordinates,49FC1627-19C9-4530-BC61-3FE05538F24C*%
%TF.FilePolarity,Positive*%
%TF.FileFunction,Drillmap*%
%TF.Part,Single*%
G01*
G75*
%TA.AperFunction,NonConductor*%
%ADD51C,0.127*%
D51*
X18495Y3100D02*
X19695D01*
X19095Y2500D02*
Y3700D01*
X9855Y3100D02*
X11055D01*
X10455Y2500D02*
Y3700D01*
X18495Y6900D02*
X19695D01*
X19095Y6300D02*
Y7500D01*
X9855Y6900D02*
X11055D01*
X10455Y6300D02*
Y7500D01*
X38840Y12040D02*
X39840D01*
X39340Y11540D02*
Y12540D01*
X36300Y12040D02*
X37300D01*
X36800Y11540D02*
Y12540D01*
X38840Y14580D02*
X39840D01*
X39340Y14080D02*
Y15080D01*
X36300Y14580D02*
X37300D01*
X36800Y14080D02*
Y15080D01*
X38840Y17120D02*
X39840D01*
X39340Y16620D02*
Y17620D01*
X36300Y17120D02*
X37300D01*
X36800Y16620D02*
Y17620D01*
X38840Y19660D02*
X39840D01*
X39340Y19160D02*
Y20160D01*
X36300Y19660D02*
X37300D01*
X36800Y19160D02*
Y20160D01*
X36300Y9500D02*
X37300D01*
X36800Y9000D02*
Y10000D01*
X24420Y5310D02*
X25420D01*
X24920Y4810D02*
Y5810D01*
X24420Y7850D02*
X25420D01*
X24920Y7350D02*
Y8350D01*
X26960Y5310D02*
X27960D01*
X27460Y4810D02*
Y5810D01*
X26960Y7850D02*
X27960D01*
X27460Y7350D02*
Y8350D01*
X29500Y5310D02*
X30500D01*
X30000Y4810D02*
Y5810D01*
X29500Y7850D02*
X30500D01*
X30000Y7350D02*
Y8350D01*
X32040Y5310D02*
X33040D01*
X32540Y4810D02*
Y5810D01*
X32040Y7850D02*
X33040D01*
X32540Y7350D02*
Y8350D01*
X29506Y1837D02*
X30506D01*
X30006Y1337D02*
Y2337D01*
X32046Y1837D02*
X33046D01*
X32546Y1337D02*
Y2337D01*
X21886Y1837D02*
X22886D01*
X22386Y1337D02*
Y2337D01*
X24426Y1837D02*
X25426D01*
X24926Y1337D02*
Y2337D01*
X26966Y1837D02*
X27966D01*
X27466Y1337D02*
Y2337D01*
X34586Y1837D02*
X35586D01*
X35086Y1337D02*
Y2337D01*
X6700Y24500D02*
X7700D01*
X7200Y24000D02*
Y25000D01*
X4160Y24500D02*
X5160D01*
X4660Y24000D02*
Y25000D01*
X6700Y27040D02*
X7700D01*
X7200Y26540D02*
Y27540D01*
X4160Y27040D02*
X5160D01*
X4660Y26540D02*
Y27540D01*
X6700Y29580D02*
X7700D01*
X7200Y29080D02*
Y30080D01*
X4160Y29580D02*
X5160D01*
X4660Y29080D02*
Y30080D01*
X6700Y32120D02*
X7700D01*
X7200Y31620D02*
Y32620D01*
X4160Y32120D02*
X5160D01*
X4660Y31620D02*
Y32620D01*
X4160Y34660D02*
X5160D01*
X4660Y34160D02*
Y35160D01*
X1900Y40500D02*
X5100D01*
X3500Y38900D02*
Y42100D01*
X3250Y38100D02*
X3750D01*
X3500Y37850D02*
Y38350D01*
X1553Y38803D02*
X2053D01*
X1803Y38553D02*
Y39053D01*
X850Y40500D02*
X1350D01*
X1100Y40250D02*
Y40750D01*
X1553Y42197D02*
X2053D01*
X1803Y41947D02*
Y42447D01*
X3250Y42900D02*
X3750D01*
X3500Y42650D02*
Y43150D01*
X4947Y42197D02*
X5447D01*
X5197Y41947D02*
Y42447D01*
X5650Y40500D02*
X6150D01*
X5900Y40250D02*
Y40750D01*
X4947Y38803D02*
X5447D01*
X5197Y38553D02*
Y39053D01*
X36300Y24500D02*
X37300D01*
X36800Y24000D02*
Y25000D01*
X36300Y34660D02*
X37300D01*
X36800Y34160D02*
Y35160D01*
X38840Y34660D02*
X39840D01*
X39340Y34160D02*
Y35160D01*
X36300Y32120D02*
X37300D01*
X36800Y31620D02*
Y32620D01*
X38840Y32120D02*
X39840D01*
X39340Y31620D02*
Y32620D01*
X36300Y29580D02*
X37300D01*
X36800Y29080D02*
Y30080D01*
X38840Y29580D02*
X39840D01*
X39340Y29080D02*
Y30080D01*
X36300Y27040D02*
X37300D01*
X36800Y26540D02*
Y27540D01*
X38840Y27040D02*
X39840D01*
X39340Y26540D02*
Y27540D01*
X6700Y9500D02*
X7700D01*
X7200Y9000D02*
Y10000D01*
X4160Y9500D02*
X5160D01*
X4660Y9000D02*
Y10000D01*
X6700Y12040D02*
X7700D01*
X7200Y11540D02*
Y12540D01*
X4160Y12040D02*
X5160D01*
X4660Y11540D02*
Y12540D01*
X6700Y14580D02*
X7700D01*
X7200Y14080D02*
Y15080D01*
X4160Y14580D02*
X5160D01*
X4660Y14080D02*
Y15080D01*
X6700Y17120D02*
X7700D01*
X7200Y16620D02*
Y17620D01*
X4160Y17120D02*
X5160D01*
X4660Y16620D02*
Y17620D01*
X4160Y19660D02*
X5160D01*
X4660Y19160D02*
Y20160D01*
X4947Y1803D02*
X5447D01*
X5197Y1553D02*
Y2053D01*
X5650Y3500D02*
X6150D01*
X5900Y3250D02*
Y3750D01*
X4947Y5197D02*
X5447D01*
X5197Y4947D02*
Y5447D01*
X3250Y5900D02*
X3750D01*
X3500Y5650D02*
Y6150D01*
X1553Y5197D02*
X2053D01*
X1803Y4947D02*
Y5447D01*
X850Y3500D02*
X1350D01*
X1100Y3250D02*
Y3750D01*
X1553Y1803D02*
X2053D01*
X1803Y1553D02*
Y2053D01*
X3250Y1100D02*
X3750D01*
X3500Y850D02*
Y1350D01*
X1900Y3500D02*
X5100D01*
X3500Y1900D02*
Y5100D01*
X41947Y38803D02*
X42447D01*
X42197Y38553D02*
Y39053D01*
X42650Y40500D02*
X43150D01*
X42900Y40250D02*
Y40750D01*
X41947Y42197D02*
X42447D01*
X42197Y41947D02*
Y42447D01*
X40250Y42900D02*
X40750D01*
X40500Y42650D02*
Y43150D01*
X38553Y42197D02*
X39053D01*
X38803Y41947D02*
Y42447D01*
X37850Y40500D02*
X38350D01*
X38100Y40250D02*
Y40750D01*
X38553Y38803D02*
X39053D01*
X38803Y38553D02*
Y39053D01*
X40250Y38100D02*
X40750D01*
X40500Y37850D02*
Y38350D01*
X38900Y40500D02*
X42100D01*
X40500Y38900D02*
Y42100D01*
X41947Y1803D02*
X42447D01*
X42197Y1553D02*
Y2053D01*
X42650Y3500D02*
X43150D01*
X42900Y3250D02*
Y3750D01*
X41947Y5197D02*
X42447D01*
X42197Y4947D02*
Y5447D01*
X40250Y5900D02*
X40750D01*
X40500Y5650D02*
Y6150D01*
X38553Y5197D02*
X39053D01*
X38803Y4947D02*
Y5447D01*
X37850Y3500D02*
X38350D01*
X38100Y3250D02*
Y3750D01*
X38553Y1803D02*
X39053D01*
X38803Y1553D02*
Y2053D01*
X40250Y1100D02*
X40750D01*
X40500Y850D02*
Y1350D01*
X38900Y3500D02*
X42100D01*
X40500Y1900D02*
Y5100D01*
X29909Y13812D02*
X30209D01*
X30059Y13662D02*
Y13962D01*
X40620Y9502D02*
X40920D01*
X40770Y9352D02*
Y9652D01*
X43151Y20407D02*
X43451D01*
X43301Y20257D02*
Y20557D01*
X29551Y16226D02*
X29851D01*
X29701Y16076D02*
Y16376D01*
X42959Y18555D02*
X43259D01*
X43109Y18405D02*
Y18705D01*
X42446Y15839D02*
X42746D01*
X42596Y15689D02*
Y15989D01*
X42250Y13400D02*
X42550D01*
X42400Y13250D02*
Y13550D01*
X42850Y14050D02*
X43150D01*
X43000Y13900D02*
Y14200D01*
X41650Y10300D02*
X41950D01*
X41800Y10150D02*
Y10450D01*
X9700Y22675D02*
X10000D01*
X9850Y22525D02*
Y22825D01*
X8950Y22651D02*
X9250D01*
X9100Y22501D02*
Y22801D01*
X12179Y30443D02*
X12479D01*
X12329Y30293D02*
Y30593D01*
X11668Y30982D02*
X11968D01*
X11818Y30832D02*
Y31132D01*
X24998Y18083D02*
X25298D01*
X25148Y17933D02*
Y18233D01*
X24386Y19647D02*
X24686D01*
X24536Y19497D02*
Y19797D01*
X24831Y17248D02*
X25131D01*
X24981Y17098D02*
Y17398D01*
X29909Y17032D02*
X30209D01*
X30059Y16882D02*
Y17182D01*
X29909Y17836D02*
X30209D01*
X30059Y17686D02*
Y17986D01*
X29909Y18641D02*
X30209D01*
X30059Y18491D02*
Y18791D01*
X40981Y8591D02*
X41281D01*
X41131Y8441D02*
Y8741D01*
X41658Y9498D02*
X41958D01*
X41808Y9348D02*
Y9648D01*
X41815Y11225D02*
X42115D01*
X41965Y11075D02*
Y11375D01*
X42389Y12604D02*
X42689D01*
X42539Y12455D02*
Y12755D01*
X42931Y15117D02*
X43231D01*
X43081Y14967D02*
Y15267D01*
X43114Y16366D02*
X43414D01*
X43264Y16216D02*
Y16516D01*
X42136Y14644D02*
X42436D01*
X42286Y14494D02*
Y14794D01*
X41618Y12129D02*
X41918D01*
X41768Y11979D02*
Y12279D01*
X42740Y17129D02*
X43040D01*
X42890Y16979D02*
Y17279D01*
X29909Y15422D02*
X30209D01*
X30059Y15272D02*
Y15572D01*
X27462Y16027D02*
X27762D01*
X27612Y15877D02*
Y16177D01*
X32363Y42928D02*
X32663D01*
X32513Y42778D02*
Y43078D01*
X1619Y27147D02*
X1919D01*
X1769Y26997D02*
Y27297D01*
X2371Y26452D02*
X2671D01*
X2521Y26302D02*
Y26602D01*
X8466Y32128D02*
X8766D01*
X8616Y31978D02*
Y32278D01*
X2847Y32127D02*
X3147D01*
X2997Y31977D02*
Y32277D01*
X16907Y28816D02*
X17207D01*
X17057Y28666D02*
Y28966D01*
X16289Y28198D02*
X16589D01*
X16439Y28048D02*
Y28348D01*
X16907Y28198D02*
X17207D01*
X17057Y28048D02*
Y28348D01*
X16289Y28816D02*
X16589D01*
X16439Y28666D02*
Y28966D01*
X12077Y32426D02*
X12377D01*
X12227Y32276D02*
Y32576D01*
X12007Y34407D02*
X12307D01*
X12157Y34257D02*
Y34557D01*
X8692Y39973D02*
X8992D01*
X8842Y39823D02*
Y40123D01*
X24550Y13870D02*
X24850D01*
X24700Y13720D02*
Y14020D01*
X21526Y16019D02*
X21826D01*
X21676Y15869D02*
Y16169D01*
X6849Y5227D02*
X7149D01*
X6999Y5077D02*
Y5377D01*
X6823Y2008D02*
X7123D01*
X6973Y1858D02*
Y2158D01*
X8038Y4018D02*
X8338D01*
X8188Y3868D02*
Y4168D01*
X6875Y6006D02*
X7175D01*
X7025Y5856D02*
Y6156D01*
X17476Y20173D02*
X17776D01*
X17626Y20023D02*
Y20323D01*
X18236Y20729D02*
X18536D01*
X18386Y20579D02*
Y20879D01*
X9644Y25298D02*
X9944D01*
X9794Y25148D02*
Y25448D01*
X9772Y25995D02*
X10072D01*
X9922Y25845D02*
Y26145D01*
X9136Y18937D02*
X9436D01*
X9286Y18787D02*
Y19087D01*
X9279Y17957D02*
X9579D01*
X9429Y17807D02*
Y18107D01*
X9795Y17548D02*
X10095D01*
X9945Y17398D02*
Y17698D01*
X14289Y12924D02*
X14589D01*
X14439Y12774D02*
Y13074D01*
X9960Y16832D02*
X10260D01*
X10110Y16682D02*
Y16982D01*
X8323Y28566D02*
X8623D01*
X8473Y28416D02*
Y28716D01*
X10080Y29737D02*
X10380D01*
X10230Y29587D02*
Y29887D01*
X16552Y20132D02*
X16852D01*
X16702Y19982D02*
Y20282D01*
X21915Y13917D02*
X22215D01*
X22065Y13767D02*
Y14067D01*
X20905Y10314D02*
X21205D01*
X21055Y10164D02*
Y10464D01*
X17378Y5909D02*
X17678D01*
X17528Y5759D02*
Y6059D01*
X11864Y5887D02*
X12164D01*
X12014Y5737D02*
Y6037D01*
X12911Y9855D02*
X13211D01*
X13061Y9705D02*
Y10005D01*
X11918Y8618D02*
X12218D01*
X12068Y8468D02*
Y8768D01*
%TF.MD5,5a56ccc24e24bcedf77969cdd1895e83*%
M02*
