%TF.GenerationSoftware,Altium Limited,Altium Designer,25.1.2 (22)*%
G04 Layer_Color=8421504*
%FSLAX43Y43*%
%MOMM*%
%TF.SameCoordinates,C73E9825-E1A6-41E5-9903-38CA47DD4C8D*%
%TF.FilePolarity,Positive*%
%TF.FileFunction,Paste,Top*%
%TF.Part,Single*%
G01*
G75*
%TA.AperFunction,SMDPad,CuDef*%
%ADD11R,0.500X0.800*%
G04:AMPARAMS|DCode=12|XSize=1.5mm|YSize=0.8mm|CornerRadius=0.1mm|HoleSize=0mm|Usage=FLASHONLY|Rotation=0.000|XOffset=0mm|YOffset=0mm|HoleType=Round|Shape=RoundedRectangle|*
%AMROUNDEDRECTD12*
21,1,1.500,0.600,0,0,0.0*
21,1,1.300,0.800,0,0,0.0*
1,1,0.200,0.650,-0.300*
1,1,0.200,-0.650,-0.300*
1,1,0.200,-0.650,0.300*
1,1,0.200,0.650,0.300*
%
%ADD12ROUNDEDRECTD12*%
G04:AMPARAMS|DCode=13|XSize=0.65mm|YSize=1.6mm|CornerRadius=0.114mm|HoleSize=0mm|Usage=FLASHONLY|Rotation=270.000|XOffset=0mm|YOffset=0mm|HoleType=Round|Shape=RoundedRectangle|*
%AMROUNDEDRECTD13*
21,1,0.650,1.373,0,0,270.0*
21,1,0.422,1.600,0,0,270.0*
1,1,0.228,-0.686,-0.211*
1,1,0.228,-0.686,0.211*
1,1,0.228,0.686,0.211*
1,1,0.228,0.686,-0.211*
%
%ADD13ROUNDEDRECTD13*%
%ADD14R,1.600X0.650*%
%ADD15R,2.540X1.143*%
%ADD16R,1.143X2.540*%
G04:AMPARAMS|DCode=17|XSize=0.8mm|YSize=1mm|CornerRadius=0.1mm|HoleSize=0mm|Usage=FLASHONLY|Rotation=0.000|XOffset=0mm|YOffset=0mm|HoleType=Round|Shape=RoundedRectangle|*
%AMROUNDEDRECTD17*
21,1,0.800,0.800,0,0,0.0*
21,1,0.600,1.000,0,0,0.0*
1,1,0.200,0.300,-0.400*
1,1,0.200,-0.300,-0.400*
1,1,0.200,-0.300,0.400*
1,1,0.200,0.300,0.400*
%
%ADD17ROUNDEDRECTD17*%
%ADD18R,0.800X0.900*%
%ADD19R,0.800X0.500*%
%ADD20R,1.800X1.400*%
%ADD24R,0.625X0.830*%
%ADD25R,0.700X1.200*%
%ADD26R,0.760X1.200*%
%ADD27R,0.800X1.200*%
%ADD28R,0.758X0.812*%
%ADD29R,1.400X1.800*%
%ADD30R,0.900X0.800*%
%ADD31R,2.000X0.550*%
%TA.AperFunction,ComponentPad*%
G04:AMPARAMS|DCode=39|XSize=1.7mm|YSize=1.7mm|CornerRadius=0.85mm|HoleSize=0mm|Usage=FLASHONLY|Rotation=0.000|XOffset=0mm|YOffset=0mm|HoleType=Round|Shape=RoundedRectangle|*
%AMROUNDEDRECTD39*
21,1,1.700,0.000,0,0,0.0*
21,1,0.000,1.700,0,0,0.0*
1,1,1.700,0.000,0.000*
1,1,1.700,0.000,0.000*
1,1,1.700,0.000,0.000*
1,1,1.700,0.000,0.000*
%
%ADD39ROUNDEDRECTD39*%
%ADD40C,1.700*%
%ADD41R,1.700X1.700*%
G04:AMPARAMS|DCode=42|XSize=1.7mm|YSize=1.7mm|CornerRadius=0.85mm|HoleSize=0mm|Usage=FLASHONLY|Rotation=90.000|XOffset=0mm|YOffset=0mm|HoleType=Round|Shape=RoundedRectangle|*
%AMROUNDEDRECTD42*
21,1,1.700,0.000,0,0,90.0*
21,1,0.000,1.700,0,0,90.0*
1,1,1.700,0.000,0.000*
1,1,1.700,0.000,0.000*
1,1,1.700,0.000,0.000*
1,1,1.700,0.000,0.000*
%
%ADD42ROUNDEDRECTD42*%
%ADD43R,1.700X1.700*%
%ADD45C,1.000*%
%ADD46C,6.400*%
%TA.AperFunction,NonConductor*%
%ADD55R,0.560X0.250*%
%ADD56R,0.900X1.050*%
%ADD57R,0.330X0.250*%
%ADD58R,0.330X0.250*%
D11*
X32600Y22225D02*
D03*
X34100D02*
D03*
X32600Y20457D02*
D03*
X34100D02*
D03*
X33975Y27000D02*
D03*
X32475D02*
D03*
X32550Y25075D02*
D03*
X34050D02*
D03*
X34100Y23675D02*
D03*
X32600D02*
D03*
X18293Y16150D02*
D03*
X16793D02*
D03*
X15475D02*
D03*
X13975D02*
D03*
D12*
X30860Y17415D02*
D03*
Y15635D02*
D03*
X34140D02*
D03*
Y17415D02*
D03*
D13*
X15482Y12750D02*
D03*
Y14650D02*
D03*
X17982D02*
D03*
Y13700D02*
D03*
D14*
Y12750D02*
D03*
D15*
X29761Y35000D02*
D03*
X14250Y23000D02*
D03*
Y25000D02*
D03*
Y27000D02*
D03*
Y29000D02*
D03*
Y31000D02*
D03*
Y33000D02*
D03*
Y35000D02*
D03*
X29761Y33000D02*
D03*
Y31000D02*
D03*
Y29000D02*
D03*
Y27000D02*
D03*
Y25000D02*
D03*
Y23000D02*
D03*
Y21000D02*
D03*
X14250D02*
D03*
D16*
X17000Y19000D02*
D03*
X19000D02*
D03*
X21000D02*
D03*
X23000D02*
D03*
X25000D02*
D03*
X27000D02*
D03*
D17*
X9575Y14875D02*
D03*
X11075D02*
D03*
D18*
X10575Y19375D02*
D03*
X9275D02*
D03*
X10575Y18100D02*
D03*
X9275D02*
D03*
X10575Y16425D02*
D03*
X9275D02*
D03*
D19*
X22657Y14261D02*
D03*
Y12761D02*
D03*
X9750Y6870D02*
D03*
Y5370D02*
D03*
X12575Y16000D02*
D03*
Y14500D02*
D03*
X34122Y3072D02*
D03*
Y4572D02*
D03*
X34682Y12156D02*
D03*
Y13656D02*
D03*
X34122Y7372D02*
D03*
Y5872D02*
D03*
D20*
X25825Y13650D02*
D03*
Y11050D02*
D03*
D24*
X30807Y13656D02*
D03*
X33032D02*
D03*
D25*
X28500Y7530D02*
D03*
X27500D02*
D03*
D26*
X29520D02*
D03*
X26480D02*
D03*
D27*
X30750D02*
D03*
X25250D02*
D03*
D28*
X27823Y13650D02*
D03*
X29077D02*
D03*
D29*
X12775Y12750D02*
D03*
X10175D02*
D03*
D30*
X21319Y14061D02*
D03*
Y12761D02*
D03*
X19982Y14061D02*
D03*
Y12761D02*
D03*
X34682Y10783D02*
D03*
Y9483D02*
D03*
X9750Y9500D02*
D03*
Y8200D02*
D03*
D31*
X35075Y42875D02*
D03*
Y39625D02*
D03*
X9000D02*
D03*
Y42875D02*
D03*
D39*
X39340Y17120D02*
D03*
X36800D02*
D03*
X39340Y14580D02*
D03*
Y12040D02*
D03*
X36800D02*
D03*
Y14580D02*
D03*
Y9500D02*
D03*
X10500Y29580D02*
D03*
Y32120D02*
D03*
Y21960D02*
D03*
Y24500D02*
D03*
Y27040D02*
D03*
X7200Y34660D02*
D03*
X4660Y24500D02*
D03*
X7200Y27040D02*
D03*
X4660D02*
D03*
X7200Y29580D02*
D03*
X4660D02*
D03*
X7200Y32120D02*
D03*
X4660D02*
D03*
Y9500D02*
D03*
X7200Y12040D02*
D03*
X4660D02*
D03*
X7200Y14580D02*
D03*
X4660D02*
D03*
X7200Y17120D02*
D03*
X4660D02*
D03*
Y19660D02*
D03*
X39340Y34660D02*
D03*
X36800Y24500D02*
D03*
X39340Y27040D02*
D03*
X36800D02*
D03*
X39340Y29580D02*
D03*
X36800D02*
D03*
X39340Y32120D02*
D03*
X36800D02*
D03*
D40*
Y19660D02*
D03*
D41*
X39340Y9500D02*
D03*
X10500Y34660D02*
D03*
X7200Y24500D02*
D03*
Y9500D02*
D03*
X39340Y24500D02*
D03*
D42*
X20120Y10000D02*
D03*
X17580D02*
D03*
X15040D02*
D03*
X12500Y6540D02*
D03*
X15040Y4000D02*
D03*
Y6540D02*
D03*
X17580Y4000D02*
D03*
Y6540D02*
D03*
X20120Y4000D02*
D03*
Y6540D02*
D03*
D43*
X12500Y10000D02*
D03*
Y4000D02*
D03*
D45*
X5197Y38803D02*
D03*
X5900Y40500D02*
D03*
X5197Y42197D02*
D03*
X3500Y42900D02*
D03*
X1803Y42197D02*
D03*
X1100Y40500D02*
D03*
X1803Y38803D02*
D03*
X3500Y38100D02*
D03*
X42197Y38803D02*
D03*
X42900Y40500D02*
D03*
X42197Y42197D02*
D03*
X40500Y42900D02*
D03*
X38803Y42197D02*
D03*
X38100Y40500D02*
D03*
X38803Y38803D02*
D03*
X40500Y38100D02*
D03*
X42197Y1803D02*
D03*
X42900Y3500D02*
D03*
X42197Y5197D02*
D03*
X40500Y5900D02*
D03*
X38803Y5197D02*
D03*
X38100Y3500D02*
D03*
X38803Y1803D02*
D03*
X40500Y1100D02*
D03*
X5197Y1803D02*
D03*
X5900Y3500D02*
D03*
X5197Y5197D02*
D03*
X3500Y5900D02*
D03*
X1803Y5197D02*
D03*
X1100Y3500D02*
D03*
X1803Y1803D02*
D03*
X3500Y1100D02*
D03*
D46*
Y40500D02*
D03*
X40500D02*
D03*
Y3500D02*
D03*
X3500D02*
D03*
D55*
X28722Y12075D02*
D03*
X32097D02*
D03*
D56*
X28722Y11015D02*
D03*
X32097D02*
D03*
D57*
X27787Y11950D02*
D03*
Y10650D02*
D03*
X29657Y11950D02*
D03*
Y10650D02*
D03*
X31162Y11950D02*
D03*
Y10650D02*
D03*
X33032Y11950D02*
D03*
Y10650D02*
D03*
D58*
X27787Y11300D02*
D03*
X29657D02*
D03*
X31162D02*
D03*
X33032D02*
D03*
%TF.MD5,cfca0fc24dac83148f89c4333f07ea21*%
M02*
