%TF.GenerationSoftware,Altium Limited,Altium Designer,24.10.1 (45)*%
G04 Layer_Color=8388736*
%FSLAX43Y43*%
%MOMM*%
%TF.SameCoordinates,4F6CA7F9-16B1-4BEF-A266-F2E80261E3DE*%
%TF.FilePolarity,Negative*%
%TF.FileFunction,Soldermask,Top*%
%TF.Part,Single*%
G01*
G75*
%TA.AperFunction,SMDPad,CuDef*%
%ADD12R,1.400X1.800*%
%ADD16R,0.430X0.350*%
%ADD17R,1.100X1.250*%
%ADD18R,0.660X0.350*%
%ADD34R,1.800X1.400*%
%ADD67R,0.976X0.876*%
%ADD68R,0.576X0.876*%
G04:AMPARAMS|DCode=69|XSize=1.232mm|YSize=0.612mm|CornerRadius=0.306mm|HoleSize=0mm|Usage=FLASHONLY|Rotation=180.000|XOffset=0mm|YOffset=0mm|HoleType=Round|Shape=RoundedRectangle|*
%AMROUNDEDRECTD69*
21,1,1.232,0.000,0,0,180.0*
21,1,0.620,0.612,0,0,180.0*
1,1,0.612,-0.310,0.000*
1,1,0.612,0.310,0.000*
1,1,0.612,0.310,0.000*
1,1,0.612,-0.310,0.000*
%
%ADD69ROUNDEDRECTD69*%
%ADD70R,1.232X0.612*%
%TA.AperFunction,ComponentPad*%
G04:AMPARAMS|DCode=71|XSize=1.176mm|YSize=1.776mm|CornerRadius=0.588mm|HoleSize=0mm|Usage=FLASHONLY|Rotation=0.000|XOffset=0mm|YOffset=0mm|HoleType=Round|Shape=RoundedRectangle|*
%AMROUNDEDRECTD71*
21,1,1.176,0.600,0,0,0.0*
21,1,0.000,1.776,0,0,0.0*
1,1,1.176,0.000,-0.300*
1,1,1.176,0.000,-0.300*
1,1,1.176,0.000,0.300*
1,1,1.176,0.000,0.300*
%
%ADD71ROUNDEDRECTD71*%
G04:AMPARAMS|DCode=72|XSize=1.776mm|YSize=1.776mm|CornerRadius=0.888mm|HoleSize=0mm|Usage=FLASHONLY|Rotation=0.000|XOffset=0mm|YOffset=0mm|HoleType=Round|Shape=RoundedRectangle|*
%AMROUNDEDRECTD72*
21,1,1.776,0.000,0,0,0.0*
21,1,0.000,1.776,0,0,0.0*
1,1,1.776,0.000,0.000*
1,1,1.776,0.000,0.000*
1,1,1.776,0.000,0.000*
1,1,1.776,0.000,0.000*
%
%ADD72ROUNDEDRECTD72*%
%ADD73R,1.776X1.776*%
%ADD74R,1.776X1.776*%
G04:AMPARAMS|DCode=75|XSize=1.776mm|YSize=1.776mm|CornerRadius=0.888mm|HoleSize=0mm|Usage=FLASHONLY|Rotation=90.000|XOffset=0mm|YOffset=0mm|HoleType=Round|Shape=RoundedRectangle|*
%AMROUNDEDRECTD75*
21,1,1.776,0.000,0,0,90.0*
21,1,0.000,1.776,0,0,90.0*
1,1,1.776,0.000,0.000*
1,1,1.776,0.000,0.000*
1,1,1.776,0.000,0.000*
1,1,1.776,0.000,0.000*
%
%ADD75ROUNDEDRECTD75*%
%ADD76C,1.076*%
%TA.AperFunction,SMDPad,CuDef*%
%ADD77R,0.776X1.276*%
%ADD78R,0.836X1.276*%
%ADD79R,0.876X1.276*%
%ADD80R,0.826X0.826*%
%ADD81R,0.626X2.076*%
G04:AMPARAMS|DCode=82|XSize=0.726mm|YSize=1.676mm|CornerRadius=0.152mm|HoleSize=0mm|Usage=FLASHONLY|Rotation=180.000|XOffset=0mm|YOffset=0mm|HoleType=Round|Shape=RoundedRectangle|*
%AMROUNDEDRECTD82*
21,1,0.726,1.373,0,0,180.0*
21,1,0.422,1.676,0,0,180.0*
1,1,0.304,-0.211,0.686*
1,1,0.304,0.211,0.686*
1,1,0.304,0.211,-0.686*
1,1,0.304,-0.211,-0.686*
%
%ADD82ROUNDEDRECTD82*%
%ADD83R,0.726X1.676*%
%TA.AperFunction,ConnectorPad*%
%ADD84R,2.616X1.219*%
%ADD85R,1.219X2.616*%
%TA.AperFunction,SMDPad,CuDef*%
%ADD86R,0.834X0.888*%
%ADD87R,0.906X0.701*%
%ADD88R,0.876X0.976*%
G04:AMPARAMS|DCode=89|XSize=0.876mm|YSize=1.076mm|CornerRadius=0.138mm|HoleSize=0mm|Usage=FLASHONLY|Rotation=0.000|XOffset=0mm|YOffset=0mm|HoleType=Round|Shape=RoundedRectangle|*
%AMROUNDEDRECTD89*
21,1,0.876,0.800,0,0,0.0*
21,1,0.600,1.076,0,0,0.0*
1,1,0.276,0.300,-0.400*
1,1,0.276,-0.300,-0.400*
1,1,0.276,-0.300,0.400*
1,1,0.276,0.300,0.400*
%
%ADD89ROUNDEDRECTD89*%
%ADD90R,0.876X0.576*%
%ADD91R,0.888X0.834*%
%TA.AperFunction,ConnectorPad*%
%ADD92R,0.876X0.976*%
D12*
X20660Y16027D02*
D03*
X18060D02*
D03*
D16*
X11800Y12088D02*
D03*
Y12738D02*
D03*
Y13388D02*
D03*
X9930D02*
D03*
Y12738D02*
D03*
Y12088D02*
D03*
X17243Y12118D02*
D03*
Y12768D02*
D03*
Y13418D02*
D03*
X19113D02*
D03*
Y12768D02*
D03*
Y12118D02*
D03*
D17*
X10865Y12453D02*
D03*
X18178Y12483D02*
D03*
D18*
X10865Y13513D02*
D03*
X18178Y13543D02*
D03*
D34*
X12571Y21241D02*
D03*
Y18641D02*
D03*
D67*
X24693Y16059D02*
D03*
Y14759D02*
D03*
D68*
X29417Y11159D02*
D03*
X30917D02*
D03*
X31671Y12713D02*
D03*
X36375Y40436D02*
D03*
X34875D02*
D03*
X10975Y30970D02*
D03*
X9475D02*
D03*
X10975Y32164D02*
D03*
X9475D02*
D03*
Y38209D02*
D03*
X10975D02*
D03*
X9475Y36408D02*
D03*
X10975D02*
D03*
X30171Y12713D02*
D03*
X19983Y17828D02*
D03*
X18483D02*
D03*
X10975Y33359D02*
D03*
X9475D02*
D03*
Y29775D02*
D03*
X10975D02*
D03*
X9092Y3355D02*
D03*
X7592D02*
D03*
X9092Y5980D02*
D03*
X7592D02*
D03*
X14498Y11914D02*
D03*
X15998D02*
D03*
X9092Y4668D02*
D03*
X7592D02*
D03*
D69*
X28687Y16027D02*
D03*
Y16977D02*
D03*
X26537D02*
D03*
Y16027D02*
D03*
Y15077D02*
D03*
D70*
X28687D02*
D03*
D71*
X19095Y3100D02*
D03*
X10455D02*
D03*
X19095Y6900D02*
D03*
X10455D02*
D03*
D72*
X39340Y12040D02*
D03*
X36800D02*
D03*
X39340Y14580D02*
D03*
X36800D02*
D03*
X39340Y17120D02*
D03*
X36800D02*
D03*
X39340Y19660D02*
D03*
X36800Y9500D02*
D03*
X4660Y24500D02*
D03*
X7200Y27040D02*
D03*
X4660D02*
D03*
X7200Y29580D02*
D03*
X4660D02*
D03*
X7200Y32120D02*
D03*
X4660D02*
D03*
Y34660D02*
D03*
X36800Y24500D02*
D03*
X39340Y34660D02*
D03*
X36800Y32120D02*
D03*
X39340D02*
D03*
X36800Y29580D02*
D03*
X39340D02*
D03*
X36800Y27040D02*
D03*
X39340D02*
D03*
X4660Y9500D02*
D03*
X7200Y12040D02*
D03*
X4660D02*
D03*
X7200Y14580D02*
D03*
X4660D02*
D03*
X7200Y17120D02*
D03*
X4660D02*
D03*
Y19660D02*
D03*
D73*
X36800D02*
D03*
X7200Y24500D02*
D03*
X36800Y34660D02*
D03*
X7200Y9500D02*
D03*
D74*
X24920Y5310D02*
D03*
X35086Y1837D02*
D03*
D75*
X24920Y7850D02*
D03*
X27460Y5310D02*
D03*
Y7850D02*
D03*
X30000Y5310D02*
D03*
Y7850D02*
D03*
X32540Y5310D02*
D03*
Y7850D02*
D03*
X30006Y1837D02*
D03*
X32546D02*
D03*
X22386D02*
D03*
X24926D02*
D03*
X27466D02*
D03*
D76*
X3500Y38100D02*
D03*
X1803Y38803D02*
D03*
X1100Y40500D02*
D03*
X1803Y42197D02*
D03*
X3500Y42900D02*
D03*
X5197Y42197D02*
D03*
X5900Y40500D02*
D03*
X5197Y38803D02*
D03*
Y1803D02*
D03*
X5900Y3500D02*
D03*
X5197Y5197D02*
D03*
X3500Y5900D02*
D03*
X1803Y5197D02*
D03*
X1100Y3500D02*
D03*
X1803Y1803D02*
D03*
X3500Y1100D02*
D03*
X42197Y38803D02*
D03*
X42900Y40500D02*
D03*
X42197Y42197D02*
D03*
X40500Y42900D02*
D03*
X38803Y42197D02*
D03*
X38100Y40500D02*
D03*
X38803Y38803D02*
D03*
X40500Y38100D02*
D03*
X42197Y1803D02*
D03*
X42900Y3500D02*
D03*
X42197Y5197D02*
D03*
X40500Y5900D02*
D03*
X38803Y5197D02*
D03*
X38100Y3500D02*
D03*
X38803Y1803D02*
D03*
X40500Y1100D02*
D03*
D77*
X15275Y6980D02*
D03*
X14275D02*
D03*
D78*
X16295D02*
D03*
X13255D02*
D03*
D79*
X17525D02*
D03*
X12025D02*
D03*
D80*
X33815Y38957D02*
D03*
X35315Y37457D02*
D03*
X33815D02*
D03*
X35315Y38957D02*
D03*
D81*
X33125Y42250D02*
D03*
X36375D02*
D03*
X10875D02*
D03*
X7625D02*
D03*
D82*
X16702Y21385D02*
D03*
X14802D02*
D03*
X16702Y18885D02*
D03*
X15752D02*
D03*
D83*
X14802D02*
D03*
D84*
X14164Y28408D02*
D03*
X29675D02*
D03*
Y30408D02*
D03*
Y32408D02*
D03*
Y34408D02*
D03*
Y36408D02*
D03*
Y38408D02*
D03*
Y40408D02*
D03*
X14164Y42408D02*
D03*
Y40408D02*
D03*
Y38408D02*
D03*
Y36408D02*
D03*
Y34408D02*
D03*
Y32408D02*
D03*
Y30408D02*
D03*
X29675Y42408D02*
D03*
D85*
X26914Y26408D02*
D03*
X24914D02*
D03*
X22914D02*
D03*
X20914D02*
D03*
X18914D02*
D03*
X16914D02*
D03*
D86*
X24710Y11115D02*
D03*
X25964D02*
D03*
D87*
X20474Y11874D02*
D03*
Y14099D02*
D03*
X13133Y11874D02*
D03*
Y14099D02*
D03*
D88*
X12028Y27043D02*
D03*
X10728D02*
D03*
X9575Y40010D02*
D03*
X10875D02*
D03*
X12028Y22807D02*
D03*
X10728D02*
D03*
X10756Y9445D02*
D03*
X12056D02*
D03*
X13848Y15670D02*
D03*
X12548D02*
D03*
X12028Y25903D02*
D03*
X10728D02*
D03*
X20201Y10326D02*
D03*
X18901D02*
D03*
X12562Y16932D02*
D03*
X13862D02*
D03*
X12056Y10572D02*
D03*
X10756D02*
D03*
X8469Y21986D02*
D03*
X7169D02*
D03*
D89*
X12071Y24339D02*
D03*
X10571D02*
D03*
D90*
X31244Y22869D02*
D03*
Y24369D02*
D03*
X10599Y18971D02*
D03*
Y20471D02*
D03*
X18371Y21675D02*
D03*
Y20175D02*
D03*
X19785D02*
D03*
Y21675D02*
D03*
X22066Y11774D02*
D03*
Y13274D02*
D03*
X21199Y21675D02*
D03*
Y20175D02*
D03*
D91*
X15542Y15391D02*
D03*
Y14137D02*
D03*
D92*
X7686Y2043D02*
D03*
X8986D02*
D03*
%TF.MD5,074eb7109c94cb23b97f8f26be6cf6c8*%
M02*
