%TF.GenerationSoftware,Altium Limited,Altium Designer,24.10.1 (45)*%
G04 Layer_Color=16711935*
%FSLAX43Y43*%
%MOMM*%
%TF.SameCoordinates,4F6CA7F9-16B1-4BEF-A266-F2E80261E3DE*%
%TF.FilePolarity,Negative*%
%TF.FileFunction,Soldermask,Bot*%
%TF.Part,Single*%
G01*
G75*
%TA.AperFunction,SMDPad,CuDef*%
%ADD65R,0.608X1.133*%
G04:AMPARAMS|DCode=66|XSize=1.133mm|YSize=0.608mm|CornerRadius=0.131mm|HoleSize=0mm|Usage=FLASHONLY|Rotation=90.000|XOffset=0mm|YOffset=0mm|HoleType=Round|Shape=RoundedRectangle|*
%AMROUNDEDRECTD66*
21,1,1.133,0.346,0,0,90.0*
21,1,0.871,0.608,0,0,90.0*
1,1,0.262,0.173,0.435*
1,1,0.262,0.173,-0.435*
1,1,0.262,-0.173,-0.435*
1,1,0.262,-0.173,0.435*
%
%ADD66ROUNDEDRECTD66*%
%ADD67R,0.976X0.876*%
%ADD68R,0.576X0.876*%
G04:AMPARAMS|DCode=69|XSize=1.232mm|YSize=0.612mm|CornerRadius=0.306mm|HoleSize=0mm|Usage=FLASHONLY|Rotation=180.000|XOffset=0mm|YOffset=0mm|HoleType=Round|Shape=RoundedRectangle|*
%AMROUNDEDRECTD69*
21,1,1.232,0.000,0,0,180.0*
21,1,0.620,0.612,0,0,180.0*
1,1,0.612,-0.310,0.000*
1,1,0.612,0.310,0.000*
1,1,0.612,0.310,0.000*
1,1,0.612,-0.310,0.000*
%
%ADD69ROUNDEDRECTD69*%
%ADD70R,1.232X0.612*%
%TA.AperFunction,ComponentPad*%
G04:AMPARAMS|DCode=71|XSize=1.176mm|YSize=1.776mm|CornerRadius=0.588mm|HoleSize=0mm|Usage=FLASHONLY|Rotation=0.000|XOffset=0mm|YOffset=0mm|HoleType=Round|Shape=RoundedRectangle|*
%AMROUNDEDRECTD71*
21,1,1.176,0.600,0,0,0.0*
21,1,0.000,1.776,0,0,0.0*
1,1,1.176,0.000,-0.300*
1,1,1.176,0.000,-0.300*
1,1,1.176,0.000,0.300*
1,1,1.176,0.000,0.300*
%
%ADD71ROUNDEDRECTD71*%
G04:AMPARAMS|DCode=72|XSize=1.776mm|YSize=1.776mm|CornerRadius=0.888mm|HoleSize=0mm|Usage=FLASHONLY|Rotation=0.000|XOffset=0mm|YOffset=0mm|HoleType=Round|Shape=RoundedRectangle|*
%AMROUNDEDRECTD72*
21,1,1.776,0.000,0,0,0.0*
21,1,0.000,1.776,0,0,0.0*
1,1,1.776,0.000,0.000*
1,1,1.776,0.000,0.000*
1,1,1.776,0.000,0.000*
1,1,1.776,0.000,0.000*
%
%ADD72ROUNDEDRECTD72*%
%ADD73R,1.776X1.776*%
%ADD74R,1.776X1.776*%
G04:AMPARAMS|DCode=75|XSize=1.776mm|YSize=1.776mm|CornerRadius=0.888mm|HoleSize=0mm|Usage=FLASHONLY|Rotation=90.000|XOffset=0mm|YOffset=0mm|HoleType=Round|Shape=RoundedRectangle|*
%AMROUNDEDRECTD75*
21,1,1.776,0.000,0,0,90.0*
21,1,0.000,1.776,0,0,90.0*
1,1,1.776,0.000,0.000*
1,1,1.776,0.000,0.000*
1,1,1.776,0.000,0.000*
1,1,1.776,0.000,0.000*
%
%ADD75ROUNDEDRECTD75*%
%ADD76C,1.076*%
D65*
X25491Y23171D02*
D03*
X29227D02*
D03*
X32963D02*
D03*
D66*
X23591D02*
D03*
X24541Y24972D02*
D03*
X28277D02*
D03*
X27327Y23171D02*
D03*
X32013Y24972D02*
D03*
X31062Y23171D02*
D03*
D67*
X14771Y16805D02*
D03*
Y15505D02*
D03*
X9481Y28586D02*
D03*
Y27286D02*
D03*
D68*
X29027Y21778D02*
D03*
X27527D02*
D03*
X23791D02*
D03*
X25291D02*
D03*
X25291Y20558D02*
D03*
X23791D02*
D03*
X23791Y26477D02*
D03*
X25291D02*
D03*
X27527Y20558D02*
D03*
X29027D02*
D03*
X31263Y21778D02*
D03*
X32763D02*
D03*
X31263Y20558D02*
D03*
X32763D02*
D03*
D69*
X11080Y28228D02*
D03*
X13230Y27278D02*
D03*
Y26328D02*
D03*
X11080D02*
D03*
Y27278D02*
D03*
Y16823D02*
D03*
Y17773D02*
D03*
X13230D02*
D03*
Y16823D02*
D03*
Y15873D02*
D03*
D70*
Y28228D02*
D03*
X11080Y15873D02*
D03*
D71*
X19095Y3100D02*
D03*
X10455D02*
D03*
X19095Y6900D02*
D03*
X10455D02*
D03*
D72*
X39340Y12040D02*
D03*
X36800D02*
D03*
X39340Y14580D02*
D03*
X36800D02*
D03*
X39340Y17120D02*
D03*
X36800D02*
D03*
X39340Y19660D02*
D03*
X36800Y9500D02*
D03*
X4660Y24500D02*
D03*
X7200Y27040D02*
D03*
X4660D02*
D03*
X7200Y29580D02*
D03*
X4660D02*
D03*
X7200Y32120D02*
D03*
X4660D02*
D03*
Y34660D02*
D03*
X36800Y24500D02*
D03*
X39340Y34660D02*
D03*
X36800Y32120D02*
D03*
X39340D02*
D03*
X36800Y29580D02*
D03*
X39340D02*
D03*
X36800Y27040D02*
D03*
X39340D02*
D03*
X4660Y9500D02*
D03*
X7200Y12040D02*
D03*
X4660D02*
D03*
X7200Y14580D02*
D03*
X4660D02*
D03*
X7200Y17120D02*
D03*
X4660D02*
D03*
Y19660D02*
D03*
D73*
X36800D02*
D03*
X7200Y24500D02*
D03*
X36800Y34660D02*
D03*
X7200Y9500D02*
D03*
D74*
X24920Y5310D02*
D03*
X35086Y1837D02*
D03*
D75*
X24920Y7850D02*
D03*
X27460Y5310D02*
D03*
Y7850D02*
D03*
X30000Y5310D02*
D03*
Y7850D02*
D03*
X32540Y5310D02*
D03*
Y7850D02*
D03*
X30006Y1837D02*
D03*
X32546D02*
D03*
X22386D02*
D03*
X24926D02*
D03*
X27466D02*
D03*
D76*
X3500Y38100D02*
D03*
X1803Y38803D02*
D03*
X1100Y40500D02*
D03*
X1803Y42197D02*
D03*
X3500Y42900D02*
D03*
X5197Y42197D02*
D03*
X5900Y40500D02*
D03*
X5197Y38803D02*
D03*
Y1803D02*
D03*
X5900Y3500D02*
D03*
X5197Y5197D02*
D03*
X3500Y5900D02*
D03*
X1803Y5197D02*
D03*
X1100Y3500D02*
D03*
X1803Y1803D02*
D03*
X3500Y1100D02*
D03*
X42197Y38803D02*
D03*
X42900Y40500D02*
D03*
X42197Y42197D02*
D03*
X40500Y42900D02*
D03*
X38803Y42197D02*
D03*
X38100Y40500D02*
D03*
X38803Y38803D02*
D03*
X40500Y38100D02*
D03*
X42197Y1803D02*
D03*
X42900Y3500D02*
D03*
X42197Y5197D02*
D03*
X40500Y5900D02*
D03*
X38803Y5197D02*
D03*
X38100Y3500D02*
D03*
X38803Y1803D02*
D03*
X40500Y1100D02*
D03*
%TF.MD5,364a02f4c9f6821661b1fde429364775*%
M02*
